<svg id="Layer_1" data-name="Layer 1" xmlns="http://www.w3.org/2000/svg" viewBox="0 0 912.55 639.46"><defs><style>.cls-1{fill:#75b5c4;}.cls-2{opacity:0.8;}.cls-3{fill:#76b5c4;}.cls-4{fill:#4a4017;}.cls-5{fill:#4a4018;}.cls-6{fill:#45769b;}.cls-7{fill:#45779b;}.cls-8,.cls-9{fill:#263273;}.cls-8{opacity:0.08;}.cls-9{opacity:0.06;}.cls-10{fill:#044f5f;opacity:0.39;}</style></defs><title>Boat 1</title><polygon class="cls-1" points="509.57 0.56 509.57 412.38 121.42 413.97 509.57 0.56"/><g class="cls-2"><path class="cls-3" d="M626.92,228.13c-29.18,25.79-119.67,121.49-160.06,162.23-15.37,15.87-27.16,27.92-36.1,36.84-7.54,7.51,9.63-10.15,36.1-36.84l41.64-43.17c-21,20.12-41.27,39.43-55.89,53.15l-30.82,32.31c-45.89,48-90,94.84-135.65,142.1-6.6,6.81-16.23,16.91-26.41,27.57l-35.41,37c8.7,0.07,15.91.17,21.72,0.31l-22.47,0,193-204-5.54,5.5L305.62,551c-5.92,6.27-11.94,12.56-18.21,19l18.21-19c15.48-16.41,30.2-32.64,47-50.6,10.45-11,22.73-23.22,33.2-34.23,8.58-8.94,16.87-16.78,25.27-25l15.75-16.4c1.47-1.66,3-3.43,4.69-5.21l-0.24.19C416.13,431.34,282,567.92,260.66,591.46c-2.93,3.22-5.77,6.43-8.56,9.66L250,603.54,248.72,605,247,606.95l-6.69,7.61-25,28.73c12.93-.44,25.4-0.8,38.19-0.95,3.43,0,6.69,0,9.85,0l7.47,0.11c4.06,0.07,7.85.08,11.46-.23,0.71-.39,4.32-0.69,7.94-1,18.75-.27,37.54,1.1,52-0.12,10.11-.52,38.33,5.64,40.49,4.47,7.89-4.28,2.15-1.17,26-.88,2.89,0.08,12.26-1.69,18-1.53,19.5,1,25.27-.49,47.65-1.07,33.21-1.49,40.49,1.18,70.06-1.64,3.59-.31,49.8-2.23,49.8-2.23l7.12,0,7.34,0,15.93-.19-0.23-19.65c-0.06-5.06-.09-10,0-14.81,0.1-9.7.51-19.22,1.6-29.51-2.61-32.49.48-75.84,0-110.49s1.64-49.14,3.47-79.47c0.29-8.67.09-15.16,0.67-20.21s-1.06-17.33-.77-26l1.16,2.16,0.38-11.56c0.1-2.9.49-2.16,0.87-1.45,0.77,1.45,1.55,2.88,2.13-2.18q1-18.11,1.52-37.07-0.87-18.73-2-37a8.11,8.11,0,0,1-1.49-3.23L631,236.74c-1.16-2.16-2.42-1.43-3.19-2.89-3.28,0-6.47-15.13-9.46-11.51-0.87,1.45-1.16,22.39-2.7,31.78-0.48,2.18-1.54-2.89-2.7-5,0,12.28-1.25,13-2.32,7.95l-0.19,5.77-1.55-2.88c-1.45,31.07-4.24,65.75-2.79,96.07,0.19,6.5,1.06,17.33,1.64,24.55,0.29,3.6-.39,11.55-0.49,14.44,1.06,5.06,2.32,4.33,3.48,6.49-1.16,22.4-3.18,70.8,1,69.34-0.19,18,1.74,21.66,1.93,40.44,0.33,24.87.57,56.42,0.73,87.54,0.1,6,.15,11.94.18,17.83l0,11.43-8.5,0-17.75.12c-61.75.45-115.41,0-168.69-.19-26.64-.07-53.19-0.06-80.6.2-13.71.13-27.63,0.32-41.9,0.59l-21.66.47-5.51.14-2.77.07-1.75.07-6.88.31-13.77.56,9.22-10.49,5-5.61,7.31-8.05q15.06-16.53,30.21-33c20.18-21.88,40.4-43.52,60.32-64.66,39.85-42.28,78.55-82.53,113.57-118.57C540.51,318,595.79,262.76,616,241.87Z" transform="translate(-111.18 -221.78)"/></g><polygon class="cls-4" points="674.78 436.27 5.05 436.27 111.15 635.88 727.83 635.88 905.2 436.27 674.78 436.27"/><g class="cls-2"><path class="cls-5" d="M786,653.81c19.52,0.62,55.08,1.06,96.78,1.39l65.92,0.44,72.28,0.35-41.47,46.21L948,737.13c-21.7,24.17-38.29,42.57-50.77,56.31C886.69,805,910.91,778.09,948,737.13l58.89-65.67L930,754.67l-43.74,49-47.61,53.31-108.26-.24L622,856.3c-35-.19-111.52-0.24-145.49-0.62l361.86,0.49L880,809.38l-7.72,8.48-34.08,38.06L667,855.29l-38.66-.14L667,855.29l101.5-.2,69.24,0.39H838l8.26-9.15,8.73-9.58,17.29-18.89L894.61,793l6.79-7.76-0.31.32c-3.27,3.29-11.29,11.9-22.54,24.14l-41,44.85-74.91-.76-77.86-.6c-49.42-.33-90.88-0.51-106.4-0.41-37.21.19-71.14,1.45-112.55,1.6-13.84,0-25.51-.29-36.13,0-1,.19-6.35.34-11.68,0.48-27.57.1-55.19-.63-76.41,0-14.87.24-56.32-2.9-59.5-2.32-11.63,2.13-3.17.58-38.23,0.39-1.75,0-5.11.12-9.05,0.28l-6.22.24-1.6.05-0.49,0-0.34,0-1.39.08-0.56-1-0.63-1.18c-13-25.56-17.61-32.72-33.27-61.66C166.84,746.89,163,736.83,141.41,699l-9.33-16.89L124.86,669l-4.9-8.76,21.48-.27c53.1,0.19,86-.87,127.44.62,47.77-1.3,111.5.24,162.45,0s72.24,0.82,116.85,1.74c12.74,0.14,22.29,0,29.72.34s25.48-.53,38.22-0.39l-3.17.58,17,0.19c4.26,0,3.18.24,2.12,0.44-2.12.39-4.24,0.77,3.21,1.06q26.63,0.49,54.5.76l54.34-1a26.44,26.44,0,0,1,4.75-.75l15.92-.43c3.18-.58,2.11-1.21,4.25-1.6,0-1.64,22.25-3.23,16.92-4.73-2.13-.44-32.92-0.58-46.73-1.35-3.2-.24,4.24-0.77,7.41-1.35-18.05,0-19.11-.63-11.69-1.16l-8.49-.1,4.24-.77C685,651.41,634,650,589.44,650.74c-9.56.1-25.48,0.53-36.09,0.82-5.29.14-17-.19-21.23-0.24-7.44.53-6.37,1.16-9.54,1.74-32.94-.58-104.09-1.59-101.95.49-26.53-.1-31.85.87-59.45,1l-128.7.36c-25,.14-49.06.1-73.34,0.1l-26.24,0H111.18l57.09,107.71,52,98.42,62.25,0.1,61,0c41.15-.07,83.6-0.26,128.87-0.67,61.33-.55,123.72-0.86,185.42-1l91.82-.09,90.33,0.13L935,753.43l88.77-98.69-212.08-1.66Z" transform="translate(-111.18 -221.78)"/></g><polygon class="cls-6" points="531.11 90.48 531.11 412.38 701.95 412.38 531.11 90.48"/><g class="cls-2"><path class="cls-7" d="M657.81,321.07c11.31,22.2,21.8,42.05,32.83,62.29,16.94,31.5,30.67,60.74,47.9,94.22,8.46,16.62,16.46,31.9,24.91,48,8.15,16.39,16.8,33.54,25.83,51.18l13.84,26.8,7.12,13.61,11.2,21.18L822,639.5c-8.22-.14-25.82-0.41-24.1.86l-30.3-.65-29.67-.53c-19.69-.27-39.22-0.35-58.71,0-6.06.05-12.21-.07-18.39-0.24l-9.44-.27L638,638.43l0.1-9.38q0-3.91,0-7.78c-0.46-26.64.93-52.84,0.77-78.91-0.2-3.62-.91-11.45-0.82-14.49,1.37-35.9-.77-69.1-1.64-103-0.23-13.32-.55-23.62-0.49-36.36-0.59-1.16-.5-4.21-0.71-7.83,0-9.69,1.46-63.5,2.22-68.43,0.19-1.23.37,25.27,0.58,51.83l0.35,36.44c0.13,9.86.28,16.29,0.45,15.82,0.38-2.47-.08-70.5.1-76.59,6.83,254.37,4.83,132.49,2.36,55,0.12-12.09-.9-29.27-1-52.71C640.84,356,643,384.31,643.08,391c1,30.84,1.8,26.08,1.7,61.28-0.08,28.87,1.69,78.45,2.11,103.1-1-12.82-3.34-42.77-3.09-61.63-1.21,41,2.81,46.55,2.49,89.32,0,4,.15,8.6.35,13.59l-0.44,14.9q0,5.81,0,11.46l0.06,7.19,34.8-.39c12.85-.12,25.77-0.17,39.28,0-3,0-4.86-.64-7.89-0.73-12.21-.49-23.67-0.53-35.11-0.44l-17.25.21-8.46.11-4.18.08,0-3.79,0-7.7c0.18-6.05-.82-14.48-0.82-20.88-0.06-13,.6-24.57,1-36.73,0.4,11.4.56,23.76,0.64,36.38l0.07,19,0,9.33,0,3.44,1.69,0a14,14,0,0,0,1.55-.17l0.19,0,0.09,0,0.26,0,1.08-.07,2.15-.16,7.63-.66-13.4-.08c0-2.73,0-5.49,0-8.26-0.31-42.44-3.3-97.87-1.52-128.47l-0.2-3.64a17.05,17.05,0,0,0,.14-1.79c0-5.94.06-13.05,0.48-19.48l-0.13,16.41c2.13,42.76,1,91.72,1.81,138.14,0,1,0,2.08.06,3.21v1.93c0,0.42-.09.91-0.16,1.48l1.11,0.18,0.64,0.09,2.81,0.08c4,0.09,7.76.13,10.89,0,30.28-.67,61.87-0.36,92.28.53l27.69,0.67,6.91,0.17,3.46,0.09,0.86,0h0.6l0.67,0,5.93,0.34-1.43-3.15-0.78-1.7-0.41-.88-0.22-.47-0.48-1L793,606.17l-15.18-30.53-30.15-60.91q-30-60.8-59.18-121L685,387.14l1.14,3-2.94-6.37c-6.48-12.15-12.65-24.2-18.26-36.39-2.15-5.07,4.57,8.56,7,12L669.19,354l1.06,0.74a23.69,23.69,0,0,1-2.12-4.95l42.27,79.63c-0.91-3.43-5.23-11.27-7.11-15.08-4.85-8.76-9.68-17.5-13.72-25.69-12.05-22.37-23.12-46.28-34.25-68.13-1.91-4.12-3.79-8.21-5.55-12.23C647.61,303.22,653.78,312.9,657.81,321.07ZM787.37,631.21l6.22,0.32,3.09,0.17,2.47,0.18,10.71,0.76,0.77,0-3-5.94c-0.68-1.39-1.43-2.86-2.24-4.37L804.15,620l-1.48-2.66-21-42.77c3.2,7.29,6.51,14.71,10.16,22.54,1.82,3.91,3.73,7.93,5.75,12.09l3.12,6.34,3.19,6.34-4.32-8.31-4.32-8.42Q791,596.77,787,588.58c-5.41-10.92-10.59-21.63-15.66-32.25-10.15-21.25-19.88-42.15-30.23-63.67q-9.77-19.34-20.06-39.2c-4.9-9.33-9.81-18.4-14.7-27.34,17.43,35,34.57,70,51.69,104.94l25.7,52.45,12.91,26.25,6.25,12.7,3.6,7.68-5.64-.26-2.63-.13-0.64,0-0.84,0-2.35-.06-18.81-.48-37.76-.84q-37.86-.75-76.2-1.08C704,628.71,744.86,629.66,787.37,631.21Zm-15.46.82q-25.44-.24-50.28-0.18l-40.51-.19-19.87,0-9.56.06-7.09.1-0.2-10.05-0.3-11.56c-0.23-7.4-.54-14.17-0.94-20.1l0.71,42.44,17.86-.26,19.72-.22q19.85-.19,40.18-0.24c-40.45-.27-11.23.09,43.06,0.25C765.94,632,768.62,632,771.91,632Z" transform="translate(-111.18 -221.78)"/><path class="cls-7" d="M715.5,451.18l-23.88-51.1c2.53,6.7,4.73,12.63,8,20.35,9.17,20.69,21,43.27,31.24,64.7q17.77,37.28,36.78,75.45,9.49,19.07,19.24,38.33l9.81,19.3,2.47,4.84,0.21,0.41,0.07,0.16,0.14,0.31,0.28,0.61,1,2.26-2.52-.13-1.16-.06-5-.06-21-.2c-3.59-.11-11.52-0.23-17.49,0l29.9,0.59,7.41,0.15,3.7,0.07,1.85,0h0.68l0.26,0,4.65,0.3-1.65-3.7-0.23-.51-0.12-.26-0.26-.53-1.47-2.93-2.94-5.85-11.7-23.33-23.09-46.39C745.42,513.2,730.39,482.39,715.5,451.18Z" transform="translate(-111.18 -221.78)"/><path class="cls-7" d="M651.87,624.56h0s0,0,0-.06l0-1.25-0.08-5-0.14-9.93c-0.08-6.59-.12-13.11-0.09-19.48-0.33,5.79-.53,12.64-0.66,19.63L650.67,619l0,5.11v1.09l0,0.67,0.81,0,0.39,0h2.59l12.11-.05,24.08,0c-7.89-.25-15.83-0.47-23.87-0.65l-12.13-.24-2.72,0,0,0a0.08,0.08,0,0,1,0-.07Z" transform="translate(-111.18 -221.78)"/><path class="cls-7" d="M753.72,626.37l-11-.22c-17-.34-34.43-0.47-52.08-0.48l55.82,1.84C746.39,626.86,749.55,626.53,753.72,626.37Z" transform="translate(-111.18 -221.78)"/></g><polygon class="cls-8" points="531.11 224.77 531.11 331.05 630.87 277.91 531.11 224.77"/><polygon class="cls-9" points="380.46 142.43 380.46 412.14 509.57 334.5 509.57 334.5 509.57 220.07 380.46 142.43"/><polygon class="cls-10" points="715.06 436.27 715.06 635.88 79.43 436.27 715.06 436.27"/></svg>