<svg id="Layer_1" data-name="Layer 1" xmlns="http://www.w3.org/2000/svg" viewBox="0 0 908.69 681.79"><defs><style>.cls-1{fill:#512842;stroke:#512842;}.cls-1,.cls-12{stroke-miterlimit:10;}.cls-2{fill:#322768;}.cls-3{opacity:0.8;}.cls-4{fill:#98afb1;}.cls-5{fill:#614696;}.cls-6{opacity:0.21;}.cls-12,.cls-7{fill:#b2a1be;}.cls-8{fill:#847ba5;}.cls-9{fill:#732872;opacity:0.3;}.cls-10{fill:#3d2334;}.cls-11{fill:#947a87;}.cls-12{stroke:#2e2c72;opacity:0.15;}</style></defs><title>Boat 2</title><polygon class="cls-1" points="908.18 590.09 908.18 513.72 844.68 551.9 908.18 590.09"/><polygon class="cls-2" points="442.48 2.05 811.6 426.74 442.48 426.74 442.48 2.05"/><g class="cls-3"><path class="cls-4" d="M517.82,213.73c1.54,57.8,2.24,116.53,2.42,176.08q0.13,44.66-.09,89.93l-0.27,45.4-0.38,43.36a0.25,0.25,0,0,1,.28.17,8.68,8.68,0,0,1,.48,3.24c0.51,0,1,0,1.46.06l2,0.15,1,0.08,0.52,0,0.26,0,0.59,0,10.2,0.31,20.35,0.62q37.81,0.38,75.16.52-29.89-.21-59.57-0.64c-5.92,0-10.59-.47-9.93-1s6-.84,12.15-0.79c53.64,0.44,113.59.12,161,2.33q37-.18,73.39-0.59l36.28-.46,4.51-.07,2,0,1,0,3.77-.14,6.93-.3c-2.64-2.81-5.11-5.4-7.35-7.72l-0.83-.86L853,561.07l-4.39-4.85-8.77-9.67-34.92-38.29q-34.79-38-69-74.66a39.57,39.57,0,0,1-3.85-4.57c-0.87-1.24-.42-1,1,0.37q34.18,35.76,70.3,74.56,18,19.36,36.42,39.36l17.85,19.43c3.38,3.54,7.07,7.45,11,11.7l-12,.45-3.25.11-1.66.05-2.56.05-10.76.2L795,576q-43.68.58-88.27,0.78l-24.94.07C705.67,577.42,730,578,755,578.42c2.58-.3,6.76-0.52,11.66-0.56l35.39-.45a1.23,1.23,0,0,1-.81-0.31c0.05-.42,4.44-0.75,9.72-0.75l61.47-.15L863.53,566c-0.35-.38-0.66-0.74-1-1.11l-72-81L716.9,400.78q-73.67-83.25-147.43-167.25a51.05,51.05,0,0,1-4.39-5.13c-1-1.43-.66-1.37.79,0.09,0.07-.16-0.11-0.73.36-0.23,37.47,40.33,73.28,78.68,112.64,123.1l40.5,45.75C705.91,381,693.21,365.41,682,351.17c-34.95-39.67-70.59-79.64-103.42-118.94l1.19,1.77c-3-3.43-5.58-6.82-5.37-7.17,0-.6,2.63,2,5.7,5.47q75.82,83.51,152.07,170.07l76.41,86.76,84.64,96.54L817,586l-64.23.38c-39.46.26-78.56,0.41-117.58,0.45l-58.51,0-62.15-.2c-3.13,0-6.15,0-8.88-.08,0.11-6.52.33-12.11,0.62-15.92,0.07-1,.15-1.8.23-2.53l0.12-1,0.06-.43,0.06-.28c0.17-.7.35-1.06,0.54-1a1.87,1.87,0,0,1,.53,1.23c0.17,0.93.32,2.31,0.46,3.94,0.28,3.29.49,7.7,0.6,12.78,2.68-.06,5.53-0.09,8.47-0.09l59.16,0L634,583l115.38-.59L851,581.82c-26.35-.15-52.71-0.47-78.9-0.92-40.12.32-80.8,0.41-122.26,0.17l-137.68-1,0.16-38q0-19.1,0-38.36C512.22,478,512,452,511.55,425.33c-1.63-97.9-6.57-169.93-8.94-260a61.68,61.68,0,0,1,.32-9.92c0.3-1.67.66,0.08,0.79,4,3.17,87.11,7.07,166.51,9.46,261.3,0.68,26.92,1.08,53.54,1.31,80l0.2,39.69,0,37,66.4,0.39,70,0.57,20.48,0.14-66.33-2-46.66-.33-23.27-.2-19-.2,0.34-36.13,0.29-40.5q0.25-40.59.22-81.71c-0.09-67.14-1.59-131.77-1.74-198.36-0.12-8.4.31-16.36,1-17.93S517.7,205.3,517.82,213.73ZM793.26,479q15,16.24,29.79,32.72L707.92,380.64C735.44,413.28,764.89,447,793.26,479Z" transform="translate(-69.54 -153.41)"/><path class="cls-4" d="M753.67,421.33C774.73,446.27,797,472,818,494.21c1,1.05,1.67,1.63,1.29,1a25.34,25.34,0,0,0-2.63-3.22c-20.06-21.23-41.78-46.33-61.92-70.22a14,14,0,0,0-2.52-2.56C751.88,419,752.66,420.13,753.67,421.33Z" transform="translate(-69.54 -153.41)"/><path class="cls-4" d="M833,509.89q14.16,15.25,28.43,30.88l7.14,7.84,1.93,2.13,3.25,3.65,6.55,7.36L907.08,592l-53,.43-29.78.32q-28.65.26-57.7,0.32c-38.72.09-77.9-.06-117.3-0.36l-69.1-.6L546,591.77l-17-.14-28.36-.13,0.27-72.55c0-20.49,0-41.11-.17-62-0.22-29-.53-57.76-1.55-84.15-0.06-2.26-.27-3.53-0.45-2.7a34.87,34.87,0,0,0-.22,5.91c0.87,33.34,1.25,67.15,1.36,101.23q0.08,25.56,0,51.31l-0.29,64,29.55,0.13,17.12,0.14,34.25,0.28,68.37,0.41c39.06,0.12,78.23.18,117.08,0.05q29.14-.1,58-0.35l29.84-.32,54.44-.42L880,560.67l-6.89-7.75-3-3.39-1.84-2-7.37-8.08q-14.71-16.11-29.27-31.77c-0.93-1-1.52-1.44-1.29-1A32.78,32.78,0,0,0,833,509.89Z" transform="translate(-69.54 -153.41)"/><path class="cls-4" d="M501.23,545.44l0.2,45.3,48.56-.15H588c25.42,0.06,51,.26,76.84.7,34.31,0.59,67.61.75,103,.06l57.22-1.19,13.91-.25,15-.21c15.86-.12,31.58-0.2,47.62-0.23l-24.8-28.6a48,48,0,0,0-4.07-4.37c-0.19,0,.89,1.41,2.56,3.37l25,29-26,0-24.69.11-31.25.37-63.2.91c-41.23.46-81.79,0.29-122.16,0.06l-60.47-.32L542.32,590l-40.22.07L502,562.7l-0.19-17.49a10.42,10.42,0,0,0-.28-3.28A12.67,12.67,0,0,0,501.23,545.44Z" transform="translate(-69.54 -153.41)"/><path class="cls-4" d="M744.95,570.92c22.36,0.18,45.31.28,68.23,0.25,11.46,0,22.9-.07,34.26-0.17l4.11,0,1.35,0,2.59-.1c1.68-.07,3.25-0.15,4.65-0.25-1.47-1.52-2.86-2.93-4.13-4.17l-1.81-1.72-0.21-.2-0.7-.76-1.56-1.7-3.12-3.38c-8.29-9-16.41-17.62-24.29-25.85-1.16-1.18-1.44-1.24-.82-0.33a36.64,36.64,0,0,0,3.16,3.76c7.47,7.82,15.13,16,22.92,24.5l2.93,3.19,0.73,0.8,0.18,0.2,0,0,0.08,0.07,0.32,0.29,1.4,1.31c1,0.94,2,2,3.15,3.16-1.12.08-2.37,0.14-3.71,0.2l-2.07.07-1.07,0-4,0-34.06.08L745.83,570c-3.29,0-6.12.17-6.48,0.43C739.21,570.66,741.51,570.89,744.95,570.92Z" transform="translate(-69.54 -153.41)"/><path class="cls-4" d="M740.83,411l65.91,75.62L839.56,524,875,563.87l19.2,22.24L844.41,586q-18.35,0-36.67.16c-4.47,0-8.1.29-8.1,0.65s3.63,0.64,8.11.64l49.08,0.14c-0.69.11-1,.23-0.72,0.35l-84.51.43-82.86.28c-3.07,0-5.38.19-5.35,0.42s2.45,0.43,5.5.43q43,0,86-.21l91.41-.62c3.5,0.09,7.57.13,11.74,0.09l21.84-.12-33.77-38.35-21.46-24.14-43.29-48.74c-45.92-51.84-88.81-102.83-133.7-154.25-17.7-20.32-35.73-40-53.74-60.57-15.09-17.27-30.29-35.32-44.55-50.67-19.69-21.17-37.58-39.69-55.17-57.69-1.07-1.1-1.28-1.11-.59-0.16a28.7,28.7,0,0,0,2.78,3.25c17.52,17.95,36.51,38.16,54.24,56.49,32.72,37.52,65,74.32,97.61,110.64C692.82,353.64,715.13,381.56,740.83,411Z" transform="translate(-69.54 -153.41)"/></g><polygon class="cls-5" points="408.45 173.11 158.4 426.74 408.45 426.74 408.45 173.11"/><g class="cls-6"><polygon class="cls-7" points="283.43 299.02 283.43 426.74 408.45 426.74 408.45 173.11 283.43 299.02"/><g class="cls-3"><path class="cls-8" d="M369.54,427.5q24.09-27,49.93-53.52,12.89-13.3,26.12-26.56l19.23-19.23,21.15-21L485.48,358c0.09,0,.19.12,0.28,0.46s0.1,0.48.14,0.77l0.12,0.68c0.07,0.46.13,1,.17,1.57a28.25,28.25,0,0,1,0,3.66l-1.24,20.56q-0.38,19.06-.52,37.89c0.14-10,.32-20.06.64-30,0-3,.47-5.34,1-5s0.84,3,.79,6.12c-0.44,27-.12,57.26-2.33,81.17q0.26,26.66,1,52.76,0.36,13,.82,25.94l0.49,13.34,0.54,21.62-15.51.43-7.69.22-4.6.23-18.31,1q-18.22,1-36.09,2.28a10.11,10.11,0,0,1-3-.09c-0.76-.16-0.54-0.36.46-0.48q17.95-1.69,36.85-3.1l19.09-1.34,4.84-.31,1.26-.08,1.93-.08,3.83-.15,14.9-.58-0.77-21.6-0.69-14.51q-0.65-14.6-1.14-29.5c-0.65-19.86-1.07-40.08-1.25-60.5l-0.07-12.57c-0.61,12.06-1.16,24.31-1.61,36.94a30.55,30.55,0,0,1,.56,5.88l0.45,17.84A0.56,0.56,0,0,1,481,509c0.42,0,.75,2.24.75,4.9l0.18,45c0,0.36,0,.7,0,1,0.16,5.8.31,15.73,0.46,24.62l-20,.35-15.6.34-31.23.64-31.28.58-15.66.27-22.53.25-1-85.87a13,13,0,0,1,0-3.4c0.16-.88.4-0.74,0.54,0.29,0.16,0,.4-0.31.42,0,0.89,13.55,1.8,26.79,2.55,40.29,0.38,6.75.72,13.56,1,20.5l0.2,5.23,0.18,5.88,0.28,12.82,2.41,0,33-.56c-5.29-.21-10.47-0.48-15.46-0.8l-7.52-.53c-2.47-.19-4.77-0.4-6.89-0.63l-3,0-0.29-19.4-0.21-19.26c-0.07-12.8,0-25.5.5-37.93l-0.26,1.07c0-2.3.27-4.44,0.65-4.5,0.37-.24.68,1.63,0.72,4Q354.77,523,355.37,542l1,34.68,12.07-.33,15.55-.29,31.2-.48,57.53-.68-1-90.38c-0.51-39.79-.6-78.83-0.22-118.31,0-1.47.05-2.87,0.14-4.14,0-.64.1-1.24,0.16-1.8l0.1-.82a1.5,1.5,0,0,1,.05-0.28l0.06-.21c0.31-1.08.74-1.93,1.2-2s0.89,0.66,1.19,2.12l0.06,0.29,0.05,0.39,0.1,0.83c0.06,0.58.11,1.19,0.15,1.83,0.08,1.29.13,2.7,0.13,4.18-0.05,38.85.39,77.21,0.82,116.21L476.32,534c0.15-13.28.47-26.57,0.92-39.77-0.32-20.22-.41-40.73-0.17-61.63l0.81-53.24,0.33-26.44c0.07-9,.1-18.11.07-27.1-4.91,5-9.86,10.07-14.74,15.15S454,351,449.15,356.23c-33.62,36.17-55.7,65.41-86,99.29a15.84,15.84,0,0,1-3.75,3.32c-0.8.39-.44-0.5,0.86-2,28.69-33.4,54.12-64.54,86.1-100.13l7.41-8.16,8.6-9.21c5.87-6.23,12-12.59,18.12-18.93,0.13,10.19.17,20.78,0.16,31.35l-0.06,14.49-0.12,13.27-0.81,53.71-0.14,10.32q0.92-16.89,2-33.44l0.64-41.81,0.36-24.85,0.31-28.7L461.2,336.24l-18.78,18.84c-23.78,24.08-45.68,48.25-69.22,72.18-2.9,3.09-6,5.63-7.07,5.72S366.64,430.6,369.54,427.5Zm71.82,152.64q11.12-.63,22.3-1l-88,.88C397.23,580.65,419.8,580.56,441.36,580.14Z" transform="translate(-69.54 -153.41)"/><path class="cls-8" d="M406.32,572.17c16.45,0.47,33.64.52,49-.72,0.73-.07,1.17-0.2.8-0.33A6.51,6.51,0,0,0,454,571c-14.71,1.21-31.44,1.14-47.19.67a3.7,3.7,0,0,0-1.81.22C404.85,572,405.53,572.15,406.32,572.17Z" transform="translate(-69.54 -153.41)"/><path class="cls-8" d="M465,570.42c1.06-.25,1.9-0.49,2.59-0.71-0.16-.84-0.32-1.56-0.47-2.19l-0.21-.87-0.2-4.34q-0.39-9-.67-18.06-0.57-18.17-.78-36.71c-0.29-24.71-.15-49.85.23-75.18l0.93-53.16,0.21-13.15,0.09-6.57,0.08-1.26c0.1-1.53.15-3.26,0.15-4.86-1.07,1.08-2.22,2.31-3.19,3.47l-0.59.72-0.14.17,0,0,0,0-0.11.12-0.47.49-1.88,2-7.39,7.85c-4.85,5.21-9.51,10.38-13.83,15.47-0.76.85-1.06,1.45-.64,1.28a9,9,0,0,0,2.26-2q10.9-12.17,22.38-24.15l0.36-.37,0-.05,0.05-.08,0.11-.16,0.25-.34c0.18-.23.38-0.47,0.58-0.7,0.41-.47.85-0.93,1.25-1.31a28.86,28.86,0,0,1-.21,2.89l0,0.31,0,0.15v0.11a0.57,0.57,0,0,0,0,.16l-0.1,6.61L465.3,379.3c-0.29,17.64-.59,35.29-0.7,52.85-0.15,25.08-.21,50.24.1,75q0.23,18.61.78,36.9,0.28,9.13.66,18.15l0.2,4.39,0.21,0.69c0.15,0.51.3,1.11,0.46,1.83a20.79,20.79,0,0,1-2.43.79l-0.11.05a2.05,2.05,0,0,0-.28.08c-0.15.06-.17,0.13,0,0.19l0.19,0a0.69,0.69,0,0,1,.16,0l0.15,0A0.73,0.73,0,0,0,465,570.42Z" transform="translate(-69.54 -153.41)"/><path class="cls-8" d="M467.21,356.56l0.14,2.37,0,0.31v1.14l0,2.94,0.06,5.88q0.1,11.75.12,23.53c0,15.71-.18,31.5-0.72,47.51-0.59,17.3-.75,34.08-0.06,51.92,0.93,23.89,2.15,44.69,1.83,68.4a4.27,4.27,0,0,0,.2,1.76,1.84,1.84,0,0,0,.28-1.31c0.55-25.68-.7-49.66-1.28-75.25-0.52-23.77-.23-47.09,0-70.34,0.13-11.62.26-23.22,0.28-34.85q0-8.72-.07-17.46L468,359.17,467.94,358c-0.05-.73-0.12-1.43-0.19-2.06,0-.24-0.15-0.23-0.28-0.08A1.16,1.16,0,0,0,467.21,356.56Z" transform="translate(-69.54 -153.41)"/><path class="cls-8" d="M487.21,480.59c-0.27,16.68-.37,34-0.09,51,0.14,8.47.37,16.85,0.73,25l0.29,6.06,0.16,3,0,0.74,0,1.1,0.09,2.63c0.24,7,.52,14.14.83,21.39l-10.53.52c-1.5.11-1.65,0.28-.53,0.4a35,35,0,0,0,4.77.08l7-.33c-0.31-7.42-.58-14.71-0.81-21.92-0.11-4.32-.22-5.38-0.31-7.57l-0.26-6c-0.31-8.12-.48-16.47-0.57-24.9-0.17-16.88,0-34.12.15-50.66,0-1.66-.17-3.08-0.43-3.27S487.25,478.85,487.21,480.59Z" transform="translate(-69.54 -153.41)"/><path class="cls-8" d="M398.13,575.06l40.1-.1,19.95-.1,5,0,3.51-.06,5.79-.15-0.52-15.06c0.17-15.79.29-31.57,0-47.31,0-2.26-.29-4.08-0.64-4.08s-0.64,1.83-.64,4.09L470.52,536c-0.11-.23-0.23-0.33-0.35-0.26q-0.52-41.7-.71-83.51c0-1.55-.19-2.71-0.42-2.7s-0.43,1.24-.43,2.77c0,28.92.3,57.78,0.83,86.52a33.4,33.4,0,0,0-.09,3.59l0.36,18.86,0.1,4.7v0.84l0,0.47,0.05,1,0.21,4-3.5.19-1.85.09-3.93.09-17.42.36c-15.34.29-30.43,0.24-45.45,0.11l-37.59-.39v-5.61l0-4.49-0.09-5.08L360,547.37c-0.19-6.78-.39-13.59-0.44-20.48-0.06-11.56.31-23.45-.39-34-1-14.56-2.33-27.53-3.8-40.19-0.08-.77-0.24-0.85-0.34-0.25a7.33,7.33,0,0,0,0,2.16c1.45,12.62,2.52,26.59,3.88,39.43,0,12.55.11,25,.27,37.37l0.32,18.53,0.23,9.24,0.13,4.62,0.07,2.31,0,0.56,0,0.28,0,0.55c-0.11,1.93-.27,3.94-0.43,6.1l5.66,0.52,0.77,0.07c0.29,0,.41,0,1,0.07l2.79,0.13,5.59,0.24C382.77,574.9,390.31,575.1,398.13,575.06Z" transform="translate(-69.54 -153.41)"/></g></g><polygon class="cls-9" points="442.5 134.14 442.5 426.74 447.3 426.74 657.41 249.33 442.5 134.14"/><polygon class="cls-10" points="869.49 516.55 869.49 519.33 894.96 462.6 14.51 462.6 95.47 672.96 800.5 672.96 844.4 575.18 815.51 554.74 869.49 516.55"/><g class="cls-3"><path class="cls-11" d="M907.52,716.94l13.92,9.6L898.26,780.1l-10.7,24.62-12.74,29-57.47.42-53,.28q-53.14.21-106.87,0.17-107.44-.05-217-0.78a1.26,1.26,0,0,1-.92.28,187,187,0,0,1-19.36.42l-62.67-1.24q-58.1-.38-115.5-0.52,45.92,0.21,91.54.64c9.09,0,16.27.47,15.26,1s-9.17.84-18.66,0.79l-82.51-.3L206,834.71l-46.47-.32-5.75-15.28-3.71-10-7.22-19.68c-4.71-12.94-9.21-25.48-13.42-37.51l-26.13-67L73.39,608.69l36.19-.22,25.44-.25,50.61-.56,100.08-1.38q99.31-1.55,195.45-3.75c3.4-.11,7.44-0.08,9.18.09,2.32,0.16,1.64.36-1.39,0.48-62.5,1.93-128,3.59-195.68,5q-50.79,1-103.18,1.85l-52.7.76L110.8,611l-33.58.31,36.61,92.83,34.34,87.93,14.56,37.63h0L123,722.15c-1.71-3.59-4.22-9.5-7-16.52L96.14,655a2.47,2.47,0,0,1,.16,1.28c-0.42.08-3.15-6.09-6.07-13.67L78.47,612.18,194.25,612c1.11,0,2.15,0,3.2,0q340.37-2.62,683.54-3.88c3.17-.14,8.07-0.11,10.38,0,2.69,0.16,2.26.4-.9,0.54,0.11,0.16,1,.4-0.09.42-84.55,1.83-165.12,3.69-256.32,4.26l-93.89.56c32.25,0.43,63.11,1.06,90.9,2,81.24-.35,163.54-1,242.21,0l-3.25-.26c7,0,13.53.27,13.73,0.65,0.73,0.37-5,.68-12.09.72-128.55,1.81-258.94,2.78-390.45,3.41L92.45,621.78,131.7,722.53l37.81,97.28,121.45-.1,125.82,0.23c17.89,0,32.44.79,32.09,1.71s-15.25,1.68-33.28,1.68l-125.33.11-123.48.34-36.94-95-43.19-111,31.74-.12-32.17-.17,14.54,38.68L116,696.84l24.94,64.09,24.83,64.41,48.64,0.12C366.44,826,508.7,827.62,664,825.9c38-.41,73.38-1,107.35-1.77l50-1.18,24.45-.63L858,822l3-.08,2.11-.08,3.9-.16c1.62-4.19,5.75-14,9-21.87l10.26-24.63,10.32-24.73,5.2-12.44,0.65-1.56,0.3-.73,0.14-.36,0.55-1.43,1-2.75-3.3-2.07-0.79-.5-1.76-1.18-4.3-2.91-23.83-16.37,16.3-11.86,8.37-6.08,5.26-3.88,20.72-15.25a145.35,145.35,0,0,1,12.62-8.54c2.27-1.24.28,0.62-4.57,4.2l-24.19,18-6,4.47-3.22,2.39L891.19,695l-17.95,13.16,22.08,15.07,4.2,2.83,1.8,1.2,1,0.65,4.22,2.71-1.36,3.46c-0.5,1.26-.78,2-1.81,4.46l-5.16,12.34-10.31,24.68-10.34,24.72-5.19,12.4L868,823.25l-4.54.15-5.34.15-12,.3-24.06.59-48.89,1.12c-33,.72-66.9,1.39-102.19,2-154.46,2.53-302.62,1.32-458.59.53L181,827.92l101.93,2C414,830.4,543,831.61,676,831.49c32.82,0,65.26-.2,97.52-0.42l99.08-.75,22.6-51.21,23-51.67-3.67-2.59-4.9-3.45-4.31-3.09-1.79-1.3L902,715.91l-2.31-1.77c-2.84-2.23-4.59-3.8-4.75-4.33s1.22,0.05,3.27,1.18c1,0.57,2.23,1.28,3.54,2.1l2.05,1.31ZM370.64,616q-33.9.63-68,1l268.11-.88C505.19,615.51,436.37,615.6,370.64,616Z" transform="translate(-69.54 -153.41)"/><path class="cls-11" d="M477.48,624c-50.16-.47-102.54-0.52-149.34.72-2.23.07-3.58,0.2-2.43,0.33a59.71,59.71,0,0,0,6.38.12C376.94,624,428,624,476,624.49a32.82,32.82,0,0,0,5.52-.22C481.95,624.14,479.89,624,477.48,624Z" transform="translate(-69.54 -153.41)"/><path class="cls-11" d="M294.82,625.74q-51.35,1.1-104.11,1.78l-53,.6-26.74.23-6.71.05h-0.71l-0.26,0-0.95.09,0.46,1,0.1,0.22,0.05,0.1v0l0.1,0.26,0.32,0.81,2.53,6.48,10.13,26,20.29,52.39,20.31,52.82,10.16,26.55,5.08,13.31,1.27,3.33,0.51,1.34,0,0.09,0.13,0.39,0.35,0h3.41l12.53,0.05,25.1,0.12c135.88,0.66,264.65,1.94,400.25,1.28,44.52-.22,88.76-0.53,129.31-1.55,3.48-.06,5.43-0.27,4.15-0.45a82.11,82.11,0,0,0-9.09-.22c-170.33,2.88-348.65.46-524,.09l-41.54-.08-37.35-97L116.56,663.4,106.39,637.3l-2.54-6.51-0.32-.81-0.13-.32h0l0,0-0.06-.09L103,629l0.45-.09,0.14,0h1l6.84-.05,27.28-.23,54.09-.6q53.75-.7,105.93-1.82c2.09,0,3.21-.2,2.43-0.33C299.89,625.75,296.88,625.69,294.82,625.74Z" transform="translate(-69.54 -153.41)"/><path class="cls-11" d="M479.46,815.59c-95.77.37-190.64,0.73-288.25-.35l-13.14-.14-3.27,0h-0.95l-1-.06-0.41-1.23L169.88,807l-5.79-15.27-11.71-30.57c-7.89-20.43-16-41-24.36-62L110.37,655l-8.58-21.4L100.73,631l-0.14-.34-0.07-.16-0.15-.33-0.6-1.34L98.53,626l3.68-.16,1,0,0.49,0,1.59,0,7.07-.07,28.43-.22c19.07-.11,38.42-0.14,58.46,0a38.34,38.34,0,0,0,5.37-.2c0.09-.13-1.58-0.25-4-0.28-19.87-.14-39.41-0.16-58.78-0.11l-28.95.13-7.21,0-2.48,0-1.2,0-4.65.12,1.77,4.25,0.43,1,0.21,0.51,0.52,1.31,2.57,6.5,10.33,26.07,20.91,52.88,20.53,52.64,17.57,45.62,150.17,0.5c52.32,0.15,104.66.16,157.46-.3a24.27,24.27,0,0,0,5-.28A29.61,29.61,0,0,0,479.46,815.59Z" transform="translate(-69.54 -153.41)"/><path class="cls-11" d="M121.62,739.31L98.87,679.56,70.91,607l38.47-.1,25.15-.16c16.69-.13,33.2-0.3,49.42-0.53,32.45-.45,63.74-1.1,93-2,2.54-.11,2.9-0.28,1.21-0.4s-5.17-.17-7.55-0.08c-28.52.87-58.87,1.44-90.23,1.8-15.68.18-31.62,0.31-47.71,0.4l-24.24.1L69.54,606,97.7,679.34l22.54,59c1.81,4.72,3.53,8.71,4,9.14C124.54,747.62,123.48,744.25,121.62,739.31Z" transform="translate(-69.54 -153.41)"/><path class="cls-11" d="M502.45,621.1c-103,.18-206-0.12-306.27,1l-56.11-.16H92.67l8.55,21.85c2.47,6.42,4.74,11.51,5.07,11.38s-1.41-5.44-3.88-11.86l-7.61-19.9,9.47,0.05,20.21,0c-0.71.11-1,.23-0.79,0.35l-19.81.08-8.23.07,5.56,14.19,9.73,25,19.44,50.1,38.82,100.23c0.53,1.39.55,1.41,0.73,1.81s0.29,0.61.42,0.83c0.25,0.44.44,0.64,0.52,0.53a1.64,1.64,0,0,0-.05-1c-0.06-.25-0.13-0.54-0.23-0.84l-0.15-.47L169.92,813,131.18,712.74l-19.44-50-9.73-25-2.43-6.24-0.94-2.36-1.74-4.35,4.24-.06,2.16,0,5.31,0,24.49-.14c3.25,0.09,7,.13,10.95.09l220.33-1.5c106.41-.65,208.79.42,313.68,0.28,41.41,0,82.43-.72,124.43-0.83,35.24-.06,71.5.31,103.68-0.39l29.82-.73,7.24-.2,4.62-.2,9.48-.43-3.74,9.57-1,2.53L952,634.28l-0.74,1.81-2.94,7.21-11.53,28.42,4.74,1-0.08-2c-0.08-2.35-.24-2.58-0.34-0.77-0.05.61-.09,1.64-0.1,2.78l-3.76-.81c0.54-1.18,1.11-2.5,1.5-3.49l10.87-26.66,2.79-6.8,2.18-5.42,3.81-9.6-11.24.48-2.64.12-1.49.06-1.95.06-7.77.24-30.61,1C826.18,622,751,622.19,676,623,617.33,622.46,562.45,621,502.45,621.1Z" transform="translate(-69.54 -153.41)"/></g><polygon class="cls-12" points="283.43 468.55 408.45 468.55 283.43 567.78 283.43 468.55"/></svg>