<?xml version="1.0" encoding="UTF-8" standalone="no"?>
<!-- Created with Inkscape (http://www.inkscape.org/) -->

<svg
   xmlns:dc="http://purl.org/dc/elements/1.1/"
   xmlns:cc="http://creativecommons.org/ns#"
   xmlns:rdf="http://www.w3.org/1999/02/22-rdf-syntax-ns#"
   xmlns:svg="http://www.w3.org/2000/svg"
   xmlns="http://www.w3.org/2000/svg"
   xmlns:sodipodi="http://sodipodi.sourceforge.net/DTD/sodipodi-0.dtd"
   xmlns:inkscape="http://www.inkscape.org/namespaces/inkscape"
   id="svg2985"
   version="1.1"
   inkscape:version="0.48.0 r9654"
   width="102.5"
   height="29.530001"
   xml:space="preserve"
   sodipodi:docname="CaseStudy-Riverbed-PackardBell.pdf"><metadata
     id="metadata2991"><rdf:RDF><cc:Work
         rdf:about=""><dc:format>image/svg+xml</dc:format><dc:type
           rdf:resource="http://purl.org/dc/dcmitype/StillImage" /><dc:title></dc:title></cc:Work></rdf:RDF></metadata><defs
     id="defs2989"><clipPath
       clipPathUnits="userSpaceOnUse"
       id="clipPath2999"><path
         d="M 0,0 612,0 612,792 0,792 0,0 z"
         id="path3001"
         inkscape:connector-curvature="0" /></clipPath><clipPath
       clipPathUnits="userSpaceOnUse"
       id="clipPath3007"><path
         d="m -12,727 636,0 0,77.04 -636,0 0,-77.04 z"
         id="path3009"
         inkscape:connector-curvature="0" /></clipPath><clipPath
       clipPathUnits="userSpaceOnUse"
       id="clipPath3015"><path
         d="m -12,727 636,0 0,77.04 -636,0 0,-77.04 z"
         id="path3017"
         inkscape:connector-curvature="0" /></clipPath><clipPath
       clipPathUnits="userSpaceOnUse"
       id="clipPath3051"><path
         d="m -12,-12 636,0 0,42 -636,0 0,-42 z"
         id="path3053"
         inkscape:connector-curvature="0" /></clipPath><clipPath
       clipPathUnits="userSpaceOnUse"
       id="clipPath3059"><path
         d="m -12,-12 636,0 0,42 -636,0 0,-42 z"
         id="path3061"
         inkscape:connector-curvature="0" /></clipPath><clipPath
       clipPathUnits="userSpaceOnUse"
       id="clipPath3517"><path
         d="m 36,288.75 160,0 0,32.708 -160,0 0,-32.708 z"
         id="path3519"
         inkscape:connector-curvature="0" /></clipPath><clipPath
       clipPathUnits="userSpaceOnUse"
       id="clipPath3525"><path
         d="m 40.329,290.291 151.342,0 0,31.167 -151.342,0 0,-31.167 z"
         id="path3527"
         inkscape:connector-curvature="0" /></clipPath><clipPath
       clipPathUnits="userSpaceOnUse"
       id="clipPath3537"><path
         d="m 36,46 160,0 0,240 -160,0 0,-240 z"
         id="path3539"
         inkscape:connector-curvature="0" /></clipPath><clipPath
       clipPathUnits="userSpaceOnUse"
       id="clipPath3545"><path
         d="m 34.852,45.06 162.126,0 0,242.064 -162.126,0 0,-242.064 z"
         id="path3547"
         inkscape:connector-curvature="0" /></clipPath></defs><sodipodi:namedview
     pagecolor="#ffffff"
     bordercolor="#666666"
     borderopacity="1"
     objecttolerance="10"
     gridtolerance="10"
     guidetolerance="10"
     inkscape:pageopacity="0"
     inkscape:pageshadow="2"
     inkscape:window-width="1280"
     inkscape:window-height="975"
     id="namedview2987"
     showgrid="false"
     inkscape:zoom="5.896842"
     inkscape:cx="80.607125"
     inkscape:cy="57.000769"
     inkscape:window-x="0"
     inkscape:window-y="0"
     inkscape:window-maximized="1"
     inkscape:current-layer="g2993" /><g
     id="g2993"
     inkscape:groupmode="layer"
     inkscape:label="CaseStudy-Riverbed-PackardBell"
     transform="matrix(1.25,0,0,-1.25,0,29.53)"><g
       id="g4133"
       transform="translate(-503,-744.11)"><path
         inkscape:connector-curvature="0"
         id="path3025"
         style="fill:#ea6824;fill-opacity:1;fill-rule:nonzero;stroke:none"
         d="m 503,760.989 3.356,0 0,-1.776 c 1.382,1.216 2.499,1.974 4.442,1.974 l 0,-3.554 c -0.33,0.132 -0.659,0.198 -1.021,0.198 -1.415,0 -3.421,-0.889 -3.421,-3.62 l 0,-9.903 -3.356,0 0,16.681 z" /><path
         inkscape:connector-curvature="0"
         id="path3027"
         style="fill:#666666;fill-opacity:0.47843137;fill-rule:nonzero;stroke:none"
         d="m 512.145,766.055 c 0,0.923 0.756,1.678 1.679,1.678 0.922,0 1.679,-0.755 1.679,-1.678 0,-0.923 -0.757,-1.677 -1.679,-1.677 -0.923,0 -1.679,0.754 -1.679,1.677" /><path
         inkscape:connector-curvature="0"
         id="path3029"
         style="fill:#ea6824;fill-opacity:1;fill-rule:nonzero;stroke:none"
         d="m 512.145,760.989 3.358,0 0,-16.681 -3.358,0 0,16.681 z" /><path
         inkscape:connector-curvature="0"
         id="path3031"
         style="fill:#ea6824;fill-opacity:1;fill-rule:nonzero;stroke:none"
         d="m 524.154,744.308 -2.961,0 -4.342,16.681 3.553,0 2.237,-10.66 0.066,0 2.238,10.66 3.554,0 -4.345,-16.681 z" /><path
         inkscape:connector-curvature="0"
         id="path3033"
         style="fill:#ea6824;fill-opacity:1;fill-rule:nonzero;stroke:none"
         d="m 532.182,751.381 0,-2.27 c 0,-1.053 0.625,-1.645 1.645,-1.645 1.284,0 1.58,0.954 1.646,1.679 l 3.356,0 c 0,-1.383 -0.494,-2.666 -1.349,-3.555 -0.888,-0.921 -2.107,-1.48 -3.653,-1.48 -2.039,0 -3.586,0.955 -4.375,2.402 -0.46,0.855 -0.625,2.039 -0.625,3.388 l 0,5.496 c 0,1.349 0.165,2.533 0.625,3.389 0.789,1.447 2.336,2.402 4.375,2.402 3.094,0 5.002,-2.27 5.002,-5.2 l 0,-4.606 -6.647,0 z m 0,2.632 3.291,0 0,1.909 c 0,1.251 -0.626,1.909 -1.646,1.909 -1.02,0 -1.645,-0.658 -1.645,-1.909 l 0,-1.909 z" /><path
         inkscape:connector-curvature="0"
         id="path3035"
         style="fill:#ea6824;fill-opacity:1;fill-rule:nonzero;stroke:none"
         d="m 540.199,760.989 3.357,0 0,-1.776 c 1.382,1.216 2.5,1.974 4.441,1.974 l 0,-3.554 c -0.329,0.132 -0.658,0.198 -1.02,0.198 -1.414,0 -3.421,-0.889 -3.421,-3.62 l 0,-9.903 -3.357,0 0,16.681 z" /><path
         inkscape:connector-curvature="0"
         id="path3037"
         style="fill:#ea6824;fill-opacity:1;fill-rule:nonzero;stroke:none"
         d="m 549.346,767.733 3.357,0 0,-8.257 0.065,0 c 0.723,1.085 1.776,1.711 3.091,1.711 1.613,0 2.437,-0.626 2.996,-1.515 0.426,-0.69 0.525,-1.644 0.525,-4.047 l 0,-6.35 c 0,-1.842 -0.163,-2.863 -0.56,-3.585 -0.59,-1.086 -1.577,-1.58 -2.927,-1.58 -1.679,0 -2.336,0.757 -3.19,1.711 l 0,-1.513 -3.357,0 0,23.425 z m 6.679,-11.877 c 0,1.052 -0.362,1.975 -1.646,1.975 -0.954,0 -1.676,-0.756 -1.676,-1.81 l 0,-6.482 c 0,-1.218 0.657,-2.073 1.676,-2.073 1.153,0 1.646,0.921 1.646,2.271 l 0,6.119 z" /><path
         inkscape:connector-curvature="0"
         id="path3039"
         style="fill:#ea6824;fill-opacity:1;fill-rule:nonzero;stroke:none"
         d="m 564.095,751.381 0,-2.27 c 0,-1.053 0.625,-1.645 1.644,-1.645 1.285,0 1.582,0.954 1.647,1.679 l 3.356,0 c 0,-1.383 -0.493,-2.666 -1.35,-3.555 -0.887,-0.921 -2.104,-1.48 -3.653,-1.48 -2.039,0 -3.584,0.955 -4.374,2.402 -0.461,0.855 -0.625,2.039 -0.625,3.388 l 0,5.496 c 0,1.349 0.164,2.533 0.625,3.389 0.79,1.447 2.335,2.402 4.374,2.402 3.094,0 5.003,-2.27 5.003,-5.2 l 0,-4.606 -6.647,0 z m 0,2.632 3.291,0 0,1.909 c 0,1.251 -0.626,1.909 -1.647,1.909 -1.019,0 -1.644,-0.658 -1.644,-1.909 l 0,-1.909 z" /><path
         inkscape:connector-curvature="0"
         id="path3041"
         style="fill:#ea6824;fill-opacity:1;fill-rule:nonzero;stroke:none"
         d="m 578.787,745.821 c -0.856,-0.954 -1.514,-1.711 -3.194,-1.711 -1.348,0 -2.334,0.494 -2.926,1.58 -0.396,0.722 -0.559,1.743 -0.559,3.585 l 0,6.35 c 0,2.403 0.098,3.357 0.525,4.047 0.559,0.889 1.383,1.515 2.996,1.515 1.313,0 2.367,-0.626 3.09,-1.711 l 0.068,0 0,8.257 3.355,0 0,-23.425 -3.355,0 0,1.513 z m -3.323,3.916 c 0,-1.35 0.492,-2.271 1.643,-2.271 1.022,0 1.68,0.855 1.68,2.073 l 0,6.482 c 0,1.054 -0.726,1.81 -1.68,1.81 -1.281,0 -1.643,-0.923 -1.643,-1.975 l 0,-6.119 z" /><path
         inkscape:connector-curvature="0"
         id="path3043"
         style="fill:#ea6824;fill-opacity:1;fill-rule:nonzero;stroke:none"
         d="m 583.584,767.56 -0.209,0 0,0.171 0.599,0 0,-0.171 -0.209,0 0,-1.089 -0.181,0 0,1.089 z" /><path
         inkscape:connector-curvature="0"
         id="path3045"
         style="fill:#ea6824;fill-opacity:1;fill-rule:nonzero;stroke:none"
         d="m 584.187,767.731 0.172,0 0.232,-0.668 0.004,0 0.23,0.668 0.175,0 0,-1.26 -0.18,0 0,0.765 -0.004,0 -0.179,-0.541 -0.089,0 -0.178,0.541 -0.003,0 0,-0.765 -0.18,0 0,1.26 z" /></g><text
       transform="scale(1,-1)"
       id="text3443"
       x="36"
       y="-633.995"><tspan
         style="font-size:7px;font-variant:normal;font-weight:normal;font-stretch:normal;writing-mode:lr-tb;fill:#deddde;fill-opacity:1;fill-rule:nonzero;stroke:none;font-family:Wingdings;-inkscape-font-specification:Wingdings-Regular"
         x="36"
         y="-633.995"
         id="tspan3445"></tspan></text>
<text
       transform="scale(1,-1)"
       id="text3447"
       x="36"
       y="-598.69501"><tspan
         style="font-size:7px;font-variant:normal;font-weight:normal;font-stretch:normal;writing-mode:lr-tb;fill:#deddde;fill-opacity:1;fill-rule:nonzero;stroke:none;font-family:Wingdings;-inkscape-font-specification:Wingdings-Regular"
         x="36"
         y="-598.69501"
         id="tspan3449"></tspan></text>
<text
       transform="scale(1,-1)"
       id="text3451"
       x="36"
       y="-584.69501"><tspan
         style="font-size:7px;font-variant:normal;font-weight:normal;font-stretch:normal;writing-mode:lr-tb;fill:#deddde;fill-opacity:1;fill-rule:nonzero;stroke:none;font-family:Wingdings;-inkscape-font-specification:Wingdings-Regular"
         x="36"
         y="-584.69501"
         id="tspan3453"></tspan></text>
<text
       transform="scale(1,-1)"
       id="text3455"
       x="36"
       y="-550.69501"><tspan
         style="font-size:7px;font-variant:normal;font-weight:normal;font-stretch:normal;writing-mode:lr-tb;fill:#deddde;fill-opacity:1;fill-rule:nonzero;stroke:none;font-family:Wingdings;-inkscape-font-specification:Wingdings-Regular"
         x="36"
         y="-550.69501"
         id="tspan3457"></tspan></text>
<text
       transform="scale(1,-1)"
       id="text3459"
       x="36"
       y="-495.39499"><tspan
         style="font-size:7px;font-variant:normal;font-weight:normal;font-stretch:normal;writing-mode:lr-tb;fill:#deddde;fill-opacity:1;fill-rule:nonzero;stroke:none;font-family:Wingdings;-inkscape-font-specification:Wingdings-Regular"
         x="36"
         y="-495.39499"
         id="tspan3461"></tspan></text>
<text
       transform="scale(1,-1)"
       id="text3463"
       x="36"
       y="-450.095"><tspan
         style="font-size:7px;font-variant:normal;font-weight:normal;font-stretch:normal;writing-mode:lr-tb;fill:#deddde;fill-opacity:1;fill-rule:nonzero;stroke:none;font-family:Wingdings;-inkscape-font-specification:Wingdings-Regular"
         x="36"
         y="-450.095"
         id="tspan3465"></tspan></text>
<text
       transform="scale(1,-1)"
       id="text3467"
       x="36"
       y="-426.095"><tspan
         style="font-size:7px;font-variant:normal;font-weight:normal;font-stretch:normal;writing-mode:lr-tb;fill:#deddde;fill-opacity:1;fill-rule:nonzero;stroke:none;font-family:Wingdings;-inkscape-font-specification:Wingdings-Regular"
         x="36"
         y="-426.095"
         id="tspan3469"></tspan></text>
<text
       transform="scale(1,-1)"
       id="text3471"
       x="36"
       y="-412.095"><tspan
         style="font-size:7px;font-variant:normal;font-weight:normal;font-stretch:normal;writing-mode:lr-tb;fill:#deddde;fill-opacity:1;fill-rule:nonzero;stroke:none;font-family:Wingdings;-inkscape-font-specification:Wingdings-Regular"
         x="36"
         y="-412.095"
         id="tspan3473"></tspan></text>
<text
       transform="scale(1,-1)"
       id="text3475"
       x="36"
       y="-368.095"><tspan
         style="font-size:7px;font-variant:normal;font-weight:normal;font-stretch:normal;writing-mode:lr-tb;fill:#deddde;fill-opacity:1;fill-rule:nonzero;stroke:none;font-family:Wingdings;-inkscape-font-specification:Wingdings-Regular"
         x="36"
         y="-368.095"
         id="tspan3477"></tspan></text>
</g></svg>