<?xml version="1.0" encoding="UTF-8" standalone="no"?>
<svg
   xmlns:dc="http://purl.org/dc/elements/1.1/"
   xmlns:cc="http://creativecommons.org/ns#"
   xmlns:rdf="http://www.w3.org/1999/02/22-rdf-syntax-ns#"
   xmlns:svg="http://www.w3.org/2000/svg"
   xmlns="http://www.w3.org/2000/svg"
   viewBox="0 0 1056 816"
   height="816"
   width="1056"
   xml:space="preserve"
   id="svg2"
   version="1.1"><metadata
     id="metadata8"><rdf:RDF><cc:Work
         rdf:about=""><dc:format>image/svg+xml</dc:format><dc:type
           rdf:resource="http://purl.org/dc/dcmitype/StillImage" /></cc:Work></rdf:RDF></metadata><defs
     id="defs6"><clipPath
       id="clipPath18"
       clipPathUnits="userSpaceOnUse"><path
         id="path16"
         d="M 0,612 H 792 V 0 H 0 Z" /></clipPath></defs><g
     transform="matrix(1.3333333,0,0,-1.3333333,0,816)"
     id="g10"><g
       id="g12"><g
         clip-path="url(#clipPath18)"
         id="g14"><g
           transform="translate(580.6895,268.9668)"
           id="g20"><path
             id="path22"
             style="fill:#f47720;fill-opacity:1;fill-rule:nonzero;stroke:none"
             d="m 0,0 -0.38,0.646 -2.801,4.4 -2.8,3.6 -3.399,4.2 -3.4,3.599 -4,3.801 -3.8,3.199 -4.2,3 -4.201,2.601 -4.649,2.6 -3.95,2 -4,1.6 -3.601,1 -3.599,0.8 -0.703,0.117 -10.399,13.62 c 3.696,0.902 7.554,1.39 11.526,1.39 26.792,0 48.511,-21.728 48.511,-48.53 C 0.155,2.415 0.092,1.204 0,0 m -269.073,96.099 c 10.443,37.727 45.02,65.427 86.07,65.427 40.887,0 75.354,-27.477 85.948,-64.973 -10.591,22.929 -45.043,39.731 -85.909,39.731 -41.135,0 -75.766,-17.025 -86.109,-40.185 m -46.275,-11.922 c -9.161,-5.29 -18.754,-15.515 -23.172,-24.836 -1.642,5.747 -1.776,12.003 -0.075,18.187 4.945,17.968 23.517,28.525 41.484,23.581 6.258,-1.722 11.614,-5.102 15.733,-9.53 -9.573,1.884 -23.785,-1.522 -33.97,-7.402 m -16.032,-46.732 -4.4,-0.199 -4.4,-0.2 -4.801,-0.601 -4,-0.799 -5.199,-1.201 -3.6,-1.199 -3.8,-1.4 -3.8,-1.35 -4.8,-2.45 -3.6,-1.8 -4.6,-3 -4.2,-3.2 -4.401,-3.601 -3.799,-3.799 -3,-3.6 -3.201,-4.2 -2.399,-4.2 -1.203,-2.405 c 2.646,26.915 25.331,47.944 52.93,47.944 10.767,0 20.779,-3.21 29.153,-8.711 z M -22.134,59.14 v 0 c -0.984,0.477 -1.984,0.927 -2.997,1.351 -0.122,0.051 -0.248,0.096 -0.37,0.146 -0.856,0.352 -1.719,0.688 -2.593,1.001 -0.294,0.105 -0.593,0.2 -0.888,0.301 -0.711,0.242 -1.425,0.477 -2.148,0.694 -0.362,0.108 -0.727,0.208 -1.091,0.309 -0.67,0.187 -1.343,0.366 -2.02,0.53 -0.397,0.096 -0.794,0.187 -1.194,0.276 -0.662,0.146 -1.328,0.279 -1.998,0.404 -0.411,0.076 -0.822,0.153 -1.236,0.221 -0.68,0.112 -1.365,0.207 -2.053,0.295 -0.405,0.053 -0.809,0.111 -1.218,0.155 -0.744,0.081 -1.494,0.14 -2.245,0.194 -0.355,0.025 -0.708,0.061 -1.064,0.081 -1.109,0.06 -2.223,0.095 -3.346,0.095 -0.964,0 -1.921,-0.028 -2.874,-0.072 -0.293,-0.014 -0.585,-0.036 -0.877,-0.055 -0.67,-0.041 -1.337,-0.089 -2,-0.152 -0.32,-0.03 -0.639,-0.063 -0.959,-0.099 -0.668,-0.073 -1.332,-0.159 -1.994,-0.254 -0.272,-0.039 -0.545,-0.075 -0.816,-0.117 -0.903,-0.143 -1.799,-0.3 -2.688,-0.482 -0.017,-0.003 -0.035,-0.006 -0.053,-0.009 -0.94,-0.194 -1.873,-0.412 -2.797,-0.648 -0.176,-0.045 -0.349,-0.095 -0.524,-0.142 -0.735,-0.195 -1.466,-0.402 -2.19,-0.624 -0.227,-0.068 -0.451,-0.14 -0.676,-0.212 -0.703,-0.224 -1.4,-0.46 -2.092,-0.709 -0.188,-0.068 -0.377,-0.133 -0.563,-0.203 -0.863,-0.319 -1.718,-0.654 -2.562,-1.011 l 34.304,-44.931 -1.4,-1 -42.999,38.6 -165,-30 -0.201,1.6 153.401,35.2 -84.401,28.8 1,1.2 94.457,-24.074 c 0,0.003 0,0.006 0.001,0.01 0.074,1.059 0.127,2.124 0.169,3.191 0.009,0.22 0.018,0.44 0.025,0.661 0.036,1.09 0.059,2.183 0.059,3.282 0,0.992 -0.018,1.981 -0.047,2.966 -0.008,0.309 -0.023,0.616 -0.035,0.924 -0.025,0.688 -0.056,1.373 -0.097,2.057 -0.019,0.341 -0.041,0.682 -0.064,1.023 -0.047,0.68 -0.101,1.358 -0.16,2.035 -0.027,0.304 -0.052,0.61 -0.081,0.913 -0.086,0.884 -0.182,1.764 -0.291,2.641 -0.01,0.083 -0.018,0.165 -0.029,0.247 -0.123,0.979 -0.262,1.953 -0.414,2.922 -0.034,0.222 -0.073,0.441 -0.109,0.661 -0.122,0.746 -0.25,1.489 -0.388,2.229 -0.05,0.276 -0.104,0.551 -0.158,0.826 -0.139,0.716 -0.286,1.429 -0.44,2.139 -0.053,0.241 -0.104,0.483 -0.158,0.723 -0.2,0.89 -0.41,1.775 -0.633,2.655 -0.011,0.043 -0.021,0.087 -0.031,0.13 -0.25,0.979 -0.514,1.953 -0.793,2.921 -0.02,0.07 -0.043,0.141 -0.063,0.212 -0.249,0.858 -0.51,1.712 -0.78,2.561 -0.058,0.182 -0.118,0.363 -0.177,0.545 -0.251,0.77 -0.51,1.537 -0.778,2.299 -0.057,0.161 -0.114,0.323 -0.171,0.484 -0.997,2.788 -2.113,5.52 -3.343,8.189 -0.044,0.095 -0.089,0.19 -0.134,0.286 -0.371,0.799 -0.752,1.593 -1.142,2.38 -0.054,0.108 -0.107,0.215 -0.162,0.323 -0.429,0.857 -0.869,1.709 -1.322,2.553 v 10e-4 c -17.077,31.789 -50.638,53.405 -89.25,53.405 -44.529,0 -82.342,-28.746 -95.9,-68.692 -7.61,5.709 -17.066,9.092 -27.312,9.092 -25.164,0 -45.563,-20.399 -45.563,-45.562 0,-3.896 0.491,-7.677 1.412,-11.286 -34.9,-1.016 -62.886,-29.606 -62.886,-64.752 0,-4.088 0.396,-8.082 1.12,-11.96 H 7.475 c 3.011,7.205 4.68,15.113 4.68,23.41 0,24.066 -13.995,44.861 -34.289,54.697" /></g><g
           transform="translate(577.8447,350.7314)"
           id="g24"><path
             id="path26"
             style="fill:#febe0f;fill-opacity:1;fill-rule:evenodd;stroke:none"
             d="m 0,0 -35.199,1.3 30.399,17.8 -0.8,1.4 -34.2,-7.8 24.601,25.2 -1,1.2 -31,-16.4 L -30,53.3 -31.3,54.5 -56.8,30.3 -48.399,64.1 -50,64.9 -68,35.1 -69,70.3 -70.399,70.5 -80,36.9 -89.6,70.5 h -2 L -92,39.022 c 7.654,-14.247 12,-30.537 12,-47.843 0,-2.403 -0.088,-4.784 -0.254,-7.144 l -94.457,24.073 -1,-1.2 84.401,-28.8 -153.401,-35.2 0.2,-1.599 165,29.999 43,-38.6 1.4,1 -34.304,44.931 c 7.273,3.082 15.269,4.79 23.665,4.79 9.485,0 18.462,-2.177 26.461,-6.054 l 19.09,0.325 v 1.401 L -34,-10.899 0,-1.5 Z" /></g></g></g></g></svg>