<?xml version="1.0" encoding="UTF-8"?>
<svg xmlns="http://www.w3.org/2000/svg" xmlns:xlink="http://www.w3.org/1999/xlink" width="295pt" height="99pt" viewBox="0 0 295 99" version="1.1">
<g id="surface1">
<path style=" stroke:none;fill-rule:nonzero;fill:rgb(82.444763%,11.051941%,17.884827%);fill-opacity:1;" d="M 25.742188 31.101562 L 25.886719 30.523438 C 24.441406 26.691406 21.039062 23.148438 15.617188 23.148438 C 8.171875 23.148438 0 29.945312 0 49.253906 C 0 68.558594 7.304688 75.355469 14.535156 75.355469 C 19.449219 75.355469 22.992188 72.246094 24.945312 69.136719 L 24.945312 99 L 31.816406 99 L 31.816406 24.089844 L 26.03125 24.089844 Z M 24.945312 63.351562 C 23.28125 66.390625 20.824219 69.425781 16.558594 69.425781 C 11.0625 69.425781 7.015625 64.363281 7.015625 49.179688 C 7.015625 33.996094 11.785156 28.863281 16.921875 28.863281 C 20.679688 28.863281 23.71875 31.683594 24.945312 35.371094 Z M 73.535156 74.34375 L 73.535156 24.089844 L 66.59375 24.089844 L 66.59375 62.773438 C 63.773438 66.894531 60.378906 69.5 56.90625 69.5 C 52.929688 69.5 50.976562 65.882812 50.976562 61.328125 L 50.976562 24.089844 L 44.035156 24.089844 L 44.035156 61.6875 C 44.035156 70.945312 48.375 75.28125 54.664062 75.28125 C 60.085938 75.28125 64.28125 72.101562 66.957031 68.269531 L 67.101562 74.34375 Z M 106.507812 46.792969 L 106.507812 63.640625 C 104.195312 66.679688 101.085938 69.570312 96.675781 69.570312 C 92.265625 69.570312 89.445312 66.605469 89.445312 61.980469 C 89.445312 56.050781 94.070312 52.578125 99.855469 49.902344 Z M 116.34375 69.28125 C 113.738281 69.28125 113.449219 67.113281 113.449219 64.652344 L 113.449219 37.539062 C 113.449219 28.644531 108.460938 23.078125 99.785156 23.078125 C 89.515625 23.078125 84.890625 30.8125 84.816406 38.769531 L 91.179688 38.769531 C 91.105469 33.5625 94.359375 28.863281 99.496094 28.863281 C 104.050781 28.863281 106.507812 32.550781 106.507812 38.046875 L 106.507812 40.792969 L 97.976562 44.84375 C 89.011719 49.035156 82.503906 52.507812 82.503906 61.90625 C 82.503906 70.292969 87.78125 75.28125 95.011719 75.28125 C 100.578125 75.28125 104.917969 71.8125 107.664062 67.835938 L 106.582031 64.871094 C 106.292969 71.59375 109.617188 75.28125 114.753906 75.28125 C 116.269531 75.28125 117.714844 74.921875 118.945312 74.414062 L 118.945312 68.558594 C 118.148438 68.992188 117.28125 69.355469 116.34375 69.28125 Z M 126.105469 74.34375 L 133.046875 74.34375 L 133.046875 0.300781 L 126.105469 0.300781 Z M 142.15625 24.089844 L 142.15625 29.875 L 149.964844 29.875 L 149.964844 64.003906 C 149.964844 72.027344 154.015625 75.28125 159.511719 75.28125 C 162.546875 75.28125 165.078125 74.199219 166.886719 73.1875 L 166.886719 67.113281 C 165.296875 68.414062 163.34375 69.28125 161.390625 69.28125 C 158.28125 69.28125 156.980469 67.039062 156.980469 63.785156 L 156.980469 29.875 L 167.390625 29.875 L 167.390625 24.089844 L 156.980469 24.089844 L 156.980469 9.121094 L 150.472656 9.121094 L 149.964844 24.089844 Z M 175.925781 24.089844 L 175.925781 74.414062 L 182.863281 74.414062 L 182.863281 37.972656 C 186.117188 31.320312 190.3125 29.65625 195.375 29.65625 L 196.820312 29.65625 L 196.820312 23.148438 L 195.085938 23.148438 C 189.734375 23.148438 186.769531 25.175781 183.082031 30.8125 L 182.9375 30.8125 L 182.503906 24.089844 Z M 205.0625 74.34375 L 212.003906 74.34375 L 212.003906 24.089844 L 205.0625 24.089844 Z M 244.976562 40.71875 L 251.484375 40.71875 C 251.917969 30.019531 247.21875 23.078125 238.035156 23.078125 C 227.769531 23.078125 221.476562 31.609375 221.476562 49.179688 C 221.476562 66.75 227.621094 75.28125 237.527344 75.28125 C 247.289062 75.28125 251.703125 66.894531 251.773438 56.628906 L 245.339844 56.628906 C 245.628906 63.570312 243.167969 69.5 237.675781 69.5 C 232.828125 69.5 228.417969 64.871094 228.417969 49.253906 C 228.417969 33.632812 232.972656 28.933594 237.746094 28.933594 C 242.878906 28.933594 245.195312 34.355469 244.976562 40.792969 Z M 280.914062 38.695312 L 287.277344 38.695312 C 287.710938 29.65625 282.359375 23.148438 273.609375 23.148438 C 265.585938 23.148438 260.015625 28.429688 260.015625 36.019531 C 260.015625 44.191406 266.453125 47.734375 271.585938 50.480469 C 276.648438 53.230469 281.347656 55.832031 281.347656 61.257812 C 281.347656 66.101562 277.730469 69.5 273.320312 69.5 C 268.1875 69.5 264.644531 64.941406 264.5 59.015625 L 258.066406 59.015625 C 258.28125 68.773438 263.921875 75.355469 273.320312 75.355469 C 282.289062 75.355469 288 69.355469 288 60.894531 C 288 51.566406 281.132812 47.949219 274.984375 44.695312 C 270.503906 42.382812 266.667969 40.214844 266.667969 35.585938 C 266.667969 31.609375 269.488281 28.933594 273.539062 28.933594 C 278.960938 28.933594 281.421875 33.632812 280.914062 38.695312 Z M 205.136719 3.554688 L 212.003906 3.554688 L 212.003906 12.304688 L 205.136719 12.304688 Z M 205.136719 3.554688 "/>
<path style=" stroke:none;fill-rule:nonzero;fill:rgb(82.444763%,11.051941%,17.884827%);fill-opacity:1;" d="M 290.683594 74.667969 C 290.683594 74.414062 290.488281 74.316406 290.082031 74.210938 C 289.726562 74.113281 289.335938 73.960938 289.335938 73.476562 C 289.335938 73.058594 289.675781 72.773438 290.171875 72.773438 C 290.457031 72.773438 290.71875 72.847656 290.957031 72.992188 L 290.835938 73.289062 C 290.644531 73.160156 290.398438 73.082031 290.175781 73.082031 C 289.8125 73.082031 289.664062 73.246094 289.664062 73.453125 C 289.664062 73.707031 289.878906 73.792969 290.273438 73.902344 C 290.636719 73.996094 291.007812 74.175781 291.007812 74.644531 C 291.007812 75.078125 290.652344 75.394531 290.128906 75.394531 C 289.839844 75.394531 289.535156 75.308594 289.292969 75.15625 L 289.40625 74.851562 C 289.617188 74.988281 289.847656 75.089844 290.136719 75.089844 C 290.453125 75.089844 290.683594 74.917969 290.683594 74.667969 "/>
<path style=" stroke:none;fill-rule:nonzero;fill:rgb(82.444763%,11.051941%,17.884827%);fill-opacity:1;" d="M 293.65625 73.253906 L 292.898438 75.296875 L 292.558594 75.296875 L 291.792969 73.25 L 291.765625 75.332031 L 291.433594 75.332031 L 291.519531 72.835938 L 291.96875 72.835938 L 292.738281 74.890625 L 293.5 72.835938 L 293.945312 72.835938 L 294.023438 75.332031 L 293.679688 75.332031 L 293.65625 73.253906 "/>
</g>
</svg>
