<?xml version="1.0" encoding="UTF-8" standalone="no"?>
<svg
   xmlns:dc="http://purl.org/dc/elements/1.1/"
   xmlns:cc="http://creativecommons.org/ns#"
   xmlns:rdf="http://www.w3.org/1999/02/22-rdf-syntax-ns#"
   xmlns:svg="http://www.w3.org/2000/svg"
   xmlns="http://www.w3.org/2000/svg"
   viewBox="0 0 440.42667 208.42667"
   height="208.42667"
   width="440.42667"
   xml:space="preserve"
   id="svg2"
   version="1.1"><metadata
     id="metadata8"><rdf:RDF><cc:Work
         rdf:about=""><dc:format>image/svg+xml</dc:format><dc:type
           rdf:resource="http://purl.org/dc/dcmitype/StillImage" /></cc:Work></rdf:RDF></metadata><defs
     id="defs6" /><g
     transform="matrix(1.3333333,0,0,-1.3333333,0,208.42667)"
     id="g10"><g
       transform="scale(0.1)"
       id="g12"><path
         id="path14"
         style="fill:#26588c;fill-opacity:1;fill-rule:nonzero;stroke:none"
         d="M 44.0938,302.359 V 159.281 h 40.2226 c 19.6136,0 36.3866,6.981 50.3716,20.969 13.984,13.98 20.964,30.91 20.964,50.781 0,19.739 -6.98,36.571 -20.964,50.481 -13.985,13.886 -30.758,20.847 -50.3716,20.847 z M 84.3164,114.969 H 44.0938 V 5.96094 H 0 V 346.641 h 96.6797 c 27.4023,-3.68 50.5313,-14.993 69.4143,-33.84 22.562,-22.719 33.867,-49.969 33.867,-81.77 0,-32.09 -11.305,-59.472 -33.867,-82.191 -15.606,-15.629 -27.539,-24.418 -35.762,-26.399 L 205.914,5.96094 H 152.461 L 84.3164,114.969" /><path
         id="path16"
         style="fill:#26588c;fill-opacity:1;fill-rule:nonzero;stroke:none"
         d="m 597.074,180.762 c -24.125,8.117 -43.683,19.636 -58.672,34.629 -14.961,14.949 -22.449,33.539 -22.449,55.668 0,21.73 7.762,40.39 23.317,55.992 15.527,15.64 34.382,23.429 56.535,23.429 21.855,0 40.578,-7.73 56.187,-23.21 8.821,-8.52 16.199,-22.071 22.153,-40.688 L 634.109,270.84 c -4.812,13.07 -9.222,21.59 -13.203,25.539 -6.953,6.82 -15.308,10.223 -25.101,10.223 -9.953,0 -18.395,-3.43 -25.344,-10.332 -6.953,-6.872 -10.445,-15.25 -10.445,-25.211 0,-9.95 3.492,-18.387 10.445,-25.34 7.785,-7.66 18.582,-14.688 32.352,-21.078 26.699,-8.661 49.339,-22.289 67.925,-40.903 20.883,-20.558 31.297,-45.547 31.297,-74.937 0,-29.3713 -10.387,-54.4729 -31.191,-75.2502 -20.801,-20.832 -45.793,-31.21096 -75.039,-31.21096 -29.403,0 -54.453,10.44146 -75.176,31.30856 -16.609,16.6211 -27.106,39.5313 -31.512,68.7736 l 42.793,15.527 c 2.703,-25.1092 9.305,-42.9295 19.805,-53.4607 12.195,-12.1563 26.914,-18.2774 44.09,-18.2774 17.148,0 31.867,6.1211 44.066,18.2774 12.199,12.2305 18.313,27.0117 18.313,44.3127 0,17.187 -6.114,31.879 -18.313,44.097 -11.629,11.633 -25.918,20.942 -42.797,27.864" /><path
         id="path18"
         style="fill:#26588c;fill-opacity:1;fill-rule:nonzero;stroke:none"
         d="m 918.395,81.1094 44.066,-15.75 C 951.664,50.4609 943.879,40.5781 939.031,35.7617 915.336,12.0703 886.715,0.230469 853.227,0.230469 c -33.356,0 -61.895,11.839831 -85.59,35.531231 -23.727,23.7071 -35.574,52.3281 -35.574,85.8083 0,33.489 11.847,62.11 35.574,85.821 23.695,23.718 52.234,35.558 85.59,35.558 33.488,0 62.109,-11.84 85.804,-35.558 4.848,-4.821 12.633,-14.571 23.43,-29.172 l -44.066,-16.18 c -5.684,6.961 -9.524,11.422 -11.5,13.422 -14.77,14.769 -32.653,22.129 -53.668,22.129 -20.86,0 -38.711,-7.41 -53.563,-22.238 -14.824,-14.821 -22.238,-32.762 -22.238,-53.782 0,-20.851 7.414,-38.7106 22.238,-53.5583 14.852,-14.8203 32.703,-22.2422 53.563,-22.2422 21.015,0 38.98,7.3907 53.859,22.1289 1.863,2 5.625,6.3907 11.309,13.211" /><path
         id="path20"
         style="fill:#26588c;fill-opacity:1;fill-rule:nonzero;stroke:none"
         d="m 1007.5,346.539 h 44.28 V 201.32 c 12.37,23.7 30.25,35.551 53.67,35.551 23.43,0 42.12,-8.391 56.11,-25.223 13.98,-16.816 21.18,-37.918 21.61,-63.347 V 5.85156 h -44.06 V 146.59 c 0,12.64 -3.6,23.461 -10.77,32.492 -7.17,8.988 -18.48,13.527 -33.95,13.527 -18.32,0 -32.51,-9.808 -42.61,-29.398 V 5.85156 H 1007.5 V 346.539" /><path
         id="path22"
         style="fill:#26588c;fill-opacity:1;fill-rule:nonzero;stroke:none"
         d="m 1693.82,104.961 v 32.57 c -2.57,13.801 -9.44,26.301 -20.67,37.5 -14.77,14.899 -32.65,22.348 -53.64,22.348 -21.02,0 -38.95,-7.449 -53.78,-22.348 -14.82,-14.91 -22.26,-32.793 -22.26,-53.672 0,-21 7.44,-38.9098 22.26,-53.6676 14.83,-14.75 32.76,-22.1328 53.78,-22.1328 20.99,0 38.87,7.3828 53.64,22.1328 11.23,11.25 18.1,23.6406 20.67,37.2696 z m 0,104.777 V 346.43 h 44.29 V 5.73828 h -44.29 V 33.0117 C 1672.53,10.9883 1647.75,0 1619.51,0 c -33.52,0 -62.08,11.8594 -85.73,35.5508 -23.61,23.6992 -35.44,52.3086 -35.44,85.8082 0,33.52 11.83,62.11 35.44,85.801 23.65,23.731 52.21,35.578 85.73,35.578 28.24,0 53.02,-11.008 74.31,-33" /><path
         id="path24"
         style="fill:#26588c;fill-opacity:1;fill-rule:nonzero;stroke:none"
         d="m 1894.81,2.76953 c -27.67,0 -49.97,8.42967 -66.84,25.32027 -16.92,16.8985 -25.57,38.0508 -26,63.461 V 224.859 h 44.31 V 93.2695 c 0,-12.6484 4.6,-23.5 13.83,-32.5781 9.22,-9.1016 20.71,-13.6523 34.48,-13.6523 12.64,0 23.62,4.5195 32.93,13.539 9.28,9.0039 13.93,19.9024 13.93,32.6914 V 224.859 h 44.07 V 91.5508 c -0.41,-25.4102 -9.02,-46.5625 -25.76,-63.461 -16.88,-16.8906 -38.55,-25.32027 -64.95,-25.32027" /><path
         id="path26"
         style="fill:#26588c;fill-opacity:1;fill-rule:nonzero;stroke:none"
         d="m 2049.4,5.73828 h 44.293 v 340.902 H 2049.4 Z" /><path
         id="path28"
         style="fill:#46b8cd;fill-opacity:1;fill-rule:nonzero;stroke:none"
         d="m 2476.98,346.43 110.51,-190.989 110.07,190.989 h 40.25 V 5.73828 h -44.07 V 251.91 L 2587.49,67.8984 2480.8,251.91 V 5.73828 h -44.07 V 346.43 h 40.25" /><path
         id="path30"
         style="fill:#46b8cd;fill-opacity:1;fill-rule:nonzero;stroke:none"
         d="m 3258.88,104.961 v 32.57 c -2.55,13.801 -9.45,26.301 -20.65,37.5 -14.76,14.899 -32.64,22.348 -53.67,22.348 -20.99,0 -38.93,-7.449 -53.75,-22.348 -14.85,-14.91 -22.27,-32.793 -22.27,-53.672 0,-21 7.42,-38.9098 22.27,-53.6676 14.82,-14.75 32.76,-22.1328 53.75,-22.1328 21.03,0 38.91,7.3828 53.67,22.1328 11.2,11.25 18.1,23.6406 20.65,37.2696 z m 0,104.777 V 346.43 h 44.3 V 5.73828 h -44.3 V 33.0117 C 3237.59,10.9883 3212.83,0 3184.56,0 c -33.49,0 -62.05,11.8594 -85.69,35.5508 -23.65,23.6992 -35.47,52.3086 -35.47,85.8082 0,33.52 11.82,62.11 35.47,85.801 23.64,23.731 52.2,35.578 85.69,35.578 28.27,0 53.03,-11.008 74.32,-33" /><path
         id="path32"
         style="fill:#26588c;fill-opacity:1;fill-rule:nonzero;stroke:none"
         d="m 1278.5,169.461 c 4.73,6.648 10.09,12.277 15.85,16.711 5.65,4.328 11.5,7.738 17.4,10.09 6,2.359 11.52,4.136 16.41,5.258 4.71,1.05 10.23,1.8 16.42,2.23 6.2,-0.43 11.75,-1.18 16.46,-2.23 4.92,-1.122 10.43,-2.899 16.39,-5.258 5.92,-2.403 11.79,-5.793 17.42,-10.09 5.71,-4.41 11.06,-10.012 15.9,-16.711 3.49,-4.902 6.5,-10.75 8.93,-17.461 h -150.16 c 2.4,6.711 5.41,12.559 8.98,17.461 z m 135.96,-95.8712 c -4.71,-6.3281 -7.33,-8.3906 -12.82,-12.4492 -5.63,-4.1093 -11.31,-7.3008 -16.94,-9.5 -5.78,-2.2422 -11.12,-3.8906 -15.85,-4.9492 -4.79,-1.0195 -10.22,-1.7305 -15.82,-2.1328 -10.1,0 -27.11,1.4297 -34.82,4.2227 -7.63,2.7578 -14.42,6.4687 -20.23,10.957 -5.76,4.4805 -10.64,9.5703 -14.45,15.1523 -3.97,5.7578 -7.33,11.5703 -9.93,17.25 -2.56,5.6289 -4.51,10.9884 -5.73,15.9104 -0.52,2.051 -0.92,3.937 -1.3,5.679 h 196.56 v 5.899 c 0,9.519 -1.14,19.262 -3.41,28.941 -2.27,9.578 -5.66,19.071 -10.15,28.129 -4.49,9.039 -10.06,17.59 -16.61,25.492 -6.6,7.981 -14.39,15.008 -23.21,20.911 -8.84,5.929 -18.8,10.628 -29.56,13.98 -22.43,7.09 -51.32,6.816 -73.02,-0.562 -11.17,-3.821 -21.29,-8.899 -30.02,-15.129 -8.8,-6.332 -16.45,-13.532 -22.73,-21.481 -6.25,-7.93 -11.52,-16.262 -15.58,-24.828 -4.08,-8.5 -7.17,-17.102 -9.11,-25.543 -2.01,-8.488 -3.01,-16.359 -3.01,-23.418 0,-8.332 1.03,-17.23 3.09,-26.4022 2.03,-9.168 5.14,-18.2891 9.19,-27.0469 4.04,-8.7735 9.34,-17.3203 15.75,-25.3516 6.41,-7.9805 14.06,-15.1797 22.86,-21.3711 8.79,-6.1875 18.85,-11.1172 29.94,-14.75 11.12,-3.53904 31.65,-5.34764 45.23,-5.34764 h 0.33 c 16.55,0.91797 32.57,4.75784 47.58,11.41794 6.41,2.8907 12.93,6.5391 19.29,10.7618 6.52,4.2773 12.9,9.7695 19.01,16.2304 6.06,6.4375 8.04,8.1875 12.88,16.668 l -37.41,12.6601" /><path
         id="path34"
         style="fill:#26588c;fill-opacity:1;fill-rule:nonzero;stroke:none"
         d="m 2195.89,169.461 c 4.74,6.648 10.1,12.277 15.88,16.711 5.65,4.328 11.5,7.738 17.37,10.09 6.01,2.359 11.52,4.136 16.42,5.258 4.7,1.05 10.22,1.8 16.42,2.23 6.19,-0.43 11.74,-1.18 16.45,-2.23 4.92,-1.122 10.47,-2.899 16.41,-5.258 5.9,-2.403 11.77,-5.793 17.4,-10.09 5.71,-4.41 11.09,-10.012 15.9,-16.711 3.52,-4.902 6.53,-10.75 8.93,-17.461 h -150.16 c 2.41,6.711 5.41,12.559 8.98,17.461 z m 135.99,-95.8712 c -4.73,-6.3281 -7.36,-8.3906 -12.85,-12.4492 -5.63,-4.1093 -11.31,-7.3008 -16.93,-9.5 -5.79,-2.2422 -11.12,-3.8906 -15.86,-4.9492 -4.78,-1.0195 -10.22,-1.7305 -15.82,-2.1328 -10.09,0 -27.11,1.4297 -34.81,4.2227 -7.63,2.7578 -14.43,6.4687 -20.24,10.957 -5.76,4.4805 -10.6,9.5703 -14.44,15.1523 -3.99,5.7578 -7.34,11.5703 -9.93,17.25 -2.57,5.6289 -4.53,10.9884 -5.74,15.9104 -0.48,2.051 -0.92,3.937 -1.3,5.679 h 196.59 v 5.899 c 0,9.519 -1.17,19.262 -3.44,28.941 -2.25,9.578 -5.65,19.071 -10.15,28.129 -4.49,9.039 -10.06,17.59 -16.58,25.492 -6.63,7.981 -14.41,15.008 -23.23,20.911 -8.85,5.929 -18.81,10.628 -29.54,13.98 -22.45,7.09 -51.32,6.816 -73.04,-0.562 -11.17,-3.821 -21.27,-8.899 -30,-15.129 -8.82,-6.332 -16.47,-13.532 -22.72,-21.481 -6.28,-7.93 -11.53,-16.262 -15.59,-24.828 -4.11,-8.5 -7.2,-17.102 -9.14,-25.543 -2,-8.488 -3.01,-16.359 -3.01,-23.418 0,-8.332 1.04,-17.23 3.09,-26.4022 2.03,-9.168 5.14,-18.2891 9.2,-27.0469 4.03,-8.7735 9.33,-17.3203 15.74,-25.3516 6.41,-7.9805 14.09,-15.1797 22.86,-21.3711 8.79,-6.1875 18.86,-11.1172 29.94,-14.75 11.15,-3.53904 31.65,-5.34764 45.24,-5.34764 h 0.32 c 16.58,0.91797 32.57,4.75784 47.59,11.41794 6.4,2.8907 12.93,6.5391 19.28,10.7618 6.52,4.2773 12.9,9.7695 19.02,16.2304 6.06,6.4375 8.03,8.1875 12.9,16.668 l -37.41,12.6601" /><path
         id="path36"
         style="fill:#46b8cd;fill-opacity:1;fill-rule:nonzero;stroke:none"
         d="m 2837.9,169.461 c 4.77,6.648 10.09,12.277 15.88,16.711 5.65,4.328 11.49,7.738 17.39,10.09 5.98,2.359 11.53,4.136 16.4,5.258 4.71,1.05 10.22,1.8 16.44,2.23 6.18,-0.43 11.71,-1.18 16.42,-2.23 4.95,-1.122 10.47,-2.899 16.43,-5.258 5.89,-2.403 11.76,-5.793 17.42,-10.09 5.68,-4.41 11.06,-10.012 15.88,-16.711 3.51,-4.902 6.51,-10.75 8.92,-17.461 h -150.16 c 2.44,6.711 5.41,12.559 8.98,17.461 z m 135.99,-95.8712 c -4.74,-6.3281 -7.34,-8.3906 -12.85,-12.4492 -5.63,-4.1093 -11.31,-7.3008 -16.94,-9.5 -5.79,-2.2422 -11.11,-3.8906 -15.85,-4.9492 -4.76,-1.0195 -10.22,-1.7305 -15.82,-2.1328 -10.1,0 -27.08,1.4297 -34.82,4.2227 -7.63,2.7578 -14.42,6.4687 -20.24,10.957 -5.76,4.4805 -10.59,9.5703 -14.44,15.1523 -3.97,5.7578 -7.3,11.5703 -9.92,17.25 -2.58,5.6289 -4.52,10.9884 -5.74,15.9104 -0.48,2.051 -0.92,3.937 -1.3,5.679 h 196.58 v 5.899 c 0,9.519 -1.13,19.262 -3.43,28.941 -2.24,9.578 -5.65,19.071 -10.15,28.129 -4.49,9.039 -10.06,17.59 -16.58,25.492 -6.63,7.981 -14.42,15.008 -23.24,20.911 -8.84,5.929 -18.8,10.628 -29.54,13.98 -22.45,7.09 -51.31,6.816 -73.04,-0.562 -11.14,-3.821 -21.26,-8.899 -30,-15.129 -8.82,-6.332 -16.47,-13.532 -22.72,-21.481 -6.27,-7.93 -11.53,-16.262 -15.58,-24.828 -4.08,-8.5 -7.17,-17.102 -9.14,-25.543 -2,-8.488 -3.01,-16.359 -3.01,-23.418 0,-8.332 1.03,-17.23 3.09,-26.4022 2.05,-9.168 5.14,-18.2891 9.2,-27.0469 4.05,-8.7735 9.32,-17.3203 15.77,-25.3516 6.38,-7.9805 14.06,-15.1797 22.85,-21.3711 8.77,-6.1875 18.83,-11.1172 29.95,-14.75 11.12,-3.53904 31.62,-5.34764 45.23,-5.34764 h 0.3 c 16.58,0.91797 32.6,4.75784 47.58,11.41794 6.44,2.8907 12.93,6.5391 19.31,10.7618 6.5,4.2773 12.91,9.7695 19,16.2304 6.05,6.4375 8.03,8.1875 12.9,16.668 l -37.41,12.6601" /><path
         id="path38"
         style="fill:#26588c;fill-opacity:1;fill-rule:nonzero;stroke:none"
         d="m 277.602,169.559 c 4.761,6.66 10.089,12.293 15.878,16.722 5.657,4.328 11.497,7.739 17.395,10.09 6.004,2.348 11.523,4.141 16.422,5.25 4.676,1.059 10.191,1.809 16.418,2.238 6.191,-0.429 11.738,-1.179 16.445,-2.238 4.922,-1.109 10.445,-2.902 16.395,-5.25 5.925,-2.402 11.797,-5.793 17.422,-10.09 5.707,-4.41 11.062,-10.011 15.906,-16.722 3.484,-4.887 6.488,-10.739 8.926,-17.45 H 268.648 c 2.407,6.711 5.411,12.563 8.954,17.45 z M 413.59,73.6914 c -4.707,-6.3203 -7.336,-8.3906 -12.824,-12.4414 -5.629,-4.1406 -11.309,-7.3008 -16.934,-9.5 -5.789,-2.2383 -11.117,-3.918 -15.852,-4.9414 -4.789,-1.0391 -10.226,-1.7383 -15.828,-2.1367 -10.086,0 -27.101,1.4375 -34.812,4.2187 -7.629,2.75 -14.418,6.461 -20.235,10.961 -5.761,4.4882 -10.628,9.5703 -14.445,15.1367 -3.976,5.7305 -7.332,11.582 -9.93,17.2617 -2.57,5.6211 -4.515,10.98 -5.734,15.91 -0.512,2.059 -0.918,3.942 -1.297,5.68 H 462.25 v 5.898 c 0,9.524 -1.133,19.262 -3.406,28.942 -2.274,9.57 -5.653,19.07 -10.145,28.129 -4.488,9.011 -10.062,17.589 -16.609,25.492 -6.602,7.98 -14.418,15.008 -23.207,20.91 -8.848,5.918 -18.805,10.629 -29.57,13.98 -22.422,7.09 -51.317,6.821 -73.04,-0.601 -11.14,-3.789 -21.257,-8.86 -30,-15.11 -8.789,-6.308 -16.445,-13.5 -22.722,-21.46 -6.246,-7.918 -11.524,-16.282 -15.582,-24.829 -4.082,-8.5 -7.168,-17.089 -9.117,-25.543 -2,-8.488 -3,-16.367 -3,-23.429 0,-8.328 1.027,-17.219 3.086,-26.387 2.031,-9.1718 5.14,-18.2929 9.199,-27.0507 4.027,-8.7696 9.328,-17.3204 15.742,-25.3594 6.41,-7.9727 14.066,-15.1719 22.855,-21.3633 8.793,-6.1875 18.856,-11.1289 29.946,-14.75 11.117,-3.53907 31.648,-5.34766 45.23,-5.34766 h 0.324 c 16.555,0.91797 32.571,4.75786 47.586,11.41796 6.41,2.8906 12.93,6.543 19.285,10.7617 6.52,4.2696 12.907,9.7305 19.02,16.1992 6.059,6.4688 8.031,8.2305 12.875,16.6993 l -37.41,12.6523" /><path
         id="path40"
         style="fill:#46b8cd;fill-opacity:1;fill-rule:nonzero;stroke:none"
         d="m 1928.7,1192.33 h -145.97 v 146 c 0,11.94 -9.67,21.63 -21.64,21.63 h -218.95 c -11.98,0 -21.67,-9.69 -21.67,-21.63 v -146 h -145.94 c -11.96,0 -21.64,-9.67 -21.64,-21.62 V 951.75 c 0,-11.941 9.68,-21.625 21.64,-21.625 h 145.94 V 784.168 c 0,-11.938 9.69,-21.637 21.67,-21.637 h 218.95 c 11.97,0 21.64,9.699 21.64,21.637 v 145.957 h 145.97 c 11.96,0 21.59,9.684 21.59,21.625 v 218.96 c 0,11.95 -9.63,21.62 -21.59,21.62" /><path
         id="path42"
         style="fill:#26588c;fill-opacity:1;fill-rule:nonzero;stroke:none"
         d="M 2084.36,1342.22 V 775.004 c 0,-132.746 -68.87,-153.516 -158.49,-149.356 h -30.55 l 41.48,62.325 -56.95,32.031 -100.31,-158.465 h 200.45 c 92.66,0 168.46,76.336 168.46,169.664 v 662.337 c 0,93.31 -75.8,169.68 -168.46,169.68 H 1575.2 l -40.41,-66.27 h 403.25 c 103.83,-1.72 148.67,-36.74 146.32,-154.73" /><path
         id="path44"
         style="fill:#26588c;fill-opacity:1;fill-rule:nonzero;stroke:none"
         d="m 1218.82,780.262 v 567.208 c 0,132.74 68.85,153.5 158.5,149.37 h 30.54 l -41.47,-62.33 56.94,-32.01 100.31,158.43 h -200.45 c -92.65,0 -168.45,-76.33 -168.45,-169.65 V 728.93 c 0,-93.321 75.8,-169.668 168.45,-169.668 h 404.77 l 40.44,66.277 h -403.28 c -103.8,1.711 -148.65,36.738 -146.3,154.723" /></g></g></svg>