<?xml version="1.0" encoding="UTF-8" standalone="no"?>
<svg
   xmlns:dc="http://purl.org/dc/elements/1.1/"
   xmlns:cc="http://creativecommons.org/ns#"
   xmlns:rdf="http://www.w3.org/1999/02/22-rdf-syntax-ns#"
   xmlns:svg="http://www.w3.org/2000/svg"
   xmlns="http://www.w3.org/2000/svg"
   viewBox="0 0 441.21332 55.826668"
   height="55.826668"
   width="441.21332"
   xml:space="preserve"
   id="svg2"
   version="1.1"><metadata
     id="metadata8"><rdf:RDF><cc:Work
         rdf:about=""><dc:format>image/svg+xml</dc:format><dc:type
           rdf:resource="http://purl.org/dc/dcmitype/StillImage" /></cc:Work></rdf:RDF></metadata><defs
     id="defs6" /><g
     transform="matrix(1.3333333,0,0,-1.3333333,0,55.826667)"
     id="g10"><g
       transform="scale(0.1)"
       id="g12"><path
         id="path14"
         style="fill:#393637;fill-opacity:1;fill-rule:nonzero;stroke:none"
         d="m 1639.02,0 v 141.758 l 276.93,276.937 275.75,-275.14 V 1.79688 L 1915.95,277.535 1639.02,0 M 687.859,311.629 V 209.945 h 251.817 c 29.308,0.602 45.457,16.153 45.457,48.45 v 4.785 c 0,32.3 -16.149,47.851 -45.457,48.449 H 687.859 m 0,-305.64853 H 580.195 V 407.332 h 356.489 c 11.367,0 27.515,-1.195 37.683,-2.988 74.763,-10.172 114.843,-60.414 114.843,-142.36 0,-80.148 -38.28,-128.597 -108.862,-140.562 -10.168,-1.793 -26.914,-3.586 -43.664,-3.586 H 687.859 V 5.98047 m -349.91,0 H 152.523 C 53.2344,7.17578 1.79297,59.2148 0,158.508 V 407.332 H 104.074 V 158.508 c 1.199,-37.086 19.739,-54.434 56.824,-56.824 h 168.676 c 35.891,1.793 56.824,20.933 56.824,56.824 V 407.332 H 490.473 V 158.508 C 488.68,59.2148 437.238,7.17578 337.949,5.98047 m 1108.781,0 H 1339.06 V 311.629 h -186.62 v 95.703 h 480.91 V 311.629 H 1446.73 V 5.98047 m 1363.87,0 H 2675.42 L 2516.32,165.086 2357.21,5.98047 h -65.79 V 409.125 h 96.3 V 171.668 l 234.47,235.664 h 136.37 L 2583.91,232.676 2810.6,5.98047 m 0,0 v 0 M 3309.06,5.79688 H 2881.4 V 407.332 h 427.66 v -92.941 h -329.85 v -64.395 h 329.85 V 162.523 H 2979.21 V 98.7383 h 329.85 V 5.79688" /></g></g></svg>