<?xml version="1.0" encoding="UTF-8" standalone="no"?>
<!-- Created with Inkscape (http://www.inkscape.org/) -->

<svg
   xmlns:dc="http://purl.org/dc/elements/1.1/"
   xmlns:cc="http://creativecommons.org/ns#"
   xmlns:rdf="http://www.w3.org/1999/02/22-rdf-syntax-ns#"
   xmlns:svg="http://www.w3.org/2000/svg"
   xmlns="http://www.w3.org/2000/svg"
   xmlns:sodipodi="http://sodipodi.sourceforge.net/DTD/sodipodi-0.dtd"
   xmlns:inkscape="http://www.inkscape.org/namespaces/inkscape"
   id="svg6453"
   version="1.1"
   inkscape:version="0.91 r"
   width="1600"
   height="900"
   viewBox="0 0 1600 900"
   sodipodi:docname="rp4.svg">
  <metadata
     id="metadata6459">
    <rdf:RDF>
      <cc:Work
         rdf:about="">
        <dc:format>image/svg+xml</dc:format>
        <dc:type
           rdf:resource="http://purl.org/dc/dcmitype/StillImage" />
        <dc:title />
      </cc:Work>
    </rdf:RDF>
  </metadata>
  <defs
     id="defs6457" />
  <sodipodi:namedview
     pagecolor="#ffffff"
     bordercolor="#666666"
     borderopacity="1"
     objecttolerance="10"
     gridtolerance="10"
     guidetolerance="10"
     inkscape:pageopacity="0"
     inkscape:pageshadow="2"
     inkscape:window-width="1855"
     inkscape:window-height="1056"
     id="namedview6455"
     showgrid="false"
     inkscape:zoom="0.7425"
     inkscape:cx="879.63709"
     inkscape:cy="393.39615"
     inkscape:window-x="65"
     inkscape:window-y="24"
     inkscape:window-maximized="1"
     inkscape:current-layer="layer2" />
  <g
     inkscape:groupmode="layer"
     id="layer2"
     inkscape:label="Shadows">
    <path
       style="display:inline;fill:#ececec;fill-opacity:1;fill-rule:nonzero"
       d="m 1186.1205,817.19852 c -35.7103,-10.0759 -59.4181,-20.7285 -72.2964,-32.4845 -8.2303,-7.5132 -11.2036,-12.0451 -11.2036,-17.0764 0,-5.3338 2.3402,-8.3884 9.6159,-12.5511 l 5.5619,-3.1822 23.1611,0.5418 c 26.0255,0.6088 30.2474,1.2897 52.1611,8.4132 25.6412,8.3352 44.3977,17.9102 56.1561,28.6671 7.623,6.9738 9.3439,9.9564 9.3439,16.1944 0,4.0649 -0.4869,5.1542 -3.7726,8.4398 -2.0749,2.0749 -5.5624,4.3273 -7.75,5.0052 -2.4315,0.7535 -12.3339,1.3784 -25.4774,1.6077 l -21.5,0.3752 -14,-3.9502 z"
       id="path6387"
       inkscape:connector-curvature="0" />
    <path
       style="display:inline;fill:#ececec;fill-opacity:1;fill-rule:nonzero"
       d="m 915.31407,751.35202 c -7.4315,-1.1406 -22.5489,-4.9599 -29.9557,-7.5681 -15.5126,-5.4626 -23.0443,-11.8938 -23.0443,-19.6774 0,-21.70426 73.2842,-35.31604 129.3023,-24.01654 24.55793,4.95362 40.69773,14.69495 40.69773,24.56354 0,5.6695 -5.1094,10.7241 -16.5,16.3232 -10.2086,5.018 -24.07483,8.596 -38.57683,9.9545 -10.5561,0.9888 -56.2013,1.2989 -61.9232,0.4208 z"
       id="path6393"
       inkscape:connector-curvature="0" />
    <path
       style="display:inline;fill:#ececec;fill-opacity:1;fill-rule:nonzero"
       d="m 754.94076,798.88372 c -46.3651,-2.9456 -86.1656,-14.5617 -92.6132,-27.0301 -2.463,-4.7629 -1.8212,-8.4595 2.2516,-12.9676 8.8293,-9.773 34.4992,-17.988 70.8073,-22.66 16.3077,-2.0985 80.2671,-2.4081 96,-0.4648 50.8299,6.2784 80.1489,18.3422 78.0828,32.1285 -3.1335,20.9077 -77.7429,35.8722 -154.5285,30.994 z"
       id="path6397"
       inkscape:connector-curvature="0" />
    <path
       style="display:inline;fill:#ececec;fill-opacity:1;fill-rule:nonzero"
       d="m 460.96726,782.24479 c -8.5589,-2.2541 -14.87168,-5.8619 -17.80037,-10.1728 -3.25977,-4.7982 -2.72356,-12.1935 1.30569,-18.0077 8.17691,-11.7993 31.80209,-23.6798 56.67859,-28.5023 40.174,-7.788 72.6996,4.2225 64.0671,23.6576 -6.3074,14.2004 -33.414,28.6263 -62.7212,33.3798 -12.4174,2.014 -33.2104,1.8365 -41.52981,-0.3546 z"
       id="path6401"
       inkscape:connector-curvature="0" />
  </g>
  <g
     inkscape:groupmode="layer"
     id="layer4"
     inkscape:label="People"
     style="display:inline">
    <path
       style="fill:#000000"
       d="m 1212.1066,814.80351 c -4.162,-0.82537 -8.6616,-2.41363 -9.9989,-3.52943 -2.4634,-2.05532 -4.6135,-8.42757 -6.115,-18.12327 l -0.8254,-5.32873 -12.205,0.14053 c -6.9489,0.0802 -15.2321,-0.79519 -19.2334,-2.03216 -6.0503,-1.87036 -7.4575,-3.08598 -10.1132,-8.73574 -4.7569,-10.11993 -3.7075,-11.77047 15.9562,-25.09665 6.1336,-4.15673 7.1329,-6.5707 9.334,-22.54697 3.3258,-24.13784 -0.3146,-138.33881 -5.1851,-162.66258 -1.1811,-5.898 -1.8129,-11.59604 -1.4036,-12.66231 0.4092,-1.06627 0.042,-10.58218 -0.8173,-21.14646 -0.8588,-10.5643 -2.2163,-34.54995 -3.0167,-53.30142 -0.8005,-18.7515 -1.8642,-38.42945 -2.364,-43.72878 -0.4997,-5.29934 -0.7807,-37.71746 -0.6241,-72.04026 l 0.2843,-62.4051 -8.2268,-3.89517 c -8.4833,-4.01666 -18.8298,-13.41979 -22.4329,-20.38757 -3.9797,-7.69598 -9.3725,-23.46689 -10.4255,-30.48975 -0.7048,-4.69945 -2.1838,-7.9859 -4.3661,-9.70258 -10.6688,-8.39217 -10.5388,-24.58208 0.3144,-39.13363 1.8815,-2.52281 3.421,-6.24204 3.421,-8.26502 0,-4.09463 4.0512,-8.38019 11.8587,-12.5449 4.6135,-2.46091 8.2677,-2.72821 32.9906,-2.41311 29.1222,0.37116 33.6549,1.21432 41.126,7.65012 9.8058,8.44716 14.0402,13.45556 18.2973,21.64145 4.0518,7.79124 4.6051,10.2739 4.462,20.01218 -0.09,6.11461 -1.0058,13.11862 -2.0353,15.56446 -1.0297,2.44585 -1.7357,6.51155 -1.5691,9.0349 0.2842,4.30442 -4.9266,23.28172 -7.2877,26.54105 -0.5905,0.81528 -1.5107,3.78215 -2.0451,6.593 -1.5762,8.29306 -4.5391,11.43985 -12.5897,13.37122 -10.3926,2.49311 -12.6445,5.45412 -11.5551,15.19438 0.4815,4.30596 1.5075,13.6439 2.28,20.751 0.7724,7.10709 2.107,15.11168 2.9655,17.78797 1.6187,5.04576 4.2165,26.2285 6.0504,49.3359 0.5822,7.33756 3.1322,23.34673 5.6665,35.57597 4.277,20.63655 6.9781,36.28236 10.7484,62.2579 2.3442,16.15022 2.9011,45.59037 0.9084,48.02894 -0.9332,1.14217 -2.0764,9.30882 -2.5404,18.1481 -0.7413,14.12826 -1.2601,16.51476 -4.2884,19.73834 -3.8909,4.14165 -3.8806,4.85753 0.7394,51.94141 4.5835,46.71375 4.9908,52.07524 5.0618,66.61804 0.076,15.56348 2.1602,42.04223 4.6739,59.38009 5.4076,37.29829 4.6305,48.9601 -3.5752,53.65665 -4.0211,2.30144 -5.8701,2.48303 -12.2998,1.20796 z m 13.9695,-7.95385 c 2.2829,-2.85 1.6148,-25.41976 -1.1474,-38.75793 -2.31,-11.15529 -4.4321,-38.7372 -5.3034,-68.92841 -0.3998,-13.8598 -1.7153,-33.20421 -2.9232,-42.9876 -1.2078,-9.78338 -2.8775,-26.12608 -3.7098,-36.3171 -0.8327,-10.19103 -1.9097,-21.59137 -2.3934,-25.33414 -0.9446,-7.30941 -0.7087,-7.20793 -11.6776,-5.02489 -4.1099,0.81793 -4.33,6.3091 -1.5742,39.25301 4.9064,58.65333 5.7032,78.9837 4.5892,117.10416 -1.5429,52.81343 -1.4325,55.71202 2.324,60.98742 3.0255,4.24892 3.4401,4.37251 11.4996,3.4271 5.0091,-0.5876 9.1447,-1.9593 10.3162,-3.42162 z m -30.3632,-24.80571 c 2.5511,-1.51164 2.7176,-4.56784 2.6668,-48.97671 -0.029,-26.05048 -0.4179,-48.33815 -0.8626,-49.52818 -0.8739,-2.33951 -3.7046,-47.32363 -4.8167,-76.5472 l -0.6872,-18.05492 -4.5493,-1.58598 c -2.5023,-0.87226 -5.1707,-1.58595 -5.9298,-1.58595 -0.8291,0 -1.0043,7.54576 -0.4388,18.89971 1.8756,37.64572 2.9809,100.77633 2.0312,115.99241 -1.5809,25.32677 -2.7931,28.37327 -14.7492,37.06937 -5.5962,4.07032 -10.8521,7.40056 -11.6799,7.40056 -2.8947,0 -1.5011,8.73306 2.0566,12.88774 2.8956,3.38126 5.4598,4.44248 13.7117,5.67451 10.7079,1.59873 18.7305,1.03094 23.2472,-1.64536 z m 14.9995,-202.16655 c 6.4556,-3.98974 8.9062,-11.0215 7.6286,-21.89054 -1.0648,-9.05945 -3.0407,-13.72712 -5.8114,-13.72712 -4.4359,0 -9.0733,-12.34301 -11.4169,-30.3878 -0.7412,-5.70697 -2.0106,-15.04565 -2.8209,-20.75263 -0.8104,-5.70697 -2.1623,-15.31705 -3.0046,-21.35577 -0.8421,-6.03867 -2.4823,-14.71032 -3.6448,-19.27029 -3.2075,-12.58175 -5.0288,-27.98574 -6.7731,-57.27933 -1.4311,-24.03817 -2.9614,-41.20886 -5.5271,-62.01605 -0.7184,-5.82624 -0.4857,-7.10641 1.1903,-6.55095 3.1619,1.04789 5.5648,18.80464 7.2692,53.71597 1.6507,33.81346 3.892,52.79512 9.4635,80.14514 1.9931,9.78338 4.0673,22.45732 4.6092,28.16429 0.9056,9.53525 4.1553,31.49193 6.0723,41.02659 1.0024,4.98642 7.4819,11.59616 11.3676,11.59616 2.8325,0 2.9108,-0.7586 2.1022,-20.38205 -1.0678,-25.91911 -3.7944,-45.42743 -11.447,-81.89878 -4.4796,-21.34971 -5.5349,-27.59955 -7.3839,-43.72879 -1.5929,-13.8942 -4.5043,-33.32121 -7.5533,-50.39926 -0.7277,-4.0764 -1.9983,-14.08214 -2.823,-22.23496 -2.5102,-24.80932 -1.8456,-23.50213 -11.4469,-22.51115 -4.5124,0.46568 -8.7139,1.38541 -9.3365,2.04379 -2.0911,2.21086 -2.2386,118.12558 -0.1996,156.84183 1.0734,20.38205 2.2151,40.38088 2.537,44.44184 0.3221,4.06096 0.9663,17.06841 1.4317,28.90544 1.3436,34.17541 2.7922,40.67846 10.7475,48.25058 3.6315,3.45674 4.9512,3.8048 11.8938,3.13683 4.295,-0.41326 10.0892,-2.1606 12.8761,-3.88299 z M 1189.286,292.83337 c 6.1147,-1.23131 13.2621,-2.60058 15.8831,-3.04279 6.5376,-1.10296 8.2678,-3.71252 7.4287,-11.20324 -0.9124,-8.14116 -4.2863,-16.90887 -9.6438,-25.06119 -2.3398,-3.56059 -5.0545,-9.27359 -6.0326,-12.69552 -1.0867,-3.80237 -3.7026,-7.83727 -6.7272,-10.37632 -2.7221,-2.28504 -5.7273,-5.64855 -6.6782,-7.47449 -3.7646,-7.22713 -18.3428,-10.14956 -28.811,-5.77564 -4.8614,2.03124 -12.8535,10.18635 -12.8535,13.11569 0,0.86308 1.7287,3.17135 3.8416,5.1295 5.4833,5.08173 2.7278,7.89714 -7.7289,7.89714 -7.6567,0 -7.9714,0.15683 -7.9714,3.97118 0,9.56459 7.6229,27.45809 15.0929,35.42789 11.5686,12.34292 21.6154,14.63586 44.2003,10.08779 z m -43.4507,-26.72688 c -2.0982,-2.09827 -0.9111,-4.972 2.0543,-4.972 2.0721,0 2.9172,0.805 2.5941,2.47125 -0.5292,2.7282 -3.0596,4.08953 -4.6484,2.50075 z m 31.9627,-0.0244 c -2.8985,-1.16955 -2.1707,-4.94752 0.9531,-4.94752 2.8157,0 5.1745,3.38405 3.5153,5.04321 -0.9976,0.99766 -1.8017,0.98044 -4.4684,-0.0956 z m 47.237,-17.54735 c 0.5812,-4.89169 1.8226,-12.22923 2.7587,-16.30565 1.8954,-8.25544 1.033,-20.72003 -1.811,-26.17171 -4.7974,-9.19636 -19.3007,-21.98473 -28.2285,-24.89029 -3.0878,-1.00493 -9.4246,-1.662 -14.0821,-1.46015 -4.6576,0.20185 -9.4687,-0.0135 -10.6918,-0.47968 -8.4142,-3.20408 -26.2985,-1.62842 -34.476,3.03741 -2.4385,1.3914 -5.6848,3.18831 -7.2137,3.9931 -3.9047,2.05511 -3.4594,3.44941 1.2759,3.99704 3.8622,0.44665 3.9236,0.57512 1.2856,2.69252 -12.7931,10.26885 -17.1704,17.59287 -17.1919,28.76439 -0.012,5.79559 10.19,15.70554 16.167,15.70554 3.874,0 4.2493,-0.51028 4.9503,-6.73063 0.8671,-7.69134 3.8558,-11.60897 12.0454,-15.78868 13.6872,-6.98554 30.3876,-4.41528 36.5974,5.63251 1.6571,2.6813 4.1952,5.25031 5.6402,5.70892 2.6791,0.85034 9.0841,10.83246 9.0841,14.15747 0,1.0091 2.5831,5.70269 5.7399,10.43015 3.1569,4.72746 6.2115,10.47481 6.788,12.77188 0.5766,2.29707 1.8292,4.67557 2.7836,5.28556 2.5341,1.61951 7.316,-9.72378 8.5787,-20.3497 z M 472.41687,772.99447 c -2.9808,-0.39606 -5.2949,-1.89392 -6.5504,-4.23987 -2.0144,-3.76399 -1.9209,-4.1517 3.7345,-15.48612 7.7456,-15.52352 10.0264,-44.28983 8.1318,-102.56308 -0.9833,-30.24633 -1.9077,-42.41827 -3.5131,-46.26055 -3.31,-7.92202 -6.4815,-21.34578 -8.3365,-35.28542 -2.1883,-16.44367 -1.0844,-124.60842 1.5096,-147.9331 1.0428,-9.37575 1.9692,-20.38207 2.0587,-24.45848 l 0.1628,-7.41167 -15.6835,0 c -9.5716,0 -16.5037,-0.66176 -17.788,-1.69812 -1.1575,-0.93398 -4.554,-2.71268 -7.5479,-3.95261 -8.6373,-3.57721 -10.4039,-7.71734 -11.6933,-27.40385 -1.1497,-17.55298 -4.5403,-37.08511 -7.3921,-42.58309 -0.8568,-1.65191 -1.7776,-8.32241 -2.0462,-14.82332 -0.2686,-6.50092 -0.6999,-12.4869 -0.9586,-13.30217 -0.7621,-2.40218 1.6403,-18.65686 3.9628,-26.81256 2.7894,-9.79521 6.9078,-15.2065 17.718,-23.28064 11.9716,-8.94166 16.317,-10.97192 30.8927,-14.43362 11.1166,-2.64021 14.5705,-2.81627 30.9407,-1.57714 10.5714,0.80019 20.893,2.4248 24.2109,3.81082 13.8246,5.7749 19.9041,16.5431 25.9636,45.9875 1.5411,7.48837 3.4731,48.43876 3.2521,68.9284 -0.1413,13.09152 -3.2972,24.77765 -9.2512,34.25628 l -4.2923,6.83319 -12.1793,1.55482 c -17.5186,2.23644 -18.4037,3.39244 -16.2653,21.24402 1.5991,13.35057 2.8011,24.46013 8.163,75.45081 2.4637,23.42919 2.4552,42.61754 -0.07,157.26232 -1.0598,48.11718 0.9472,66.10511 9.2127,82.56876 2.9852,5.94602 7.9898,13.45108 11.1214,16.67793 3.1315,3.22684 5.6937,6.85141 5.6937,8.05463 0,3.60861 -6.4878,6.7355 -14.3423,6.91246 -8.175,0.18418 -12.9498,-1.73941 -15.3225,-6.17282 -1.9905,-3.71907 -4.4289,-3.78634 -4.4289,-0.12216 0,5.45568 -6.0784,22.39656 -9.3177,25.96885 -3.4301,3.7829 -11.0719,5.44265 -19.7498,4.2896 z m 18.0436,-8.86034 c 6.0172,-8.9568 7.2979,-20.58223 5.2683,-47.82588 -1.0061,-13.5061 -2.2117,-42.56683 -2.679,-64.57945 -0.4843,-22.80807 -1.4815,-40.81992 -2.3184,-41.87585 -0.8078,-1.0191 -3.3631,-1.85292 -5.6785,-1.85292 l -4.2099,0 0.6974,24.08787 c 0.3835,13.24835 0.9945,33.09307 1.3579,44.09936 0.3634,11.0063 -0.2334,30.01721 -1.3262,42.24644 -1.7026,19.05285 -2.6214,23.61388 -6.4198,31.87012 -6.0955,13.24928 -6.1983,13.73129 -3.5698,16.7455 1.7285,1.98218 4.0359,2.55087 9.0219,2.22349 5.6335,-0.36986 7.2017,-1.1875 9.8561,-5.13868 z m 37.3976,-20.26827 3.3976,-1.88587 -4.5389,-4.74954 c -4.7467,-4.96691 -13.6215,-18.28212 -15.3718,-23.06288 -4.5871,-12.52893 -5.825,-26.78256 -5.8412,-67.25635 -0.01,-23.03171 -0.2189,-41.87585 -0.466,-41.87585 -0.2471,0 -2.1483,0.77412 -4.2248,1.72028 l -3.7756,1.72026 0,23.84994 c 0,13.11747 0.7378,39.5256 1.6445,58.68473 1.5596,32.95229 1.8514,35.19526 5.3994,41.50525 6.8967,12.26569 15.0881,16.17521 23.7809,11.35003 z m -28.4095,-143.15572 c 3.3644,-1.52775 6.6584,-3.65376 7.3201,-4.7244 1.374,-2.22307 1.283,-87.88702 -0.1123,-105.83107 -0.5071,-6.52224 -2.1883,-22.53141 -3.736,-35.57593 -5.8543,-49.34524 -8.7175,-74.47371 -9.7116,-85.23404 -1.4678,-15.88789 -2.5122,-18.08026 -8.3417,-17.51138 -5.6521,0.55154 -5.9624,1.59529 -8.5123,28.62885 -0.9228,9.78339 -2.2807,23.12438 -3.0175,29.64664 -4.3308,38.33613 -4.6792,44.5731 -3.8504,68.9284 1.0888,31.99702 2.9655,50.26005 5.8205,56.64089 1.1999,2.68172 2.5973,6.73751 3.1053,9.0129 0.5081,2.27535 1.584,3.72895 2.391,3.23019 0.9131,-0.56431 1.2112,-9.40543 0.7893,-23.40734 -2.0485,-67.99085 -3.3492,-134.1832 -2.7068,-137.75176 2.0132,-11.18292 2.9996,0.27662 3.9553,45.95227 0.5758,27.51578 1.6592,56.03211 2.4076,63.36965 1.9316,18.93876 1.7592,48.75674 -0.3082,53.29418 -2.317,5.08518 -5.893,4.75377 -10.0996,-0.93601 l -3.4834,-4.71158 -1.3443,3.59983 c -2.3046,6.17111 1.4358,36.66363 5.8508,47.69782 3.5228,8.80448 12.1375,10.87991 23.5843,5.68189 z m -30.9863,-218.49756 c 2.4174,-1.513 4.5441,-10.15646 5.1252,-20.83024 0.5168,-9.49466 0.8965,-8.99427 -10.3499,-13.64019 -3.5071,-1.44882 -10.6372,-6.85318 -15.8447,-12.00965 -5.2075,-5.1565 -10.1758,-9.37544 -11.0408,-9.37544 -1.9085,0 -2.016,-2.11987 -0.283,-5.57885 0.7092,-1.41569 2.7391,-5.57568 4.5109,-9.24447 5.9921,-12.408 10.741,-19.31601 14.7076,-21.39443 2.1727,-1.13844 6.285,-4.5184 9.1385,-7.51102 2.8535,-2.99259 7.0109,-6.39588 9.2388,-7.56286 4.1222,-2.15926 9.3438,-11.60415 11.0037,-19.90369 0.8896,-4.44814 0.9346,-4.46722 4.7805,-2.03156 2.1354,1.35233 5.5866,4.04005 7.6694,5.9727 2.0828,1.93267 4.9435,3.51394 6.3572,3.51394 1.4136,0 5.3794,2.73741 8.8129,6.08312 3.4334,3.34572 8.7694,7.70597 11.8578,9.68942 3.0884,1.98346 6.2569,5.2495 7.0411,7.25786 0.7842,2.00836 2.1248,5.42068 2.9791,7.5829 2.9842,7.55271 3.9827,1.16827 2.1218,-13.5665 -5.2489,-41.5619 -14.3777,-54.33111 -38.8358,-54.32306 -5.5277,10e-4 -12.1975,-0.74195 -14.8218,-1.65281 -5.4704,-1.89867 -19.7041,0.32757 -32.2868,5.04985 -7.8979,2.96405 -27.5349,17.34199 -32.0998,23.5029 -4.5109,6.088 -7.4361,25.3334 -6.3088,41.50528 0.54,7.74518 1.8538,16.22454 2.9196,18.84303 1.0658,2.61847 2.407,7.95487 2.9804,11.85863 0.5734,3.90379 1.7282,8.7654 2.5663,10.8036 0.838,2.03821 1.9272,11.61293 2.4204,21.27715 0.8204,16.07848 1.1915,17.81011 4.3677,20.38205 1.9091,1.54592 5.0858,2.81075 7.0593,2.81075 1.9734,0 3.9081,0.834 4.2993,1.85335 0.7972,2.07745 26.7302,2.63074 29.9139,0.63824 z m 49.5152,-8.23087 c 10.0386,-1.21011 12.2285,-2.85565 16.8463,-12.65879 4.6859,-9.94746 5.8217,-25.38123 3.3913,-46.08334 l -1.9142,-16.30564 -2.0896,6.67048 c -2.6242,8.37716 -12.9326,29.47829 -16.1929,33.14651 -1.3485,1.5173 -6.7877,4.902 -12.087,7.52154 l -9.6352,4.76279 0.4725,10.26644 c 0.6953,15.11058 0.9543,15.6199 7.4102,14.57165 3.0021,-0.48745 9.2114,-1.33867 13.7986,-1.89164 z m -16.9769,-31.55878 c 12.4004,-4.61344 18.8504,-13.10152 26.451,-34.80896 2.346,-6.70007 2.4354,-8.46373 0.7366,-14.53124 -1.5947,-5.69593 -3.4539,-8.07557 -10.6128,-13.58424 -4.7736,-3.67324 -8.6794,-7.22859 -8.6794,-7.90078 0,-0.67218 -3.5224,-2.88995 -7.8276,-4.92834 -4.3051,-2.03841 -8.7539,-4.82236 -9.8861,-6.18656 -1.8503,-2.22956 -2.3762,-1.72896 -5.1998,4.95054 -3.2857,7.77263 -19.7011,25.16352 -28.2184,29.89526 -4.6143,2.56348 -13.8782,18.6691 -14.0106,24.35796 -0.19,8.16698 16.56,23.48768 28.2823,25.86898 8.2663,1.67922 19.2136,0.49522 28.9648,-3.13262 z m -24.801,-26.60134 c -2.1985,-4.10784 0.1341,-6.45131 5.1648,-5.1887 4.0912,1.02683 4.911,3.65827 2.0355,6.53371 -2.6564,2.65642 -5.3257,2.1578 -7.2003,-1.34501 z m 36.3225,-1.45233 c -1.166,-1.88652 1.3041,-4.73853 4.5118,-5.2093 1.4684,-0.21554 2.2385,0.90117 2.2385,3.24612 0,2.55022 -0.8246,3.57465 -2.8772,3.57465 -1.5825,0 -3.3254,-0.72516 -3.8731,-1.61147 z m 268.3817,454.81672 c -33.4266,-0.68125 -69.9299,-1.41089 -81.1185,-1.62142 -11.1886,-0.2105 -20.6729,-0.71273 -21.0761,-1.116 -0.4033,-0.40331 -1.1269,-9.3705 -1.608,-19.92709 -0.4811,-10.55661 -1.4963,-28.53254 -2.2559,-39.94649 -0.7597,-11.41395 -1.384,-27.42313 -1.3873,-35.57594 -0.01,-14.47328 -3.3659,-68.9762 -5.8027,-94.12803 -0.6714,-6.92989 -0.7805,-13.09925 -0.2425,-13.70968 0.5381,-0.61041 15.6209,-1.13574 33.5173,-1.16736 17.8965,-0.0316 41.065,-0.45277 51.4856,-0.93587 l 18.9464,-0.87835 -0.4173,-16.46646 c -0.4171,-16.45756 -0.4196,-16.46755 -4.6202,-18.47781 -2.3115,-1.10624 -4.8763,-3.94344 -5.6995,-6.30489 -1.2331,-3.53706 -2.3208,-4.28222 -6.1735,-4.22925 -4.2096,0.0578 -14.5458,-1.34326 -31.3587,-4.25095 -5.9275,-1.02511 -5.9294,-1.0277 -6.2788,-8.43709 -1.1574,-24.54619 -1.9984,-29.02612 -5.7146,-30.43899 -4.1309,-1.57059 -4.6055,-5.50731 -1.4092,-11.68842 1.1891,-2.29943 3.2741,-9.10354 4.6333,-15.12029 3.3753,-14.94172 6.6676,-21.3549 16.0309,-31.2269 7.251,-7.64497 9.1458,-8.76772 20.3778,-12.07496 10.6595,-3.13863 14.86,-3.58989 30.1715,-3.24135 23.6096,0.53742 28.1728,1.8735 35.8169,10.48705 5.1765,5.83308 6.6814,9.06257 9.3441,20.05228 1.7456,7.20468 3.3999,16.42184 3.6761,20.48258 0.2762,4.06076 1.3621,10.73815 2.413,14.83872 1.7021,6.64092 1.6329,7.76264 -0.6329,10.26633 -2.1558,2.38218 -2.3921,4.62861 -1.5495,14.73226 0.9545,11.44513 0.8448,12.06012 -2.7435,15.39125 -6.5219,6.05442 -14.4926,10.14025 -19.7817,10.14025 -4.0537,0 -5.4064,0.74785 -6.4853,3.58544 -0.7497,1.97196 -3.2346,4.49615 -5.522,5.60928 -4.0436,1.96774 -4.1458,2.3102 -3.6884,12.34964 0.2588,5.67917 0.9517,12.66043 1.5399,15.51392 l 1.0694,5.18817 13.9395,1.1581 c 7.6667,0.63697 26.6517,0.63697 42.1889,0 25.6988,-1.05354 28.48,-0.92748 30.8036,1.39621 2.3231,2.32306 2.5374,7.02012 2.3667,51.88158 -0.2516,66.15004 0.3315,97.36784 1.8362,98.29775 0.6858,0.42385 2.0437,-0.74889 3.0175,-2.6061 0.9739,-1.85723 4.0842,-5.96332 6.9119,-9.12466 9.5795,-10.70981 10.4692,-14.55508 11.3622,-49.11032 0.826,-31.95995 1.1889,-39.352 3.747,-76.3281 1.8479,-26.71004 2.2095,-58.36059 0.8892,-77.82238 -1.3335,-19.65532 -1.3159,-19.61839 -7.0454,-14.79731 -3.9145,3.29383 -5.7503,3.85499 -10.519,3.21536 -3.1772,-0.42616 -7.43,-2.3279 -9.4505,-4.22607 -3.1961,-3.00258 -3.5491,-4.28197 -2.7155,-9.84084 0.527,-3.51429 2.5009,-9.52019 4.3865,-13.34649 4.4426,-9.01521 9.3046,-38.49757 10.4364,-63.2855 1.0012,-21.92621 1.5895,-29.80726 3.7067,-49.65809 0.8261,-7.74519 1.7409,-17.08387 2.033,-20.75263 1.4091,-17.69883 5.7798,-50.64731 7.8233,-58.97612 2.5527,-10.40406 1.4289,-13.65811 -4.7171,-13.65811 -4.4457,0 -16.5074,-5.21069 -22.3144,-9.63992 -2.5236,-1.92483 -7.4996,-8.31801 -11.0578,-14.20707 -3.5582,-5.88906 -7.6115,-11.77131 -9.0073,-13.07166 -1.3958,-1.30038 -4.0135,-6.36634 -5.8172,-11.2577 -1.8037,-4.89137 -3.9341,-9.72072 -4.7341,-10.73188 -0.8001,-1.01116 -1.8007,-6.1487 -2.2236,-11.41676 -0.7611,-9.48099 -0.6659,-9.78349 9.373,-29.79372 5.578,-11.11851 11.5034,-21.17415 13.1676,-22.34584 1.6642,-1.17171 7.6951,-3.5931 13.4021,-5.38089 9.0382,-2.83136 13.8173,-3.25636 37.0583,-3.2957 23.0215,-0.039 27.292,0.31808 31.1289,2.60249 19.9366,11.86976 21.6423,14.0926 25.239,32.89079 2.94342,15.38403 0.9205,47.97873 -3.7146,59.85067 -7.8098,20.0036 -14.2573,27.97249 -26.9022,33.25016 -2.9577,1.2345 -5.8086,2.94162 -6.3351,3.79365 -0.5266,0.852 0.3614,9.09143 1.9733,18.30982 1.6119,9.21837 3.6462,23.43117 4.5206,31.58399 2.9639,27.63437 5.7151,46.24475 10.2993,69.66956 3.3731,17.23632 4.4515,24.01108 8.0677,50.6816 1.237,9.12339 3.1756,18.46208 4.3079,20.75264 1.1324,2.29056 3.2648,9.60008 4.7388,16.24338 l 2.68,12.07874 -3.2737,4.59748 c -2.7053,3.79932 -4.2796,4.59751 -9.0679,4.59751 -4.5448,0 -6.3178,-0.79911 -8.2224,-3.70584 -1.3355,-2.03821 -2.9409,-3.70583 -3.5676,-3.70583 -0.6267,0 -1.4254,6.50374 -1.775,14.45273 -0.5408,12.29765 -1.2619,15.63075 -4.8364,22.353 -4.1567,7.81705 -4.1923,8.10597 -3.3779,27.42313 0.4527,10.73757 1.9154,26.86038 3.2505,35.8285 1.335,8.9681 3.413,22.97613 4.6176,31.12894 1.8945,12.82172 5.9257,32.52307 14.7104,71.89306 1.1825,5.29934 3.5026,12.27765 5.1558,15.50731 1.6531,3.2297 3.0057,6.73171 3.0057,7.78224 0,1.05055 0.5658,1.91008 1.2572,1.91008 1.3698,0 4.96272,7.83629 7.68212,16.75494 3.7821,12.40399 -2.2996,18.08064 -16.17882,15.1013 -11.0951,-2.38167 -18.8043,-6.3004 -20.7363,-10.54071 -4.7464,-10.41729 -12.7374,-57.43806 -15.7144,-92.46743 -1.2491,-14.69833 -2.2301,-23.03599 -3.6625,-31.12894 -1.9145,-10.81717 -0.7893,61.93657 1.3641,88.19869 l 1.9447,23.71729 -3.7789,7.45689 c -2.3211,4.58004 -5.4056,8.22101 -7.9953,9.43752 -2.3189,1.08934 -5.3746,2.56984 -6.7903,3.29002 -1.4156,0.72015 -5.8662,1.30937 -9.8902,1.30937 -6.7455,0 -7.727,-0.47986 -12.5813,-6.15108 -6.4187,-7.49872 -7.9029,-5.58352 -5.6378,7.27508 0.827,4.69502 1.1934,10.19834 0.8142,12.22961 -0.3792,2.03127 -0.1155,8.43735 0.5859,14.23573 l 1.2754,10.54254 -14.1604,0.93788 c -7.7882,0.51581 -18.1627,0.79917 -23.0543,0.62966 -4.8917,-0.1695 -36.243,-0.8656 -69.6696,-1.54688 z m 98.4095,-3.92524 c 1.6416,-1.03959 1.829,-3.80904 0.9264,-13.68886 -1.2218,-13.37275 -2.348,-91.52953 -2.1382,-148.38948 0.1402,-38.01962 0.4855,-36.34987 -7.2949,-35.28186 -1.1009,0.15113 -1.6661,-0.27011 -1.256,-0.93612 0.8253,-1.34032 -95.0134,-1.37479 -151.3598,-0.0543 -23.2858,0.54567 -36.741,1.43353 -38.0381,2.50999 -1.3821,1.14704 -2.3061,1.18172 -2.9676,0.11135 -0.5283,-0.85485 -1.6037,-1.55431 -2.3897,-1.55431 -1.8035,0 -0.4202,37.40275 2.4604,66.52599 1.1596,11.72317 2.1093,30.73406 2.1106,42.24643 0,26.66145 2.7662,82.85536 4.1399,84.1861 0.5753,0.55723 21.7245,1.47002 46.9982,2.02842 25.2738,0.55838 58.9597,1.4938 74.8578,2.07867 43.3263,1.59395 71.6465,1.67749 73.951,0.21811 z M 694.82047,577.0786 c 2.3864,-2.543 4.6494,-4.3132 5.0288,-3.93376 1.0054,1.00541 -2.7024,5.11629 -6.2811,6.96391 -2.34,1.20805 -2.037,0.47505 1.2523,-3.03015 z m 286.38222,149.13727 c 1.7297,-5.12733 0.9356,-7.68156 -8.37362,-26.93326 -6.5102,-13.46344 -9.2627,-21.2179 -11.0918,-31.24823 -1.338,-7.33754 -3.966,-19.34441 -5.8399,-26.68197 -6.7978,-26.61672 -15.6376,-89.07787 -15.6564,-110.62622 l -0.013,-15.37191 -10.9438,-0.21638 -10.9437,-0.21638 -1.5925,16.52203 c -0.8759,9.0871 -1.4745,20.19078 -1.3303,24.67483 0.1443,4.48404 -0.6139,22.49437 -1.6847,40.02294 -1.0708,17.52857 -2.1828,42.5429 -2.4709,55.58741 -0.6794,30.75195 -1.8249,35.06081 -12.8971,48.51524 -4.6792,5.68595 -5.8176,8.30042 -6.0274,13.84217 -0.2147,5.67268 0.3704,7.34206 3.4473,9.83656 3.0913,2.5062 5.1373,2.87492 12.3387,2.22355 9.6488,-0.87274 13.4366,-3.41442 16.6891,-11.19879 2.8182,-6.745 2.6983,-27.34964 -0.2594,-44.5681 -1.9412,-11.3004 -2.2094,-21.15703 -1.5099,-55.47803 0.4678,-22.95486 1.0747,-43.40377 1.3485,-45.44197 0.2739,-2.03821 1.0336,-12.2107 1.6883,-22.60555 0.876,-13.90986 1.699,-18.89973 3.1174,-18.89973 2.404,0 3.2605,9.21007 4.3426,46.69344 1.468,50.85142 9.3342,117.03885 16.5205,139.00543 1.8661,5.70439 3.4292,7.64617 8.0544,10.00574 3.1564,1.61027 7.2663,2.93799 9.1332,2.95045 1.8668,0.0119 4.3948,0.66932 5.6178,1.45964 3.7358,2.41428 7.1537,1.65464 8.33702,-1.85291 z M 873.14797,562.63446 c -0.4925,-0.49256 -1.7711,-0.54521 -2.8411,-0.11693 -1.1825,0.47318 -0.8313,0.82445 0.8956,0.89557 1.5626,0.0644 2.4381,-0.28599 1.9455,-0.77856 z m -86.7399,-21.33939 c -0.3589,-2.44584 -0.9104,-4.44699 -1.2255,-4.44699 -0.3152,0 -0.573,2.00115 -0.573,4.44699 0,2.44585 0.5515,4.44699 1.2256,4.44699 0.6741,0 0.9319,-2.00114 0.5729,-4.44699 z m -3.2808,-7.7271 c 0,-1.5468 -1.718,-1.44107 -4.4283,0.27255 -1.7328,1.09556 -1.4948,1.34052 1.1117,1.14416 1.8241,-0.1374 3.3166,-0.77492 3.3166,-1.41671 z m 0.7418,-8.04983 c 2.4404,-2.44037 2.4029,-10.81595 -0.14,-31.28322 -0.742,-5.972 -5.2347,-11.08305 -7.0955,-8.07214 -0.4094,0.66234 -0.7734,9.44619 -0.809,19.51963 -0.075,21.30903 1.8425,26.03779 8.0445,19.83573 z m -15.2687,-11.20149 c -1.3834,-1.38351 -1.7788,-0.98822 -1.7788,1.77879 0,2.76704 0.3954,3.16232 1.7788,1.77879 1.3836,-1.38349 1.3836,-2.17408 0,-3.55758 z m 24.2728,-2.95985 -2.3343,-3.33266 0,3.91212 c 0,2.15168 0.8339,4.20119 1.853,4.55448 2.845,0.98628 3.072,-1.43522 0.4813,-5.13394 z m -26.5879,-12.62035 3.4345,-10.06413 -3.0956,-2.59408 c -1.7026,-1.42674 -4.9414,-2.59408 -7.1974,-2.59408 -7.0561,0 -14.3884,-4.12055 -20.7435,-11.65729 -5.7867,-6.86277 -6.4051,-7.19935 -11.2278,-6.11166 -5.9955,1.35222 -6.4073,0.0458 -1.9561,-6.2053 1.7312,-2.43125 3.9331,-7.49974 4.8932,-11.26333 1.5927,-6.24332 2.8904,-7.66851 14.8116,-16.26628 12.4143,-8.95351 16.7279,-10.63678 13.2895,-5.1859 -0.8538,1.35371 -4.499,4.49706 -8.1003,6.98524 -12.6673,8.75189 -13.7749,9.61914 -13.1204,10.27365 1.5877,1.58772 30.5204,-11.32862 34.913,-15.58621 l 4.736,-4.59021 5.4986,6.08635 c 5.4548,6.03783 5.5825,6.08634 16.0106,6.08634 10.1231,0 10.7198,0.20303 16.1331,5.48901 6.0712,5.9283 6.7319,8.48248 3.3506,12.95288 -1.197,1.58255 -2.1763,5.19892 -2.1763,8.03633 0,4.14317 -1.2543,6.36074 -6.3703,11.26275 -3.5037,3.3571 -9.7916,7.41182 -13.9732,9.01047 l -7.6029,2.90665 4.4013,10.3006 c 2.4206,5.66534 5.0344,11.06354 5.8083,11.99606 3.448,4.15456 24.0663,-3.39616 25.6677,-9.39986 1.9998,-7.49747 0.7058,-48.0621 -2.037,-63.85754 -1.6111,-9.27813 -2.9293,-17.11568 -2.9293,-17.41678 0,-0.30111 -2.5901,-3.21643 -5.7558,-6.4785 l -5.7559,-5.93102 -18.332,-0.26427 c -19.8674,-0.28639 -20.0291,-0.2793 -33.1553,1.45891 -10.9873,1.45497 -13.0173,2.57558 -21.9812,12.13401 -7.9137,8.43865 -13.2528,20.75884 -14.9772,34.56071 -0.6247,5.00031 -1.8543,8.51085 -3.1558,9.01028 -3.237,1.24215 -2.5494,3.61052 1.203,4.14343 3.1885,0.45283 3.3797,1.27838 4.3459,18.7655 1.1458,20.73693 2.0766,22.41916 12.3303,22.28355 3.2611,-0.0432 10.5987,0.87078 16.3056,2.03091 5.707,1.16013 10.9838,1.58006 11.7262,0.93313 0.7424,-0.64689 2.8953,-5.70504 4.7843,-11.24032 z m 171.1845,11.40434 c 4.5668,-1.26852 5.8392,-2.62455 8.5234,-9.08338 2.8025,-6.74362 3.1552,-10.44472 3.1552,-33.1108 0,-22.93959 -3.7145,-87.32352 -5.1742,-89.6854 -1.1664,-1.88721 -5.0373,-36.60323 -5.2089,-46.71599 -0.097,-5.70697 -0.9688,-26.05198 -1.9376,-45.21109 l -1.7615,-34.83478 -8.894,0 -8.8939,0 -0.1498,40.7641 c -0.082,22.42025 -0.7444,51.10335 -1.4713,63.74023 -1.5362,26.71094 -1.1062,137.62761 0.5633,145.26845 0.849,3.88564 2.4266,5.83884 6.2838,7.77995 5.9559,2.99722 7.6508,3.12052 14.9655,1.08871 z m -141.6089,-34.03056 c 11.4152,-5.74563 15.4383,-11.58511 15.408,-22.36442 -0.012,-4.43361 -0.5413,-8.87739 -1.1752,-9.87511 -0.6339,-0.99769 -6.1268,-2.26111 -12.2065,-2.80757 -7.0172,-0.63069 -12.491,-1.99825 -14.9887,-3.74472 -5.1605,-3.60827 -5.693,-3.54666 -16.4897,1.90838 -5.0723,2.56274 -12.5573,5.79478 -16.6334,7.18231 -5.2489,1.78676 -8.1904,3.85729 -10.0825,7.09691 -2.6264,4.49706 -2.6092,4.69682 1.0193,11.85724 5.8875,11.61845 12.9946,14.52409 36.6196,14.97132 8.1105,0.15353 11.2561,-0.5636 18.5291,-4.22434 z m -46.2579,-11.06862 c -1.4601,-3.8049 0.123,-7.48693 3.4219,-7.95878 4.1802,-0.59791 7.4503,4.8026 4.8241,7.96694 -2.2807,2.7481 -7.1902,2.74323 -8.246,-0.008 z m 40.9951,-0.0154 c -2.5576,-3.08168 -1.2972,-7.40719 2.3092,-7.925 4.4371,-0.63707 7.1734,3.13257 5.094,7.01787 -1.9156,3.57926 -4.8837,3.94295 -7.4032,0.90713 z m 110.3174,11.63277 c 1.308,-1.30798 3.6316,-4.83504 5.1635,-7.83791 2.522,-4.94355 2.8752,-10.71057 3.7355,-60.99153 0.5226,-30.5424 1.5645,-65.53742 2.3154,-77.76665 1.8115,-29.50456 1.7977,-45.21109 -0.04,-45.21109 -0.8153,0 -1.4824,2.80033 -1.4824,6.22298 0,6.46801 -2.0393,24.59384 -4.6366,41.21161 -0.8283,5.29934 -2.101,18.97385 -2.8283,30.38779 -3.709,58.20764 -7.2221,83.77872 -13.2812,96.66878 -3.0271,6.44003 -3.7968,13.20184 -1.8367,16.13671 2.5681,3.84528 9.5829,4.48707 12.8906,1.17936 z m 69.6054,-2.9686 c 2.9745,-1.14139 2.9589,-7.41801 -0.047,-19.11171 -1.2575,-4.89169 -2.6475,-10.4047 -3.0888,-12.25114 -0.4414,-1.84644 -1.3898,-3.72017 -2.1078,-4.16388 -0.7179,-0.44373 -1.3286,-3.93587 -1.357,-7.76035 -0.028,-3.82448 -1.059,-12.28996 -2.29,-18.81224 -1.2311,-6.52224 -2.5746,-14.52685 -2.9856,-17.78797 -0.411,-3.26113 -1.3319,-8.26399 -2.0464,-11.11748 -0.7146,-2.85349 -1.996,-8.85694 -2.8476,-13.34098 -0.8516,-4.48405 -2.1808,-11.48807 -2.9536,-15.56448 -0.7728,-4.07641 -2.2344,-13.24834 -3.248,-20.38204 -1.0135,-7.13372 -2.4524,-12.97041 -3.1976,-12.97041 -1.8176,0 0.9038,37.571 4.7244,65.22257 0.7322,5.29934 2.1018,21.97557 3.0436,37.05829 1.8291,29.29415 4.6292,42.06478 10.6218,48.44363 3.4694,3.693 4.1727,3.92245 7.7799,2.53819 z m -27.7358,-183.26256 c -0.3545,-1.84388 -0.6581,-0.68434 -0.6746,2.57679 -0.016,3.26115 0.2737,4.76978 0.6447,3.35254 0.371,-1.41724 0.3845,-4.08544 0.03,-5.92933 z m -7.8909,-45.6946 c 12.8489,-3.32309 16.6526,-4.89866 22.0364,-9.12784 3.0573,-2.40163 5.5587,-5.59119 5.5587,-7.08792 0,-2.50337 -1.1,-2.65566 -13.7369,-1.90173 -14.8809,0.8878 -16.6271,0.19542 -17.6205,-6.98649 -0.4604,-3.32794 -1.1929,-3.70583 -7.1832,-3.70583 -6.4833,0 -6.6912,0.14453 -7.4116,5.14905 -0.9896,6.87506 -5.3452,8.8839 -19.3213,8.91125 -10.7654,0.0212 -11.2602,-0.13357 -13.7116,-4.28328 -2.9302,-4.96054 -3.4456,-12.54843 -0.7923,-11.66397 0.963,0.32098 2.4638,2.66336 3.3353,5.20529 1.9201,5.60081 3.1208,6.91644 5.1613,5.65536 1.0562,-0.65277 0.9787,-1.87403 -0.243,-3.83029 -1.4719,-2.35692 -1.3336,-3.33203 0.7715,-5.4371 2.4319,-2.43191 2.6983,-2.43191 5.1302,0 2.0695,2.06949 2.2296,3.10243 0.8284,5.346 -2.1272,3.4062 -1.1168,4.58283 3.9354,4.58283 6.2272,0 10.7804,-4.02439 9.8066,-8.66774 -1.3829,-6.59412 0.5966,-7.83092 11.7479,-7.34046 10.6944,0.47038 11.6478,1.1196 13.331,9.07853 l 0.8856,4.18782 9.2084,-0.992 c 9.2257,-0.99389 14.3965,-3.77273 14.3965,-7.7369 0,-1.1645 0.8338,-1.83273 1.8529,-1.48494 1.0191,0.34776 1.8529,3.01492 1.8529,5.92697 0,2.91206 0.5003,5.796 1.1118,6.40874 0.6115,0.61274 1.1117,-0.22 1.1117,-1.85057 0,-1.63055 0.4771,-3.44166 1.0601,-4.02468 2.7941,-2.79415 4.7257,-15.23666 3.3639,-21.66906 -0.7767,-3.66876 -1.796,-9.83099 -2.2651,-13.69384 -1.1518,-9.48502 -3.5279,-11.50578 -13.5288,-11.50578 -9.4805,0 -16.3399,-2.82331 -21.8301,-8.98515 -2.1347,-2.39572 -4.7866,-4.35583 -5.8933,-4.35583 -3.0566,0 -9.2366,5.37078 -12.7832,11.1094 l -3.1715,5.13147 -12.8695,-0.31329 c -10.5223,-0.25616 -14.1537,0.27527 -19.9106,2.9137 -7.6739,3.51701 -8.5656,5.98954 -5.4174,15.02052 1.2864,3.69018 1.0971,6.33158 -0.9115,12.71733 l -2.5351,8.05978 5.4195,8.92142 c 7.1893,11.8349 16.2631,18.78663 29.0147,22.22919 7.179,1.93809 22.8893,1.98491 30.2158,0.0901 z m 5.8962,-27.32749 c -1.1785,-3.07118 0.4212,-6.6705 2.9647,-6.6705 2.8914,0 4.339,4.36862 2.2727,6.85839 -2.2026,2.65394 -4.174,2.58322 -5.2374,-0.18789 z m -55.3823,-25.07406 c 0,-2.37183 7.1326,-6.79606 10.9564,-6.79606 3.3822,0 4.4022,2.87383 1.3668,3.85072 -2.3031,0.74124 -7.2808,2.82363 -11.2114,4.69029 -0.6115,0.29036 -1.1118,-0.49487 -1.1118,-1.74495 z m 57.8109,-6.83273 c 0,-2.16512 7.2845,-4.65046 10.5722,-3.60701 1.5228,0.48334 2.7688,1.83443 2.7688,3.00241 0,1.52864 -1.8688,2.12361 -6.6705,2.12361 -3.6687,0 -6.6705,-0.68356 -6.6705,-1.51901 z m -74.9561,16.07575 c 1.3961,-3.32049 1.5652,-5.90884 0.572,-8.75794 -0.7755,-2.22444 -1.1993,-6.57444 -0.9417,-9.66669 0.375,-4.50399 1.4003,-6.16458 5.1546,-8.34872 6.5855,-3.83124 9.9535,-4.49421 23.7392,-4.673 l 12.12,-0.15721 4.3839,-6.04924 c 7.6462,-10.55064 20.0441,-14.30272 22.8344,-6.91052 2.6076,6.90835 7.6334,9.46672 20.8239,10.60028 7.1863,0.61757 12.2532,1.74604 12.6071,2.80778 0.3255,0.97637 1.8703,1.77521 3.4329,1.77521 5.4715,0 3.095,-23.49853 -3.458,-34.19141 -1.0195,-1.66366 -5.2858,-5.31324 -9.4806,-8.11017 -6.5969,-4.3985 -9.5438,-5.2991 -21.8187,-6.66781 -14.5763,-1.62537 -28.8512,-1.08592 -44.93,1.6979 -14.6096,2.52944 -19.1844,6.88673 -29.7568,28.34197 -4.9327,10.01043 -9.1469,19.19856 -9.3649,20.41806 -0.6506,3.63987 1.805,13.71494 4.6952,19.26408 1.4863,2.8535 3.074,7.02257 3.5283,9.26458 1.0962,5.41003 3.4229,5.15702 5.8592,-0.63715 z"
       id="path10942-2"
       inkscape:connector-curvature="0"
       sodipodi:nodetypes="ccscssssssccssscsscsssssscccccsssccsssccssssccccssccsssssscsscsccssssssssssssccssssssccssssssssscsssssscccccssssssssscscscccccssscscsscscsscsssccccssssssscsssssscsssssssscsssssssssssccssssscsssssssccsscssccsscccsssssssssscsssssscssccssssssssssssssssssscssssssssssssssscssscsssssssssssssssssssscssssscssssssscssscsssssssssssssssssssscssssssssssssssssssssssssssssssssssssssssscssssssssssssssssssscsssssssscsssssssssssssccsssscssssssscccssssssssssssssssscsscccccssssssssscsssccssssscsssscssssssssssscssssssscsssssscsssscsscssssssscscccsssssscssssssssscssccsssscssssssssscccsscsssssssssssccccscccssssssssssssssssssscsscsssssssssscsssscssccssssssssssssssssssscssssssssssssss" />
    <path
       style="fill:#483e37;fill-opacity:1;fill-rule:nonzero;stroke:#000000;stroke-opacity:1"
       id="path6226-2"
       d="m 479.46547,415.97364 c -0.017,0.16384 -0.049,0.3251 -0.082,0.48605 -0.022,0.11503 -0.063,0.22077 -0.1275,0.31845 -0.068,0.0937 -0.1505,0.17538 -0.2318,0.25735 -0.081,0.0783 -0.1525,0.16635 -0.2242,0.25338 -0.082,0.10213 -0.1599,0.20809 -0.2416,0.31076 -0.081,0.10552 -0.1636,0.20963 -0.2515,0.3095 -0.081,0.0903 -0.1663,0.17633 -0.2518,0.26231 -0.09,0.0916 -0.1887,0.17375 -0.2873,0.25559 -0.1111,0.0915 -0.232,0.16992 -0.3511,0.25025 -0.25,0.15678 -0.5091,0.29854 -0.7651,0.4448 -0.019,0.0107 -0.075,0.0423 -0.057,0.0315 0.1589,-0.0917 0.3182,-0.18282 0.4773,-0.27423 -0.2845,0.18226 -0.5659,0.34558 -0.8807,0.45667 -0.149,0.0632 -0.2947,0.13352 -0.4422,0.19997 -0.1548,0.0733 -0.3012,0.16224 -0.4542,0.23916 -0.1591,0.0683 -0.3161,0.14068 -0.4668,0.22617 -0.2803,0.16094 0.2589,-0.14899 0.3886,-0.22298 0.021,-0.0119 -0.041,0.0246 -0.062,0.0369 -0.054,0.0322 -0.1069,0.0655 -0.1598,0.0994 -0.2611,0.1592 -0.5197,0.32674 -0.7965,0.45659 -0.088,0.032 -0.176,0.0591 -0.2686,0.0733 -0.094,0.0244 -0.189,0.0454 -0.2838,0.0665 -0.1059,0.0214 -0.2142,0.0268 -0.3219,0.0306 -0.092,0.002 -0.1832,0.002 -0.2748,0.002 -0.1124,0.007 -0.2223,-0.0101 -0.3334,-0.023 -0.1464,-0.008 -0.2902,-0.0344 -0.434,-0.0617 -0.132,-0.0216 -0.2612,-0.056 -0.394,-0.0736 -0.089,-0.0138 -0.1801,-0.003 -0.2685,-0.019 -0.085,-0.0146 -0.1693,-0.0263 -0.2531,-0.0466 -0.078,-0.0165 -0.1504,-0.0501 -0.2244,-0.078 -0.074,-0.0158 -0.1311,-0.0582 -0.1822,-0.11173 0,0 0.5323,-0.3262 0.5323,-0.3262 l 0,0 c 0.049,0.0457 0.1042,0.0719 0.1684,0.0896 0.071,0.028 0.1435,0.0561 0.219,0.0712 0.082,0.0183 0.1664,0.0272 0.2496,0.0415 0.089,0.006 0.1793,0.005 0.2678,0.0212 0.1313,0.0225 0.26,0.0574 0.3917,0.0779 0.1436,0.0268 0.288,0.0451 0.4336,0.0564 0.1103,0.0125 0.2202,0.0209 0.3314,0.0159 0.091,-4.3e-4 0.1819,1.3e-4 0.2728,-0.004 0.1058,-0.005 0.2119,-0.0137 0.3149,-0.04 0.095,-0.0236 0.1907,-0.0415 0.2856,-0.0643 0.089,-0.0197 0.1761,-0.0484 0.2583,-0.0873 0.1907,-0.10234 0.4608,-0.26173 -0.4064,0.23905 -0.015,0.009 0.029,-0.0179 0.044,-0.0264 0.087,-0.0497 0.01,0.002 0.093,-0.0554 0.2963,-0.17695 0.5848,-0.36792 0.893,-0.5251 0.1533,-0.0815 0.3119,-0.15126 0.4688,-0.22533 0.1512,-0.0784 0.2977,-0.16586 0.4536,-0.23506 0.149,-0.0677 0.2956,-0.14105 0.4485,-0.19941 0.2343,-0.0908 0.7573,-0.36591 -0.1866,0.14852 0.1949,-0.11282 0.3896,-0.22609 0.5847,-0.33847 0.019,-0.0107 0.075,-0.0417 0.057,-0.0308 -0.1567,0.0919 -0.314,0.18276 -0.4712,0.27387 -0.039,0.0229 0.078,-0.0473 0.1171,-0.0707 0.019,-0.0116 0.039,-0.0227 0.059,-0.0341 0.1211,-0.0761 0.2396,-0.15775 0.3533,-0.24443 0.1001,-0.0779 0.1966,-0.16186 0.2888,-0.24878 0.086,-0.0856 0.1712,-0.171 0.2536,-0.25954 0.09,-0.098 0.1753,-0.19924 0.2531,-0.30688 0.083,-0.10083 0.1596,-0.20712 0.241,-0.30952 0.068,-0.0907 0.1428,-0.17806 0.2212,-0.26 0.081,-0.0803 0.1622,-0.16004 0.2351,-0.2475 0.069,-0.0896 0.1164,-0.18545 0.1406,-0.29688 0.035,-0.15792 0.076,-0.31572 0.081,-0.47838 0,0 0.5587,-0.27692 0.5587,-0.27692 z"
       inkscape:connector-curvature="0" />
    <path
       style="fill:#483e37;fill-opacity:1;fill-rule:nonzero;stroke:#000000;stroke-opacity:1"
       id="path6228-4"
       d="m 1185.1881,344.71943 c 0.5436,-0.24837 1.1214,-0.40466 1.6944,-0.56808 0.1623,-0.0418 0.3245,-0.0841 0.4869,-0.12552 0.4531,-0.11541 0.6181,-0.16197 1.0837,-0.24898 0.593,-0.11081 1.1915,-0.18183 1.7905,-0.25049 1.096,-0.1176 2.1731,-0.34879 3.2426,-0.60882 0.782,-0.19235 1.5557,-0.42893 2.2826,-0.77838 0.123,-0.069 0.2508,-0.1286 0.3749,-0.19544 0.049,-0.0261 0.1918,-0.10882 0.144,-0.0814 -1.6781,0.9638 -1.0958,0.64282 -0.7403,0.41466 0.6926,-0.42833 2.3136,-1.34678 0.2182,-0.14012 -0.025,0.0144 0.05,-0.0291 0.074,-0.0441 0.047,-0.0289 0.095,-0.0585 0.1422,-0.0875 0.021,-0.0148 0.043,-0.0295 0.064,-0.0443 0,0 1.1637,-0.45473 1.1637,-0.45473 l 0,0 c -0.022,0.0138 -0.044,0.0276 -0.066,0.0414 -0.1238,0.0984 0,0.009 -0.141,0.0928 -0.025,0.0151 -0.048,0.0326 -0.072,0.0489 -0.3799,0.21931 -0.7599,0.43863 -1.1398,0.65795 -0.3371,0.18185 0.6607,-0.38741 0.9926,-0.57852 0.027,-0.0157 -0.052,0.0348 -0.079,0.0522 -0.1194,0.09 -0.059,0.0497 -0.1977,0.1304 -0.5596,0.32508 -1.1066,0.66957 -1.6921,0.94551 -0.7266,0.32223 -1.4915,0.54516 -2.2628,0.73303 -1.0684,0.25456 -2.1448,0.47662 -3.239,0.58861 -1.1387,0.13512 -2.2707,0.317 -3.3693,0.65585 -0.5875,0.17524 -1.1808,0.34678 -1.7302,0.62403 0,0 0.974,-0.77913 0.974,-0.77913 z"
       inkscape:connector-curvature="0" />
    <path
       style="fill:#ffcc00;fill-opacity:1;fill-rule:nonzero;stroke:#000000;stroke-width:1.90466475;stroke-opacity:1"
       d="m 478.65637,597.39674 c -5.0244,-7.66826 -11.4958,-50.748 -7.6233,-50.748 0.5238,0 2.6666,1.71419 4.7617,3.80932 5.0267,5.02668 7.2468,4.80479 9.8862,-0.98812 1.6464,-3.61362 1.6256,-21.35587 -0.084,-71.90108 -2.7405,-81.00313 -3.5551,-93.21491 -6.3331,-94.93178 -2.1594,-1.33457 -1.1528,-20.34696 1.4342,-27.08848 1.5479,-4.03393 7.6543,-4.13425 9.1829,-0.15086 0.6384,1.66365 2.423,14.30586 3.9657,28.09381 1.5428,13.78794 4.9595,43.92517 7.5926,66.97162 3.9609,34.66794 4.7912,50.85531 4.809,93.75582 l 0.022,51.8532 -5.6194,2.90591 c -8.685,4.4912 -18.476,3.78722 -21.9936,-1.58136 z"
       id="path6230-0"
       inkscape:connector-curvature="0" />
    <path
       style="fill:#4d4d4d;fill-opacity:1;fill-rule:nonzero;stroke:#000000;stroke-width:1.90466475;stroke-opacity:1"
       d="m 436.79517,379.80714 c -4.165,-1.52461 -8.4505,-3.64742 -9.5234,-4.71736 -1.0728,-1.06994 -2.9568,-11.11871 -4.1865,-22.33059 -1.2298,-11.21189 -3.9934,-27.67059 -6.1413,-36.5749 -4.8316,-20.02954 -5.072,-43.04747 -0.5866,-56.17717 2.8279,-8.27802 5.0718,-10.81392 17.286,-19.5357 19.3313,-13.80391 29.3836,-16.46375 55.7193,-14.74333 16.5822,1.08325 21.9936,2.17994 26.8063,5.4326 8.3803,5.66392 13.9516,18.11544 17.5267,39.17112 4.0415,23.80301 3.9109,27.88549 -0.5831,18.23484 -3.5055,-7.52773 -16.2445,-18.4789 -36.9639,-31.77634 -9.9946,-6.41446 -11.1413,-6.05728 -14.5206,4.52281 -1.6352,5.11972 -6.4976,10.64044 -17.8912,20.31346 -13.181,11.1905 -16.7642,15.5449 -22.7452,27.64107 -7.1175,14.39436 -8.333,18.33002 -5.671,18.36156 0.7856,0.009 6.571,4.42417 12.8564,9.8108 6.2854,5.38663 14.3102,11.002 17.8327,12.4786 l 6.4048,2.68472 -0.7683,12.06586 c -0.4226,6.63622 -1.9097,13.44117 -3.3048,15.12211 -3.2428,3.90739 -20.8911,3.91625 -31.5463,0.0158 l 0,3e-5 z"
       id="path6232-5"
       inkscape:connector-curvature="0" />
    <path
       style="fill:#4d4d4d;fill-opacity:1;fill-rule:nonzero;stroke:#000000;stroke-width:1.90466475;stroke-opacity:1"
       d="m 497.82237,363.55852 c -0.7493,-6.62341 -0.6552,-12.29951 0.2091,-12.61356 0.8644,-0.31405 5.8427,-2.9068 11.063,-5.76168 10.0004,-5.46898 14.8805,-12.35085 23.1022,-32.57807 l 4.1644,-10.2454 1.3856,16.63397 c 1.6809,20.17875 0.298,33.48094 -4.436,42.66847 -4.2439,8.23663 -9.1819,10.89861 -23.441,12.63655 l -10.6848,1.30229 -1.3625,-12.04257 z"
       id="path6234-0"
       inkscape:connector-curvature="0" />
    <path
       style="fill:#ffe6d5;fill-opacity:1;fill-rule:nonzero;stroke:#000000;stroke-width:1.90466475;stroke-opacity:1"
       d="m 464.85487,341.62177 c -8.025,-3.95617 -19.5348,-16.74726 -19.5348,-21.70951 0,-7.3352 7.2666,-18.03241 19.6799,-28.97116 6.8395,-6.02702 15.1877,-15.20571 18.5516,-20.39709 l 6.1162,-9.43888 8.777,5.14055 c 4.8273,2.82731 13.3936,9.50471 19.0362,14.83867 9.0222,8.52874 10.2578,10.598 10.2479,17.1612 -0.014,8.9193 -9.476,30.46471 -16.0062,36.44484 -10.3412,9.4701 -34.4774,13.03964 -46.8678,6.93138 z m 17.4504,-22.78426 c 4.1841,-1.60556 3.7799,-7.72233 -0.5857,-8.86395 -5.8346,-1.5258 -8.6041,1.20438 -6.0545,5.96851 2.4143,4.51105 2.4217,4.51426 6.6402,2.89544 z m 37.2968,-6.6022 c 0,-4.88098 -6.3041,-4.32727 -7.2603,0.63769 -0.4402,2.2856 0.5855,3.31129 3.3113,3.31129 2.7257,0 3.949,-1.22322 3.949,-3.94898 z"
       id="path6236-0"
       inkscape:connector-curvature="0" />
    <path
       style="fill:#ffe6d5;fill-opacity:1;fill-rule:nonzero;stroke:#000000;stroke-width:0.47616619;stroke-opacity:1"
       d="m 479.69287,547.09847 c -0.263,-0.32736 -1.0219,-2.30941 -1.6866,-4.40454 -0.6647,-2.09513 -1.8601,-5.63066 -2.6565,-7.85674 -3.5458,-9.91219 -5.493,-34.19444 -5.5177,-68.80601 -0.014,-18.98124 0.1084,-22.62342 1.0688,-31.90314 1.3614,-13.15557 1.3488,-13.09312 2.644,-13.1003 0.5685,-0.003 1.9252,-0.51561 3.0149,-1.13878 l 1.9815,-1.13305 0.2644,4.82907 c 0.1454,2.65599 0.4971,16.39991 0.7815,30.54204 0.2844,14.14214 0.8231,36.1053 1.1971,48.80704 0.9655,32.785 0.8959,44.75962 -0.2602,44.75962 -0.1942,0 -0.5683,-0.26785 -0.8312,-0.59521 z"
       id="path6238-0"
       inkscape:connector-curvature="0" />
    <path
       style="fill:#ffe6d5;fill-opacity:1;fill-rule:nonzero;stroke:#000000;stroke-width:0.47616619;stroke-opacity:1"
       d="m 474.07867,768.47499 c -1.7477,-0.80193 -4.0238,-3.39187 -4.0238,-4.57853 0,-1.27032 1.0548,-4.04205 4.2618,-11.19882 3.7886,-8.45479 5.0021,-12.83 6.1635,-22.22278 2.7169,-21.97352 3.1317,-38.20561 1.9695,-77.07229 -0.5051,-16.892 -1.0517,-34.00957 -1.2146,-38.03904 l -0.2961,-7.32633 3.4861,0.23967 c 3.7817,0.25999 5.9574,1.02657 6.312,2.22396 0.4811,1.62469 1.2177,14.29023 1.685,28.97388 0.2688,8.446 0.7063,22.26672 0.9721,30.71272 0.5747,18.25629 1.2088,31.96647 2.1527,46.54524 1.2885,19.89932 0.7709,32.70294 -1.5981,39.5325 -2.0308,5.85473 -4.9628,10.23769 -7.8458,11.72853 -2.0181,1.04359 -10.0944,1.36685 -12.0243,0.48129 z"
       id="path6240-1"
       inkscape:connector-curvature="0" />
    <path
       style="fill:#ffe6d5;fill-opacity:1;fill-rule:nonzero;stroke:#000000;stroke-width:0.47616619;stroke-opacity:1"
       d="m 517.34967,745.12016 c -2.8399,-0.92626 -4.9477,-2.33754 -7.3673,-4.9329 -3.8808,-4.16258 -7.3717,-10.15078 -8.3991,-14.40743 -1.9432,-8.05088 -4.0017,-54.98505 -4.0922,-93.30028 l -0.057,-24.01811 3.5713,-1.54771 3.5712,-1.54771 0.3099,3.90026 c 0.1704,2.14513 0.3348,16.00677 0.3652,30.80364 0.093,45.31636 1.1594,60.04354 5.2215,72.13194 2.1649,6.44229 9.3387,17.57275 16.4237,25.48212 1.9941,2.22608 3.6268,4.1764 3.6282,4.33405 0,0.15765 -1.4777,0.96895 -3.287,1.80289 -3.8541,1.77646 -7.1128,2.20462 -9.8887,1.29924 z"
       id="path6242-6"
       inkscape:connector-curvature="0" />
    <path
       style="fill:#ffe6d5;fill-opacity:1;fill-rule:nonzero;stroke:#000000;stroke-width:1.3468014;stroke-opacity:1"
       d="m 1212.87,535.95112 c -4.4522,-5.07079 -5.419,-9.25192 -9.7807,-42.29972 -1.3985,-10.59636 -4.0395,-27.26303 -5.8689,-37.03703 -5.692,-30.41154 -6.8575,-41.96362 -10.5571,-104.63961 -0.3463,-5.86673 -0.2258,-6.07351 3.7675,-6.46386 l 4.1253,-0.40325 1.6766,10.50426 c 0.9221,5.77735 3.1697,21.41335 4.9947,34.74669 1.8249,13.33334 5.7069,36.36364 8.6266,51.17846 7.8373,39.76676 9.4275,51.49718 10.361,76.43097 0.7426,19.83421 0.5926,22.55893 -1.2414,22.55893 -1.1473,0 -3.8939,-2.05913 -6.1036,-4.57584 z"
       id="path6244-8"
       inkscape:connector-curvature="0" />
    <path
       style="fill:#ffe6d5;fill-opacity:1;fill-rule:nonzero;stroke:#000000;stroke-width:1.3468014;stroke-opacity:1"
       d="m 1158.0227,291.49669 c -5.8906,-2.74066 -14.8263,-11.57239 -19.2068,-18.98321 -3.5266,-5.96629 -8.4026,-20.40022 -8.4026,-24.87334 0,-3.13559 0.4798,-3.40949 5.9729,-3.40949 7.1976,0 12.8823,-1.9618 12.8823,-4.4457 0,-1.00033 -1.5151,-3.24219 -3.367,-4.98191 -1.8518,-1.73972 -3.367,-3.84358 -3.367,-4.67524 0,-2.31341 9.621,-11.14535 13.8924,-12.75299 4.8241,-1.8157 12.838,-1.82806 18.0023,-0.0278 4.8851,1.70295 19.3872,17.68437 21.9508,24.19001 1.0217,2.59259 4.4437,9.56229 7.6045,15.48821 8.6811,16.27558 10.6421,28.6775 4.8916,30.93629 -5.407,2.12388 -29.8811,6.09862 -37.3827,6.07117 -4.9986,-0.0183 -10.1394,-0.98612 -13.4707,-2.53603 z m -7.6504,-28.08788 c 0.3234,-2.26665 -0.2428,-3.01654 -2.2774,-3.01654 -3.2236,0 -4.7537,2.03717 -3.6636,4.87783 1.152,3.00221 5.4387,1.65921 5.941,-1.86129 z m 32.3232,0.70092 c -0.4871,-3.4143 -4.9253,-4.90396 -6.5892,-2.21165 -1.4211,2.29939 1.0422,5.22819 4.3972,5.22819 1.9462,0 2.5114,-0.77783 2.192,-3.01654 z"
       id="path6246-3"
       inkscape:connector-curvature="0" />
    <path
       style="fill:#ffe6d5;fill-opacity:1;fill-rule:nonzero;stroke:#000000;stroke-width:1.3468014;stroke-opacity:1"
       d="m 1204.8551,806.23749 c -2.1964,-3.35702 -2.3905,-8.56867 -2.4196,-64.98317 -0.027,-52.17882 -0.4909,-66.76104 -3.1083,-97.69706 -1.6922,-20 -2.89,-40 -2.6619,-44.44444 l 0.4147,-8.08081 5.076,-1.25388 c 3.1333,-0.77397 5.5231,-0.77397 6.244,0 1.8144,1.94802 9.374,82.6202 10.908,116.40539 1.3158,28.97941 3.4512,56.3008 4.7368,60.60606 1.514,5.07014 3.2201,28.76872 2.4667,34.26484 -0.771,5.6252 -1.2261,6.22055 -5.7071,7.46524 -8.7004,2.41674 -13.3061,1.75772 -15.9493,-2.28217 z"
       id="path6248-4"
       inkscape:connector-curvature="0" />
    <path
       style="fill:#ffe6d5;fill-opacity:1;fill-rule:nonzero;stroke:#000000;stroke-width:1.3468014;stroke-opacity:1"
       d="m 1171.743,782.89236 c -7.8368,-1.31645 -12.7271,-4.31195 -14.4538,-8.85348 -2.2559,-5.93358 -1.4078,-7.81909 5.3106,-11.80627 8.1783,-4.85351 14.338,-10.5519 17.0269,-15.75173 4.3686,-8.44802 5.2122,-32.23941 3.4511,-97.33189 -0.9189,-33.96158 -1.4244,-61.99462 -1.1233,-62.29563 0.301,-0.30102 2.4202,0.10561 4.7094,0.90361 4.925,1.71687 4.7317,0.36299 7.0995,49.73968 0.8348,17.40741 2.0694,36.49832 2.7436,42.42425 1.3523,11.88513 1.6872,93.84091 0.4031,98.63171 -1.3616,5.07975 -10.9348,6.73054 -25.1671,4.33975 z"
       id="path6250-9"
       inkscape:connector-curvature="0" />
    <path
       style="fill:#ffcc00;fill-opacity:1;fill-rule:nonzero;stroke:#000000;stroke-width:0.16835018;stroke-opacity:1"
       d="m 472.40667,418.98732 c 0.317,-1.8819 3.1328,-28.96013 4.3458,-41.79294 l 0.2228,-2.3569 0.1206,2.27437 c 0.2095,3.95343 0.5224,5.27178 1.5041,6.33681 l 0.6935,0.75237 -0.2867,1.49595 c -0.2522,1.31565 -0.2866,2.83119 -0.2848,12.57412 10e-4,6.093 0.052,12.49863 0.1139,14.23474 0.082,2.31979 0.061,3.15657 -0.08,3.15657 -0.1058,0 -0.3107,0.28409 -0.4553,0.63131 -0.4008,0.96194 -1.3723,1.85477 -2.8102,2.58238 -1.0492,0.53097 -1.4823,0.65836 -2.2383,0.65836 l -0.9372,0 0.092,-0.54714 z"
       id="path6254-6"
       inkscape:connector-curvature="0" />
    <path
       style="fill:#442178;fill-opacity:1;fill-rule:nonzero;stroke:#000000;stroke-width:1.90466475;stroke-opacity:1"
       d="m 764.48367,763.32491 c -43.2569,-1.34869 -79.1966,-2.99979 -79.8659,-3.66911 -0.6693,-0.66932 -1.9351,-19.84594 -2.8128,-42.61471 -0.8777,-22.76877 -2.8857,-62.82524 -4.4621,-89.01438 -3.5469,-58.92333 -3.5639,-57.1745 0.5601,-57.7038 13.3119,-1.70857 155.232,-4.40871 174.205,-3.31438 l 23.7208,1.36816 1.8598,97.44061 c 1.0228,53.59233 1.5611,97.831 1.1961,98.30814 -1.395,1.82374 -38.5764,1.56356 -114.401,-0.80053 z m -66.095,-185.78349 c 1.9019,-2.10156 2.8971,-4.3819 2.2115,-5.06743 -1.3889,-1.38894 -8.8884,4.7526 -8.8884,7.27897 0,2.78055 3.0834,1.75928 6.6769,-2.21154 z"
       id="path6256-4"
       inkscape:connector-curvature="0" />
    <path
       style="fill:#006680;fill-opacity:1;fill-rule:nonzero;stroke:#000000;stroke-width:1.90466475;stroke-opacity:1"
       d="m 738.49517,506.87214 c -6.2199,-0.90668 -12.1417,-2.4814 -13.1597,-3.49937 -1.018,-1.01798 -2.5106,-9.38545 -3.3169,-18.59438 -0.8064,-9.20894 -1.527,-17.38634 -1.6015,-18.17202 -0.074,-0.78567 -1.5259,-1.4285 -3.2255,-1.4285 -2.224,0 -2.5533,-0.66741 -1.1748,-2.38083 1.0534,-1.30945 2.8661,-6.89267 4.0281,-12.40714 3.1356,-14.87998 6.6795,-22.11464 15.5436,-31.73105 10.1512,-11.01275 15.7091,-12.50172 46.7147,-12.51496 l 24.8805,-0.0106 5.2193,5.44786 c 6.8381,7.13735 10.7134,30.10474 10.7234,63.55233 0.01,23.42499 -0.1451,24.34038 -4.5207,27.2074 -2.4904,1.63176 -7.3937,3.78871 -10.8962,4.79321 -7.6653,2.19838 -9.4546,0.76357 -14.8505,-11.90797 l -3.8313,-8.99741 8.0058,-3.61147 c 10.5397,-4.7545 17.2264,-12.42816 21.0054,-24.10567 2.9047,-8.97597 2.8828,-9.79701 -0.3808,-14.28499 -4.8537,-6.67462 -11.1747,-9.46261 -21.5279,-9.49524 -7.7488,-0.0244 -9.5322,-0.82427 -13.6936,-6.14154 -4.4524,-5.68912 -5.0238,-5.90227 -8.2328,-3.07087 -4.1064,3.62315 -26.2469,14.89832 -29.2551,14.89832 -1.1589,0 1.5349,-2.78557 5.9863,-6.19016 8.3274,-6.36918 11.409,-10.95182 7.3645,-10.95182 -1.2637,0 -7.6951,3.85155 -14.292,8.559 -9.0504,6.45822 -12.5656,10.31504 -14.3217,15.71348 -1.2801,3.93497 -3.4911,8.84512 -4.9134,10.91145 -4.0243,5.84659 -3.1318,8.62336 2.7717,8.62336 3.5103,0 7.2865,2.0288 10.9518,5.88403 6.3698,6.69981 14.2328,11.25795 19.4205,11.25795 1.947,0 5.1051,1.14452 7.0182,2.54338 3.33,2.43495 3.339,2.96274 0.211,12.38032 -3.6762,11.06796 -3.6876,11.07124 -26.6504,7.72392 z"
       id="path6258-9"
       inkscape:connector-curvature="0" />
    <path
       style="fill:#e3dbdb;fill-opacity:1;fill-rule:nonzero;stroke:#000000;stroke-width:1.90466475;stroke-opacity:1"
       d="m 751.62717,474.96208 c -7.3246,-4.46672 -12.7103,-12.58176 -11.9403,-17.99167 0.4432,-3.11438 4.7005,-6.21755 16.7835,-12.23369 16.7313,-8.33052 17.3687,-8.40782 35.2363,-4.27311 5.2378,1.21207 11.4518,2.57091 13.8088,3.01965 3.6962,0.70369 4.2855,2.00666 4.2855,9.4758 0,11.24955 -2.1181,14.87647 -12.1065,20.73005 -7.0422,4.12699 -10.5348,4.82039 -24.2495,4.8143 -12.2453,-0.006 -17.3884,-0.84024 -21.8178,-3.54133 z m 7.3656,-10.55141 c 0.5639,-1.46952 -0.077,-4.18008 -1.4255,-6.02346 -3.3507,-4.58247 -8.7156,-2.19793 -8.7156,3.87389 0,3.81561 0.9509,4.82144 4.5579,4.82144 2.5069,0 5.0193,-1.20234 5.5832,-2.67187 z m 40.1616,-0.42654 c 1.3797,-3.5953 -1.9374,-8.32958 -5.836,-8.32958 -3.243,0 -5.2888,4.63896 -3.7799,8.57099 1.4646,3.81687 8.1228,3.64971 9.6159,-0.24141 z"
       id="path6260-1"
       inkscape:connector-curvature="0" />
    <path
       style="fill:#e3dbdb;fill-opacity:1;fill-rule:nonzero;stroke:#000000;stroke-width:0.33670035;stroke-opacity:1"
       d="m 791.87567,515.82506 c -0.8169,-0.90268 -1.2204,-2.58682 -1.2204,-5.0936 l 0,-2.1897 1.2062,1.68243 c 1.7136,2.39024 2.4975,4.02375 2.4975,5.20436 0,0.90038 -0.1153,1.02351 -0.9579,1.02351 -0.5269,0 -1.2133,-0.28215 -1.5254,-0.627 z"
       id="path6262-5"
       inkscape:connector-curvature="0" />
    <path
       style="fill:#e3dbdb;fill-opacity:1;fill-rule:nonzero;stroke:#000000;stroke-width:0.33670035;stroke-opacity:1"
       d="m 767.08627,516.11536 c 0,-1.4184 0.1404,-2.3569 0.3527,-2.3569 0.541,0 2.0042,1.71062 2.0042,2.34308 0,0.53921 -1.64,2.37073 -2.1228,2.37073 -0.1288,0 -0.2341,-1.06061 -0.2341,-2.35691 z"
       id="path6264-1"
       inkscape:connector-curvature="0" />
    <path
       style="fill:#e3dbdb;fill-opacity:1;fill-rule:nonzero;stroke:#000000;stroke-width:0.33670035;stroke-opacity:1"
       d="m 778.70237,534.151 c 1.8161,-1.55045 4.2088,-1.94715 4.2088,-0.6978 0,0.65021 -1.1216,1.09292 -3.438,1.35707 l -1.7809,0.20308 1.0101,-0.86235 z"
       id="path6266-3"
       inkscape:connector-curvature="0" />
    <path
       style="fill:#e3dbdb;fill-opacity:1;fill-rule:nonzero;stroke:#000000;stroke-width:0.33670035;stroke-opacity:1"
       d="m 785.26807,544.73502 c -0.209,-0.39068 -0.32,-2.12194 -0.2643,-4.12458 0.09,-3.22167 0.1265,-3.3841 0.5552,-2.4412 0.5966,1.31215 0.957,7.23905 0.4402,7.23905 -0.2039,0 -0.5329,-0.30297 -0.7311,-0.67327 z"
       id="path6268-0"
       inkscape:connector-curvature="0" />
    <path
       style="fill:#6c5d53;fill-opacity:1;fill-rule:nonzero;stroke:#000000;stroke-width:0.33670035;stroke-opacity:1"
       d="m 778.67867,527.33867 c -1.9408,-2.2214 -2.3244,-5.04713 -2.5288,-18.6295 -0.1888,-12.53942 0.1739,-21.85967 0.8839,-22.71518 1.3992,-1.68591 4.5969,1.43777 6.0194,5.88017 0.2076,0.64815 0.6728,3.75421 1.0338,6.90235 1.628,14.19544 1.779,22.18914 0.4743,25.10172 -1.2367,2.76071 -4.7092,4.80342 -5.8826,3.46044 z"
       id="path6274-2"
       inkscape:connector-curvature="0" />
    <path
       style="fill:#1a1a1a;fill-opacity:1;fill-rule:nonzero;stroke:#000000;stroke-width:0.95233238;stroke-opacity:1"
       d="m 860.68607,196.81828 c -4.176,-11.04305 -5.8769,-17.143 -5.8906,-21.12592 -0.01,-2.21428 2.6104,-8.60378 8.0303,-19.59871 8.5165,-17.27674 13.835,-24.57547 20.0606,-27.5297 12.317,-5.8448 50.6776,-7.44327 67.2548,-2.80249 7.5061,2.10132 17.7949,9.95059 20.5241,15.65767 6.0114,12.57035 6.3811,33.86656 0.5154,29.67817 -3.092,-2.20776 -5.5772,-2.88833 -14.5157,-3.97516 -11.3803,-1.38371 -16.1554,-3.4574 -19.0215,-8.2605 -1.2117,-2.03072 -2.8622,-4.22791 -3.6676,-4.88264 -4.438,-3.60755 -15.1059,1.46612 -21.3778,10.1673 l -4.0071,5.55914 -13.8802,0.35065 c -13.2398,0.33446 -14.1406,0.48381 -19.5228,3.23647 -7.4251,3.79745 -8.7663,7.10595 -7.0879,17.48456 1.0054,6.2169 0.9448,7.46647 -0.5195,10.71374 -0.9117,2.0218 -2.1283,3.66895 -2.7034,3.66033 -0.5752,-0.009 -2.4612,-3.75843 -4.1911,-8.33291 z"
       id="path6276-7"
       inkscape:connector-curvature="0" />
    <path
       style="fill:#d38d5f;fill-opacity:1;fill-rule:nonzero;stroke:#000000;stroke-width:0.95233238;stroke-opacity:1"
       d="m 911.92417,245.15094 c -15.7007,-1.53081 -27.2514,-9.21694 -36.7474,-24.45269 l -4.4086,-7.07333 2.1926,-7.58827 c 1.9723,-6.82539 2.0784,-8.14193 1.0552,-13.09543 -2.1272,-10.29923 -1.5458,-11.66995 6.4983,-15.31872 3.6421,-1.65201 6.2946,-1.94314 18.0772,-1.98404 l 13.8088,-0.0479 3.1943,-5.27671 c 3.0839,-5.09434 9.5476,-10.85892 12.1759,-10.85892 0.7015,0 3.6903,2.18686 6.6417,4.8597 6.6935,6.0616 9.876,7.40383 19.1746,8.08692 13.0846,0.9612 13.4244,1.32277 16.025,17.05005 2.0876,12.62572 1.5104,22.12787 -1.7647,29.04794 l -2.479,5.23782 -0.057,-3.50925 c -0.068,-4.22458 -1.5285,-8.3949 -2.9396,-8.3949 -0.564,0 -1.4616,1.25098 -1.9946,2.77995 -1.2224,3.50666 -5.2786,5.47798 -13.8084,6.71102 -3.603,0.52083 -7.0438,0.95545 -7.6463,0.96582 -0.6025,0.0104 -1.601,-2.08845 -2.2188,-4.66407 -1.6413,-6.84155 -3.2132,-7.84714 -13.152,-8.41383 -10.8262,-0.61728 -12.5799,0.20657 -12.5799,5.90989 0,5.51821 -0.6577,6.98562 -3.8774,8.6506 -2.6497,1.37021 -8.628,1.90313 -9.6692,0.86193 -0.2922,-0.29223 -0.051,-1.80306 0.5354,-3.35739 1.8607,-4.92948 -2.4965,-9.31346 -6.0554,-6.09268 -1.7068,1.54464 -1.9375,2.50086 -1.4259,5.91204 0.8624,5.75086 -0.8113,5.16156 -3.9948,-1.40654 -1.4798,-3.05298 -3.2862,-5.47591 -4.0827,-5.47591 -3.1102,0 -1.832,8.36597 2.028,13.27315 1.8644,2.37016 2.2394,2.44029 13.0404,2.43885 14.2752,-0.002 17.1123,-1.19231 19.289,-8.09334 l 1.5019,-4.76166 5.0036,-0.29054 c 5.6072,-0.32557 7.7061,0.82287 7.7061,4.21647 0,1.24533 0.8571,3.12133 1.9046,4.16889 1.7225,1.7225 3.1745,1.90467 15.1812,1.90467 7.302,0 13.5254,0.40289 13.8297,0.89531 0.8154,1.31923 -4.8711,7.40247 -9.3806,10.03514 -9.1828,5.36102 -26.905,8.48345 -40.5816,7.14998 z m 35.0538,-30.26747 c 0.2116,-2.10687 -0.2172,-3.19718 -1.535,-3.90244 -3.9248,-2.10049 -7.0867,4.2712 -3.9782,8.01669 1.7924,2.15978 5.1334,-0.33343 5.5132,-4.11425 z m -53.2917,-23.3101 c 2.8018,-1.08926 5.3228,-2.57636 5.6023,-3.30466 1.5402,-4.01355 -6.2478,-3.76555 -11.1447,0.35489 -3.2014,2.69383 -4.0848,6.75411 -1.2185,5.60081 0.9167,-0.36881 3.959,-1.56178 6.7609,-2.65104 z m 62.6578,-5.94145 c 0.8182,-2.13225 -1.4247,-4.27337 -4.4766,-4.27337 -4.9938,0 -10.1546,2.88138 -8.8735,4.95428 0.2583,0.41784 3.2433,0.75972 6.6334,0.75972 4.6235,0 6.302,-0.36001 6.7167,-1.44063 z"
       id="path6278-8"
       inkscape:connector-curvature="0" />
    <path
       style="fill:#88aa00;fill-opacity:1;fill-rule:nonzero;stroke:#000000;stroke-width:0.95233238;stroke-opacity:1"
       d="m 922.87597,508.74011 c -2.0951,-1.22059 -4.4253,-3.49158 -5.1781,-5.04665 -2.2491,-4.64576 -3.3316,-72.82075 -1.9653,-123.77361 0.6179,-23.04644 1.3547,-61.29449 1.6373,-84.99566 l 0.5138,-43.09304 8.4482,0 c 7.4132,0 8.4476,0.20419 8.4427,1.66658 -0.01,2.65767 2.757,59.9476 3.8274,79.28167 0.5365,9.68998 1.8612,24.04639 2.9438,31.90313 1.0826,7.85675 2.3201,16.85629 2.7499,19.99898 1.1283,8.24963 2.6811,34.09413 3.8908,64.75861 1.2449,31.55433 0.4621,44.19503 -3.2372,52.27528 -2.9132,6.36321 -5.6384,8.24526 -12.754,8.80811 -4.5501,0.35993 -6.1736,0.0492 -9.3193,-1.7834 z"
       id="path6280-6"
       inkscape:connector-curvature="0" />
    <path
       style="fill:#d38d5f;fill-opacity:1;fill-rule:nonzero;stroke:#000000;stroke-width:0.95233238;stroke-opacity:1"
       d="m 962.37617,469.73437 c -5.6176,-7.75489 -7.7132,-18.20798 -9.987,-49.81655 -0.8289,-11.52322 -2.3581,-28.45094 -3.3983,-37.61714 -3.7497,-33.04452 -5.737,-61.36398 -4.1982,-59.82518 0.269,0.26906 1.7915,8.37579 3.3833,18.01495 1.5918,9.63917 4.3514,24.8111 6.1324,33.71541 4.7255,23.62477 7.9082,42.72261 8.9307,53.5897 0.497,5.28262 1.53,10.5563 2.3095,11.79142 1.92,3.0419 6.3725,22.31647 6.3725,27.58582 0,7.74872 -4.8454,9.04908 -9.5449,2.56157 z"
       id="path6282-8"
       inkscape:connector-curvature="0" />
    <path
       style="fill:#d38d5f;fill-opacity:1;fill-rule:nonzero;stroke:#000000;stroke-width:0.95233238;stroke-opacity:1"
       d="m 891.00497,477.26972 c -4.5057,-2.27997 -4.5461,-6.05201 -0.2044,-19.07779 6.0769,-18.23192 8.1263,-32.70542 12.0559,-85.14115 1.303,-17.38661 3.4446,-39.54495 4.7591,-49.24075 1.3144,-9.69579 2.6728,-21.94447 3.0184,-27.21928 0.3457,-5.27481 0.9917,-9.815 1.4355,-10.08931 1.0279,-0.63528 0.9543,21.64488 -0.131,39.61163 -0.4587,7.59485 -1.3091,34.80775 -1.8898,60.47311 -0.5807,25.66537 -1.4116,53.74623 -1.8465,62.40193 -0.7125,14.17893 -1.0358,16.22113 -3.2645,20.61928 -4.0205,7.93404 -8.5131,10.40475 -13.9327,7.66233 z"
       id="path6284-2"
       inkscape:connector-curvature="0" />
    <path
       style="fill:#d38d5f;fill-opacity:1;fill-rule:nonzero;stroke:#000000;stroke-width:0.95233238;stroke-opacity:1"
       d="m 972.39727,727.50479 c -1.5714,-0.72942 -3.9284,-1.34972 -5.2379,-1.37846 -3.0637,-0.0672 -11.4371,-3.99463 -13.4894,-6.32692 -4.7156,-5.35911 -10.7018,-36.83464 -15.0704,-79.24137 -2.5288,-24.54691 -3.6212,-40.97907 -4.7918,-72.07637 -0.9438,-25.07314 -2.0595,-39.06176 -3.207,-40.20927 -1.4389,-1.43889 -3.2341,1.0155 -3.7523,5.12996 -3.7328,29.64301 -5.4313,122.04623 -2.544,138.40737 0.8963,5.0791 1.4285,14.12626 1.4285,24.28448 0,14.90686 -0.1677,16.50321 -2.1162,20.14704 -2.7799,5.19858 -5.957,7.58007 -11.7781,8.82847 -7.4437,1.59637 -11.6986,1.28357 -14.7853,-1.08696 -3.871,-2.97282 -4.1449,-3.53518 -4.1613,-8.54183 -0.02,-6.02747 1.1185,-8.65719 7.1768,-16.58158 9.6165,-12.57864 10.4966,-16.40533 11.8069,-51.33409 2.1452,-57.1871 5.1585,-117.03318 6.4135,-127.37446 l 0.5489,-4.52358 10.2028,0 10.2028,0 0.6045,15.4754 c 1.2565,32.16871 7.0871,71.75045 17.7106,120.23197 6.0809,27.75112 7.4406,32.09308 15.4969,49.48736 8.21122,17.72864 9.34292,21.57651 7.3786,25.08755 -1.6684,2.98226 -4.0366,3.45232 -8.0371,1.59529 z"
       id="path6286-8"
       inkscape:connector-curvature="0" />
    <path
       style="fill:#ffe680;fill-opacity:1;fill-rule:nonzero;stroke:#000000;stroke-width:1.90466475;stroke-opacity:1"
       d="m 1211.9781,258.90518 c -13.0998,-25.99595 -16.076,-30.64802 -24.8682,-38.87215 -9.0533,-8.46827 -10.1731,-8.96483 -20.2173,-8.96483 -6.8489,0 -13.2716,1.34602 -18.0467,3.78211 -8.4034,4.28709 -9.7001,5.89698 -11.3848,14.13445 -1.5956,7.80172 -6.7134,8.51653 -13.6175,1.902 -9.5987,-9.19613 -6.6229,-22.37013 7.9181,-35.05356 3.1707,-2.7656 3.8929,-4.37102 2.2697,-5.04509 -4.3957,-1.82536 -2.4423,-3.98502 7.4558,-8.24304 8.9972,-3.87052 11.6381,-4.11648 30.9508,-2.88263 24.1431,1.54246 29.9409,3.44452 41.0261,13.4594 12.4525,11.25007 14.1127,15.90161 12.8361,35.96488 -1.0367,16.29412 -5.5005,36.13114 -8.513,37.83147 -0.7585,0.42809 -3.3726,-3.17776 -5.8091,-8.01301 z"
       id="path6288-0"
       inkscape:connector-curvature="0" />
    <path
       style="fill:#87decd;fill-opacity:1;fill-rule:nonzero;stroke:#000000;stroke-width:1.90466475;stroke-opacity:1"
       d="m 1185.4119,578.20388 c -6.5832,-7.05198 -7.5486,-12.92614 -9.8441,-59.90013 -1.1675,-23.89171 -2.5441,-46.10956 -3.0591,-49.37299 -1.1766,-7.45512 -1.4442,-164.58484 -0.2823,-165.74674 0.4702,-0.47015 3.9407,-1.35558 7.7123,-1.96763 8.5564,-1.38852 9.7707,1.16535 11.7284,24.66692 1.3396,16.08143 1.2557,16.60676 -2.6513,16.60676 -2.7196,0 -4.0346,-1.20119 -4.0346,-3.68534 0,-2.02694 -0.8889,-6.02345 -1.9754,-8.88115 -3.3955,-8.93079 -5.2415,-2.41488 -3.5601,12.56649 0.8818,7.85674 2.9609,31.79596 4.6202,53.19826 1.6594,21.40232 4.2964,44.97254 5.8601,52.37829 1.5637,7.40575 4.96,28.03569 7.5473,45.8443 5.571,38.34473 7.2322,44.37065 13.7474,49.86814 4.0222,3.39387 5.0745,6.21302 5.7368,15.37002 0.7068,9.77095 0.2191,11.90217 -3.7905,16.56357 -3.5768,4.15831 -6.6976,5.54804 -14.0129,6.24018 -8.1496,0.77108 -9.9918,0.26852 -13.7422,-3.74895 z"
       id="path6290-6"
       inkscape:connector-curvature="0" />
    <path
       style="fill:#000000;fill-opacity:0;fill-rule:nonzero;stroke:#000000;stroke-width:0.05952077;stroke-opacity:1"
       d="m 737.47367,444.1208 c -0.178,-0.0654 -0.2976,-0.21777 -0.2976,-0.37902 0,-0.55553 1.462,-1.72414 7.1362,-5.70417 1.2175,-0.85402 2.2281,-1.55276 2.2457,-1.55276 0.018,0 -0.4082,0.43524 -0.946,0.96721 -0.9272,0.917 -1.509,1.60732 -1.7408,2.06566 -0.057,0.11309 -0.1173,0.37198 -0.1336,0.57529 -0.038,0.47194 0.1183,0.82609 0.4728,1.07174 0.3174,0.21997 0.902,0.26126 1.5759,0.11133 1.9889,-0.44248 6.5259,-2.4191 12.847,-5.59699 5.3722,-2.70082 10.142,-5.33265 13.2299,-7.29985 0.4018,-0.25596 0.7491,-0.46538 0.7719,-0.46538 0.085,0 -0.6855,0.73806 -1.1453,1.09752 -2.7166,2.12382 -10.0402,5.9615 -18.6597,9.77792 -7.9018,3.49861 -14.2999,5.71996 -15.3564,5.3315 z"
       id="path6292-0"
       inkscape:connector-curvature="0" />
    <path
       style="fill:#006680;fill-opacity:1;fill-rule:nonzero;stroke:#000000;stroke-width:0.08417509;stroke-opacity:1"
       d="m 737.54917,444.06614 c -0.757,-0.29235 -0.044,-1.04207 3.3249,-3.49653 1.615,-1.17661 4.8363,-3.43523 4.8994,-3.43523 0.03,0 -0.2471,0.3125 -0.6159,0.69445 -1.1816,1.22355 -1.4636,1.67372 -1.4636,2.33586 0,0.50295 0.1517,0.83843 0.4797,1.06073 0.187,0.12678 0.3836,0.15912 0.9513,0.15649 0.6503,-0.003 0.8419,-0.0475 2.1043,-0.48899 2.3019,-0.80494 2.2793,-0.72331 -0.058,0.2091 -5.1414,2.05121 -8.949,3.22413 -9.6223,2.96412 z"
       id="path6298-2"
       inkscape:connector-curvature="0" />
    <path
       style="fill:#006680;fill-opacity:1;fill-rule:nonzero;stroke:#000000;stroke-width:0.05952077;stroke-opacity:1"
       d="m 769.40287,437.76379 c 0.1964,-0.10189 0.9597,-0.47141 1.6963,-0.82116 2.2769,-1.08115 3.7303,-1.64312 4.9532,-1.91516 0.8357,-0.18592 2.002,-0.1847 2.693,0.003 0.9096,0.24683 2.0363,0.86106 3.7394,2.03861 0.6374,0.4407 0.7469,0.53623 0.5781,0.50414 -1.624,-0.30867 -3.6205,-0.58491 -5.0236,-0.69511 -1.1197,-0.0879 -3.746,-0.0365 -4.6485,0.0911 -1.27,0.17947 -3.001,0.56814 -3.8849,0.87224 -0.4754,0.16356 -0.5131,0.13525 -0.103,-0.0774 z"
       id="path6300-1"
       inkscape:connector-curvature="0" />
    <path
       style="fill:#006680;fill-opacity:1;fill-rule:nonzero;stroke:#000000;stroke-width:0.05952077;stroke-opacity:1"
       d="m 748.95747,440.28804 c 0,-0.0262 0.098,-0.0832 0.2189,-0.12673 1.6724,-0.60476 9.273,-4.26094 13.5006,-6.49439 3.4147,-1.80395 6.392,-3.48643 8.6441,-4.88474 0.4745,-0.29467 0.8741,-0.52454 0.8878,-0.51081 0.038,0.0383 -0.8998,0.81136 -1.4668,1.20866 -3.4686,2.43044 -12.6176,7.0477 -20.755,10.47453 -0.9076,0.38219 -1.0296,0.42171 -1.0296,0.33348 z"
       id="path6302-3"
       inkscape:connector-curvature="0" />
    <path
       style="fill:#006680;fill-opacity:1;fill-rule:nonzero;stroke:#000000;stroke-width:0.05952077;stroke-opacity:1"
       d="m 719.73577,447.05817 c -0.01,-0.24038 0.6252,-2.9226 1.0947,-4.63934 2.3862,-8.72367 6.4232,-16.63714 11.5232,-22.58813 1.7672,-2.06206 6.114,-6.49234 7.7054,-7.85342 3.6867,-3.15297 6.3467,-4.33835 11.8149,-5.26504 1.9462,-0.32983 8.1137,-1.15689 11.547,-1.54846 6.0498,-0.68999 10.0922,-0.73349 33.659,-0.36223 1.9969,0.0315 5.0835,0.0754 6.859,0.0975 2.9708,0.0371 3.2358,0.0487 3.3227,0.14468 0.09,0.0994 -0.7226,0.10568 -17.2156,0.1325 -17.1579,0.0279 -19.3249,0.0509 -23.7978,0.25215 -13.6749,0.61543 -19.9074,2.3666 -25.9213,7.28322 -2.5431,2.07903 -6.4503,6.16071 -9.2649,9.67846 -5.4208,6.77492 -8.3335,12.90732 -10.8279,22.79646 -0.2725,1.0803 -0.4968,1.92253 -0.4984,1.87162 z"
       id="path6306-9"
       inkscape:connector-curvature="0" />
    <path
       style="fill:#006680;fill-opacity:1;fill-rule:nonzero;stroke:#000000;stroke-width:0.04208754;stroke-opacity:1"
       d="m 737.71997,470.83667 c -2.0716,-1.90939 -4.4771,-3.41451 -6.5503,-4.09843 -1.2356,-0.40761 -2.0411,-0.55199 -3.4073,-0.61075 -0.5324,-0.0229 -1.1479,-0.0537 -1.3678,-0.0686 -0.3946,-0.0266 -0.3971,-0.0274 -0.1894,-0.0641 0.1157,-0.0204 0.7361,-0.14981 1.3787,-0.28749 1.3705,-0.29367 1.7686,-0.36123 2.4629,-0.41795 0.9474,-0.0774 1.7032,0.0575 2.4715,0.44122 1.2082,0.6034 2.3098,1.64112 4.7942,4.51609 0.3661,0.4237 0.6588,0.77699 0.6504,0.78509 -0.01,0.008 -0.1177,-0.0797 -0.2429,-0.19514 z"
       id="path6308-1"
       inkscape:connector-curvature="0" />
    <path
       style="fill:#006680;fill-opacity:1;fill-rule:nonzero;stroke:#000000;stroke-width:0.04208754;stroke-opacity:1"
       d="m 730.45757,506.95003 c -3.644,-0.18907 -5.5228,-1.195 -6.7113,-3.59321 -0.9843,-1.98627 -1.5469,-4.81488 -2.0216,-10.16414 -0.094,-1.06428 -0.2809,-3.61964 -0.3132,-4.29293 l -0.021,-0.44192 0.062,0.50505 c 0.5917,4.83316 0.9341,7.11691 1.4704,9.8064 0.4559,2.28601 0.8664,3.77216 1.2731,4.60859 0.3198,0.65765 0.7864,1.05518 1.7214,1.46661 1.4378,0.63272 3.968,1.36993 6.6644,1.94175 0.4514,0.0957 0.8397,0.1809 0.8628,0.18928 0.081,0.0295 -2.3227,0.009 -2.9867,-0.0255 z"
       id="path6310-5"
       inkscape:connector-curvature="0" />
    <path
       style="fill:#006680;fill-opacity:1;fill-rule:nonzero;stroke:#000000;stroke-width:0.04208754;stroke-opacity:1"
       d="m 759.03347,510.25029 c -0.9963,-0.0229 -2.3431,-0.13998 -3.8931,-0.3383 l -0.9049,-0.11577 1.4731,-0.0258 c 1.5637,-0.0274 2.0987,-0.0762 3.0092,-0.27446 1.9603,-0.42692 3.3719,-1.37234 4.4338,-2.96953 0.1645,-0.24745 0.3047,-0.44429 0.3116,-0.43743 0.016,0.0162 -0.3242,0.80677 -0.6811,1.58179 -0.6295,1.36717 -1.1393,2.21739 -1.4134,2.35724 -0.3184,0.16243 -1.2174,0.248 -2.3352,0.22225 z"
       id="path6312-9"
       inkscape:connector-curvature="0" />
    <path
       style="fill:#006680;fill-opacity:1;fill-rule:nonzero;stroke:#000000;stroke-width:0.04208754;stroke-opacity:1"
       d="m 767.64327,494.59542 c 0,-0.0271 0.081,-0.35434 0.1846,-0.72719 0.8217,-2.97067 0.7986,-4.49582 -0.089,-5.83933 -0.5908,-0.89465 -2.3636,-2.2804 -3.9709,-3.104 -0.9266,-0.47482 -1.9619,-0.88713 -2.9672,-1.18174 -0.6939,-0.20336 -0.67,-0.23356 0.082,-0.10305 1.7645,0.30638 3.6807,1.05168 5.0723,1.97279 0.1957,0.12953 1.1143,0.86799 2.0413,1.64102 0.927,0.77303 1.6891,1.40805 1.6937,1.41114 0.01,0.006 -1.8643,5.50001 -1.9807,5.81129 -0.035,0.0926 -0.064,0.14618 -0.066,0.11907 z"
       id="path6314-5"
       inkscape:connector-curvature="0" />
    <path
       style="fill:#ffe680;fill-opacity:1;fill-rule:nonzero;stroke:#000000;stroke-width:0.08417509;stroke-opacity:1"
       d="m 1132.164,237.34262 c -2.0116,-0.21903 -4.8434,-1.64258 -7.5452,-3.79294 -1.1812,-0.94007 -3.5981,-3.35027 -4.4939,-4.48138 -1.9252,-2.43076 -3.1089,-4.76914 -3.3708,-6.65908 -0.1143,-0.82425 -0.01,-3.36039 0.2177,-5.09823 0.6174,-4.79777 2.3536,-9.00903 5.3728,-13.03225 0.7549,-1.0059 2.0853,-2.58541 2.1355,-2.53524 0.024,0.0242 -0.1255,0.24465 -0.3327,0.48994 -0.5657,0.66987 -1.5627,2.02003 -2.2251,3.01331 -2.5052,3.75684 -4.0206,7.54598 -4.4942,11.23738 -0.1395,1.08706 -0.1204,3.44626 0.036,4.5192 0.7224,4.93971 3.4882,9.21001 8.2881,12.79675 1.5768,1.17826 3.0939,1.96547 4.5287,2.34986 1.0221,0.27384 2.4618,0.25743 3.3623,-0.0383 1.5424,-0.50655 2.9221,-1.8243 3.6985,-3.53233 0.2411,-0.53039 0.2414,-0.52796 0.08,0.55102 -0.1648,1.10332 -0.4017,2.10181 -0.6183,2.60633 -0.2347,0.54653 -0.7742,1.10566 -1.2745,1.32089 -0.6054,0.26046 -2.285,0.40274 -3.3656,0.2851 z"
       id="path6316-3"
       inkscape:connector-curvature="0" />
    <path
       style="fill:#ffe680;fill-opacity:1;fill-rule:nonzero;stroke:#000000;stroke-width:0.08417509;stroke-opacity:1"
       d="m 1130.3143,189.79129 c -2.4548,-0.72539 -2.1001,-1.84107 1.1343,-3.56804 0.4629,-0.2472 2.2053,-1.20842 3.872,-2.13605 4.8734,-2.71242 5.3966,-2.9638 7.9125,-3.802 1.5464,-0.51521 5.0066,-1.42793 5.1863,-1.36803 0.049,0.0161 -0.36,0.15488 -0.9077,0.30829 -2.5032,0.70112 -7.2655,2.65942 -10.9533,4.50408 -2.5764,1.28871 -3.8806,2.13924 -4.8196,3.14305 -0.9626,1.02903 -1.1279,1.81467 -0.6293,2.99117 0.078,0.18399 0.07,0.18329 -0.7952,-0.0725 z"
       id="path6318-0"
       inkscape:connector-curvature="0" />
    <path
       style="fill:#ffe680;fill-opacity:1;fill-rule:nonzero;stroke:#000000;stroke-width:0.08417509;stroke-opacity:1"
       d="m 1226.3067,239.25349 c 0.02,-0.25463 0.1333,-1.25842 0.2514,-2.23064 0.7192,-5.92436 1.1096,-12.76651 1.0366,-18.16956 -0.057,-4.22191 -0.2788,-6.34563 -0.9447,-9.04717 -1.4639,-5.93823 -4.5916,-10.28701 -12.542,-17.43836 -2.9856,-2.68563 -5.093,-4.37514 -7.3227,-5.87093 -5.284,-3.54462 -10.6704,-5.33692 -19.6549,-6.54008 l -1.4731,-0.19726 1.0522,-0.009 c 2.5171,-0.0211 6.683,0.43151 9.3006,1.01037 3.6331,0.80344 7.6412,2.92563 12.7112,6.73038 8.7108,6.53692 16.3371,15.29893 18.1743,20.88083 1.3508,4.10391 2.0509,10.19398 1.82,15.83065 -0.1405,3.42845 -0.3853,5.34659 -1.11,8.69536 -0.2304,1.06481 -0.6252,3.03451 -0.8773,4.3771 -0.252,1.3426 -0.4418,2.23275 -0.4216,1.97812 z"
       id="path6320-0"
       inkscape:connector-curvature="0" />
    <path
       style="fill:#ffe680;fill-opacity:1;fill-rule:nonzero;stroke:#000000;stroke-width:0.08417509;stroke-opacity:1"
       d="m 1216.2724,268.66807 c -0.3662,-0.31342 -1.1142,-1.38203 -1.4699,-2.09977 -0.2716,-0.54801 -0.8376,-1.98884 -0.7972,-2.02926 0.017,-0.0172 0.236,0.26183 0.4861,0.62017 0.9124,1.30725 1.7741,2.23478 2.3661,2.54697 0.7182,0.37872 1.2878,0.27685 1.9705,-0.35244 0.4237,-0.39055 0.481,-0.3544 0.1435,0.0905 -0.7629,1.00563 -1.4432,1.52309 -2.0024,1.52309 -0.2761,0 -0.4187,-0.0613 -0.6967,-0.29922 z"
       id="path6322-7"
       inkscape:connector-curvature="0" />
    <path
       style="fill:#ffe680;fill-opacity:1;fill-rule:nonzero;stroke:#000000;stroke-width:0.08417509;stroke-opacity:1"
       d="m 1220.6357,264.37975 c 0,-0.0463 0.1052,-0.34983 0.2375,-0.67452 1.186,-2.91032 2.7047,-8.72945 3.888,-14.89787 0.4379,-2.2828 0.508,-2.39671 0.2521,-0.40982 -0.5608,4.35283 -1.4101,8.06719 -2.7371,11.97001 -0.6415,1.88654 -1.6298,4.30378 -1.6405,4.0122 z"
       id="path6326-9"
       inkscape:connector-curvature="0" />
  </g>
</svg>
